<svg width="149" height="56" viewBox="0 0 149 56" fill="none" xmlns="http://www.w3.org/2000/svg">
<path fill-rule="evenodd" clip-rule="evenodd" d="M24.3008 34.4259L35.7862 0H53.1231L64.8019 34.4259H51.5997L49.3994 28.2274H39.0263L36.8259 34.4259H24.3008ZM44.4909 7.62901L39.4857 21.2659H49.1092L44.4909 7.62901ZM66.8269 0V34.4226H89.3392C92.5682 34.4544 95.3112 34.2558 97.5682 33.8267C99.8416 33.3976 101.695 32.4838 103.128 31.0853C104.578 29.6867 105.303 27.6287 105.303 24.9111C105.303 24.0529 105.097 23.1789 104.685 22.2889C104.273 21.3989 103.688 20.6043 102.931 19.9051C102.189 19.1899 101.267 18.5781 100.163 18.0695C99.0591 17.5451 97.8565 17.2034 96.555 17.0445V16.9491C99.2074 16.1068 101.11 15.0341 102.263 13.7309C103.417 12.4277 103.919 10.6319 103.771 8.34344C103.342 5.35569 102.107 3.22613 100.064 1.95475C98.0377 0.683367 95.0723 0.0317845 91.1679 0H66.8269ZM79.1333 27.4618V21.097H87.0657C88.7132 21.097 89.9982 21.383 90.9207 21.9552C91.8598 22.5273 92.2799 23.3139 92.181 24.3152C92.181 25.221 91.6703 25.9838 90.6489 26.6036C89.6275 27.2234 88.4331 27.5095 87.0657 27.4618H79.1333ZM79.1333 13.564V8.34344H87.7576C88.1366 8.34344 88.6061 8.53415 89.1662 8.91556C89.7428 9.29697 90.0641 9.9565 90.13 10.8941C90.097 11.7047 89.8169 12.3562 89.2898 12.8489C88.7626 13.3257 88.2601 13.564 87.7824 13.564H79.1333ZM116.788 0L105.303 34.4259H117.828L120.029 28.2274H130.402L132.602 34.4259H145.804L134.125 0H116.788ZM120.488 21.2659L125.493 7.62901L130.112 21.2659H120.488ZM28.3508 11.1296V4.16817e-05H8.8359V34.1651C8.61907 35.718 8.30285 36.7792 7.88726 37.3486C7.47166 37.9181 6.92958 38.3581 6.26102 38.6686C5.59245 38.9792 4.77934 39.2036 3.82166 39.3416C2.86399 39.4796 1.5901 39.5314 0 39.4969V50.6264C2.81881 50.6264 5.07748 50.5401 6.776 50.3676C8.47451 50.195 10.3718 49.8413 12.4678 49.3064C14.5639 48.7715 16.3076 47.9864 17.6989 46.9511C19.0902 45.9158 20.0569 44.8115 20.599 43.6381C21.1411 42.4648 21.4664 40.4459 21.5748 37.5816V11.1296H28.3508Z" fill="url(#paint0_linear_2_394)"/>
<path fill-rule="evenodd" clip-rule="evenodd" d="M49.7138 45.0102V39.6465H54.7759V55.199H49.7138V49.5984H45.6425V55.199H40.5805V44.2778H35.8156V55.199H30.7535V44.2778H25.8207V39.6465H40.5805V39.6465H45.6425V45.0102H49.7138ZM56.9558 39.6465V55.199H71.6035V50.5677H62.0178V48.7798H67.36V46.0657H62.0178V44.2778H70.2895V39.6465H56.9558ZM84.0414 55.199V44.2778H80.8103V39.6465H94.1656C95.415 39.7614 96.449 40.0845 97.2675 40.6158C98.0861 41.1472 98.6677 41.8867 99.0123 42.8345C99.3282 43.9834 99.4575 44.845 99.4 45.4194C99.3426 45.9939 99.2277 46.5324 99.0554 47.035C98.8831 47.5376 98.4092 48.1192 97.6337 48.7798C96.8582 49.4404 95.8243 49.8676 94.5318 50.0615H89.6636V55.199H84.0414ZM89.6636 43.5238V46.3888H93.584C93.7922 46.3888 94.0184 46.3134 94.2626 46.1626C94.5067 46.0046 94.6359 45.6133 94.6503 44.9886C94.6144 44.3927 94.4672 44.0013 94.2087 43.8146C93.9574 43.6208 93.7456 43.5238 93.5732 43.5238H89.6636ZM101.321 39.6465V55.199H115.969V50.5677H106.383V48.7798H111.725V46.0657H106.383V44.2778H114.655V39.6465H101.321ZM117.072 55.199V39.6465H127.196C128.446 39.7614 129.48 40.0845 130.298 40.6158C131.117 41.1472 131.698 41.8867 132.043 42.8345C132.359 43.9834 132.488 44.845 132.431 45.4194C132.373 45.9939 132.258 46.5324 132.086 47.035C131.914 47.5376 131.44 48.1192 130.664 48.7798C129.889 49.4404 128.855 49.8676 127.562 50.0615H122.694V55.199H117.072ZM122.694 43.5238V46.3888H126.615C126.823 46.3888 127.049 46.3134 127.293 46.1626C127.537 46.0046 127.667 45.6133 127.681 44.9886C127.645 44.3927 127.498 44.0013 127.239 43.8146C126.988 43.6208 126.776 43.5238 126.604 43.5238H122.694ZM134.352 55.199V39.6465H147.686V44.2778H139.414V46.0657H144.756V48.7798H139.414V50.5677H149V55.199H134.352Z" fill="url(#paint1_linear_2_394)"/>
<defs>
<linearGradient id="paint0_linear_2_394" x1="0" y1="0" x2="141.201" y2="61.2392" gradientUnits="userSpaceOnUse">
<stop stop-color="#7D8B26"/>
<stop offset="1" stop-color="#E9952D"/>
</linearGradient>
<linearGradient id="paint1_linear_2_394" x1="25.8207" y1="39.6465" x2="84.3245" y2="109.425" gradientUnits="userSpaceOnUse">
<stop stop-color="#7D8B26"/>
<stop offset="1" stop-color="#E9952D"/>
</linearGradient>
</defs>
</svg>
