<svg width="27" height="31" viewBox="0 0 27 31" fill="none" xmlns="http://www.w3.org/2000/svg">
<path d="M5.19995 24.5V3.5C5.19995 2.11929 6.31924 1 7.69995 1H20.1973C20.8408 1 21.4596 1.24815 21.9247 1.69282L25.2274 4.84977C25.7208 5.32144 26 5.97435 26 6.65695V24.5C26 25.8807 24.8807 27 23.4999 27H7.69995C6.31924 27 5.19995 25.8807 5.19995 24.5Z" stroke="white"/>
<path d="M0 28.4V7.40002C0 6.01931 1.11929 4.90002 2.5 4.90002H14.9973C15.6409 4.90002 16.2596 5.14818 16.7248 5.59284L20.0275 8.7498C20.5209 9.22146 20.8 9.87438 20.8 10.557V28.4C20.8 29.7807 19.6807 30.9 18.3 30.9H2.5C1.11929 30.9 0 29.7807 0 28.4Z" fill="white"/>
</svg>
