<svg width="1440" height="129" viewBox="0 0 1440 129" fill="none" xmlns="http://www.w3.org/2000/svg">
<mask id="path-1-inside-1_2_500" fill="white">
<path d="M0 0H1440V129H0V0Z"/>
</mask>
<path d="M0 0H1440V129H0V0Z" fill="black"/>
<path d="M0 5H1440V-5H0V5ZM1440 124H0V134H1440V124Z" fill="#7D8B26" mask="url(#path-1-inside-1_2_500)"/>
<path d="M60.4375 39.5938V56.3906H58.0938V78.2656C57.9375 82.5885 57.3125 85.5573 56.2188 87.1719C55.125 88.7865 53.5234 90.362 51.4141 91.8984C49.3047 93.4349 46.4271 94.6198 42.7812 95.4531C39.2396 95.7135 36.362 95.8568 34.1484 95.8828C31.9349 95.9089 29.5521 95.9479 27 96V79.2031C29.0312 79.724 31.3229 79.724 33.875 79.2031C35.9062 78.7344 37.3125 78.1875 38.0938 77.5625C38.875 76.9375 39.4219 75.4531 39.7344 73.1094V39.5938H60.4375ZM42.0781 41.9375V73.1094C41.7396 76.0781 40.8932 78.0573 39.5391 79.0469C38.1849 80.0365 36.2969 80.8177 33.875 81.3906C32.3385 81.8073 30.8281 81.9375 29.3438 81.7812V93.6562C34.7865 93.7083 39.2656 93.526 42.7812 93.1094C46.2708 92.3802 48.9531 91.2604 50.8281 89.75C52.7292 88.2396 54.0182 86.7682 54.6953 85.3359C55.3984 83.8776 55.75 81.5208 55.75 78.2656V54.0469H58.0938V41.9375H42.0781ZM123.25 68.1094C123.146 62.4323 121.896 57.6016 119.5 53.6172C117.13 49.6328 113.68 46.612 109.148 44.5547C104.643 42.4974 99.2786 41.4688 93.0547 41.4688C88.3672 41.4688 84.1745 42.0547 80.4766 43.2266C76.7786 44.3984 73.6536 46.1042 71.1016 48.3438C68.5495 50.5833 66.6094 53.3568 65.2812 56.6641C63.9792 59.9453 63.276 63.7474 63.1719 68.0703C63.276 73.7995 64.474 78.6432 66.7656 82.6016C69.0833 86.5599 72.4818 89.5547 76.9609 91.5859C81.4401 93.6172 86.8047 94.6328 93.0547 94.6328C99.3047 94.6328 104.682 93.6302 109.188 91.625C113.693 89.5938 117.13 86.5859 119.5 82.6016C121.896 78.5911 123.146 73.7604 123.25 68.1094ZM125.594 68.1094C125.594 74.2812 124.305 79.5417 121.727 83.8906C119.148 88.2396 115.411 91.5078 110.516 93.6953C105.646 95.8828 99.8255 96.9766 93.0547 96.9766C86.2839 96.9766 80.4635 95.8828 75.5938 93.6953C70.75 91.4818 67.0781 88.2266 64.5781 83.9297C62.0781 79.6068 60.8281 74.3333 60.8281 68.1094C60.8281 63.3958 61.5443 59.2552 62.9766 55.6875C64.4089 52.0938 66.5052 49.0729 69.2656 46.625C72.026 44.1771 75.4115 42.3281 79.4219 41.0781C83.4323 39.8021 87.9766 39.1641 93.0547 39.1641C99.7995 39.1641 105.62 40.2839 110.516 42.5234C115.411 44.737 119.148 48.0182 121.727 52.3672C124.305 56.6901 125.594 61.9375 125.594 68.1094ZM79.4219 68.1875C79.4219 58.2917 83.849 53.3438 92.7031 53.3438C98.3281 53.3438 102.013 54.8281 103.758 57.7969C105.503 60.7396 106.479 64.2031 106.688 68.1875C106.479 70.974 106.128 73.3698 105.633 75.375C105.138 77.3542 103.875 79.125 101.844 80.6875C99.8385 82.224 96.7917 82.9922 92.7031 82.9922C87.4427 82.9922 83.9141 81.5208 82.1172 78.5781C80.3203 75.6094 79.4219 72.1458 79.4219 68.1875ZM81.9609 68.3047C81.9609 71.612 82.6901 74.5026 84.1484 76.9766C85.6068 79.4245 88.5104 80.6484 92.8594 80.6484C96.1927 80.6484 98.6927 79.9974 100.359 78.6953C102.026 77.3932 103.068 75.9219 103.484 74.2812C103.901 72.6406 104.174 70.6484 104.305 68.3047C104.174 64.9974 103.38 62.1198 101.922 59.6719C100.49 57.224 97.4688 56 92.8594 56C85.5938 56 81.9609 60.1016 81.9609 68.3047ZM128.328 39.5938H146.688V96H128.328V39.5938ZM130.672 41.9375V93.6562H144.344V41.9375H130.672ZM149.031 96V39.5938H167.391L184.188 60.6875V39.5938H202.547V96H184.188L167.391 74.9062V96H149.031ZM151.375 41.9375V93.6562H165.047V72.5625H168.758L185.555 93.6562H200.203V41.9375H186.531V62.9531H182.82L166.414 41.9375H151.375ZM260.359 39.5938V72.9531C260.203 76.7552 260.932 79.3984 262.547 80.8828C264.161 82.3672 266.688 83.1615 270.125 83.2656C272.885 83.2135 275.19 82.4062 277.039 80.8438C278.888 79.2812 279.76 76.651 279.656 72.9531V39.5938H298.016V72.6797C297.938 77.3672 297.156 81.1172 295.672 83.9297C294.214 86.7161 292.352 89.0469 290.086 90.9219C287.846 92.7969 285.021 94.2552 281.609 95.2969C278.224 96.3385 274.448 96.9115 270.281 97.0156C266.818 96.9375 263.289 96.4688 259.695 95.6094C256.128 94.724 253.003 93.3438 250.32 91.4688C247.664 89.5938 245.607 87.1849 244.148 84.2422C242.716 81.2995 242 77.4583 242 72.7188V39.5938H260.359ZM244.344 41.9375V72.7188C244.604 77.3542 245.32 80.8307 246.492 83.1484C247.664 85.4661 249.435 87.5104 251.805 89.2812C254.174 91.0521 257.026 92.3672 260.359 93.2266C263.693 94.0859 267 94.5677 270.281 94.6719C274.188 94.5156 277.755 93.9297 280.984 92.9141C284.214 91.8984 286.805 90.5443 288.758 88.8516C290.711 87.1589 292.326 85.1536 293.602 82.8359C294.878 80.5182 295.568 77.1328 295.672 72.6797V41.9375H282V72.9531C282.156 76.9115 281.297 79.9193 279.422 81.9766C277.547 84.0339 274.448 85.2448 270.125 85.6094C265.594 85.4531 262.417 84.3594 260.594 82.3281C258.771 80.2969 257.911 77.1719 258.016 72.9531V41.9375H244.344ZM342.352 39.5938V56.3906H330.984C324.292 56.1823 323.302 58.0312 328.016 61.9375C336.453 69.3333 340.594 76.5208 340.438 83.5C340.281 90.4792 336.141 94.6458 328.016 96H298.016V79.2031H309.891C317.26 79.4115 318.198 77.3542 312.703 73.0312C303.641 64.6979 299.786 57.0417 301.141 50.0625C302.495 43.0833 306.766 39.5938 313.953 39.5938H342.352ZM300.359 81.5469V93.6562H328.016C334.891 92.1979 338.224 88.4479 338.016 82.4062C337.807 76.3646 333.224 69.5417 324.266 61.9375C320.099 56.5208 322.339 53.8906 330.984 54.0469H340.008V41.9375H313.953C308.536 42.0417 305.125 44.9323 303.719 50.6094C302.312 56.2865 306.036 63.2396 314.891 71.4688C321.453 77.9271 319.786 81.2865 309.891 81.5469H300.359ZM385.438 78.9297H403.172V69.5547H385.438V78.9297ZM383.094 81.2734V67.2109H405.516V81.2734H383.094ZM466.609 52.2891H479.148C481.518 52.3151 483.471 52.7708 485.008 53.6562C486.57 54.5417 487.312 55.8438 487.234 57.5625C487.234 59.0469 486.44 60.2839 484.852 61.2734C483.289 62.263 481.388 62.7448 479.148 62.7188H466.609V52.2891ZM468.953 54.6328V60.375H479.148C481.206 60.2188 482.599 59.9583 483.328 59.5938C484.083 59.2031 484.604 58.526 484.891 57.5625C484.865 56.5729 484.435 55.8698 483.602 55.4531C482.794 55.0104 481.336 54.737 479.227 54.6328H468.953ZM448.562 41.9375V39.5938H487.039C493.211 39.6458 497.898 40.7135 501.102 42.7969C504.331 44.8802 506.284 48.3698 506.961 53.2656C507.195 57.0156 506.401 59.9583 504.578 62.0938C502.755 64.2292 499.747 65.987 495.555 67.3672V67.5234C497.612 67.7839 499.513 68.3438 501.258 69.2031C503.003 70.0365 504.461 71.0391 505.633 72.2109C506.831 73.3568 507.755 74.6589 508.406 76.1172C509.057 77.5755 509.383 79.0078 509.383 80.4141C509.383 84.8672 508.237 88.2396 505.945 90.5312C503.68 92.8229 500.75 94.3203 497.156 95.0234C493.589 95.7266 489.253 96.0521 484.148 96H448.562V93.6562H484.148C489.174 93.7604 493.38 93.474 496.766 92.7969C500.177 92.1198 502.768 90.7656 504.539 88.7344C506.31 86.6771 507.143 83.9036 507.039 80.4141C507.039 79.0339 506.74 77.7578 506.141 76.5859C505.542 75.4141 504.773 74.3724 503.836 73.4609C502.898 72.5495 501.688 71.7292 500.203 71C498.719 70.2448 496.258 69.5026 492.82 68.7734V66.2344C497.273 64.9844 500.411 63.4089 502.234 61.5078C504.083 59.6068 504.878 56.8594 504.617 53.2656C504.044 49.151 502.365 46.2604 499.578 44.5938C496.792 42.901 492.612 42.0156 487.039 41.9375H448.562ZM466.609 72.875H481.414C484.305 72.7708 486.674 73.3307 488.523 74.5547C490.372 75.7786 491.193 77.4062 490.984 79.4375C491.036 81.3125 490.138 82.875 488.289 84.125C486.44 85.375 484.148 85.9609 481.414 85.8828H466.609V72.875ZM468.953 75.2188V83.5H481.414C484.148 83.4479 485.997 83.0833 486.961 82.4062C487.924 81.7292 488.484 80.7396 488.641 79.4375C488.667 78.0312 488.146 76.9896 487.078 76.3125C486.036 75.6354 484.148 75.2708 481.414 75.2188H468.953ZM450.906 54.0469V81.5469H448.562V54.0469H450.906ZM530.516 39.5938V72.9531C530.359 76.7552 531.089 79.3984 532.703 80.8828C534.318 82.3672 536.844 83.1615 540.281 83.2656C543.042 83.2135 545.346 82.4062 547.195 80.8438C549.044 79.2812 549.917 76.651 549.812 72.9531V39.5938H568.172V72.6797C568.094 77.3672 567.312 81.1172 565.828 83.9297C564.37 86.7161 562.508 89.0469 560.242 90.9219C558.003 92.7969 555.177 94.2552 551.766 95.2969C548.38 96.3385 544.604 96.9115 540.438 97.0156C536.974 96.9375 533.445 96.4688 529.852 95.6094C526.284 94.724 523.159 93.3438 520.477 91.4688C517.82 89.5938 515.763 87.1849 514.305 84.2422C512.872 81.2995 512.156 77.4583 512.156 72.7188V39.5938H530.516ZM514.5 41.9375V72.7188C514.76 77.3542 515.477 80.8307 516.648 83.1484C517.82 85.4661 519.591 87.5104 521.961 89.2812C524.331 91.0521 527.182 92.3672 530.516 93.2266C533.849 94.0859 537.156 94.5677 540.438 94.6719C544.344 94.5156 547.911 93.9297 551.141 92.9141C554.37 91.8984 556.961 90.5443 558.914 88.8516C560.867 87.1589 562.482 85.1536 563.758 82.8359C565.034 80.5182 565.724 77.1328 565.828 72.6797V41.9375H552.156V72.9531C552.312 76.9115 551.453 79.9193 549.578 81.9766C547.703 84.0339 544.604 85.2448 540.281 85.6094C535.75 85.4531 532.573 84.3594 530.75 82.3281C528.927 80.2969 528.068 77.1719 528.172 72.9531V41.9375H514.5ZM635.828 39.5938L611.219 75.2969V96H592.781V75.2969L568.172 39.5938H590.438L601.922 57.0156L613.562 39.5938H635.828ZM572.703 41.9375L595.203 74.5938V93.6562H608.953V74.5938L631.531 41.9375H615.125L603.289 59.3594H600.75L589.188 41.9375H572.703ZM701.766 39.5938V56.3906H699.422V78.2656C699.266 82.5885 698.641 85.5573 697.547 87.1719C696.453 88.7865 694.852 90.362 692.742 91.8984C690.633 93.4349 687.755 94.6198 684.109 95.4531C680.568 95.7135 677.69 95.8568 675.477 95.8828C673.263 95.9089 670.88 95.9479 668.328 96V79.2031C670.359 79.724 672.651 79.724 675.203 79.2031C677.234 78.7344 678.641 78.1875 679.422 77.5625C680.203 76.9375 680.75 75.4531 681.062 73.1094V39.5938H701.766ZM683.406 41.9375V73.1094C683.068 76.0781 682.221 78.0573 680.867 79.0469C679.513 80.0365 677.625 80.8177 675.203 81.3906C673.667 81.8073 672.156 81.9375 670.672 81.7812V93.6562C676.115 93.7083 680.594 93.526 684.109 93.1094C687.599 92.3802 690.281 91.2604 692.156 89.75C694.057 88.2396 695.346 86.7682 696.023 85.3359C696.727 83.8776 697.078 81.5208 697.078 78.2656V54.0469H699.422V41.9375H683.406ZM701.766 96L720.32 39.5938H748.328L767.195 96H745.867L742.312 85.8438H725.555L722 96H701.766ZM734.383 51.2734L742.391 74.4375H725.75L734.383 51.2734ZM705.047 93.6562H720.438L724.07 83.5H744.188L747.859 93.6562H763.992L746.805 41.9375H722.273L705.047 93.6562ZM729.422 72.0938H738.719L734.422 59.5156L729.422 72.0938ZM767.234 96V39.5938H805.711C811.883 39.6458 816.57 40.7135 819.773 42.7969C823.003 44.8802 824.956 48.3698 825.633 53.2656C825.867 57.0156 825.073 59.9583 823.25 62.0938C821.427 64.2292 818.419 65.987 814.227 67.3672V67.5234C816.284 67.7839 818.185 68.3438 819.93 69.2031C821.674 70.0365 823.133 71.0391 824.305 72.2109C825.503 73.3568 826.427 74.6589 827.078 76.1172C827.729 77.5755 828.055 79.0078 828.055 80.4141C828.055 84.8672 826.909 88.2396 824.617 90.5312C822.352 92.8229 819.422 94.3203 815.828 95.0234C812.26 95.7266 807.924 96.0521 802.82 96H767.234ZM785.281 52.2891H797.82C800.19 52.3151 802.143 52.7708 803.68 53.6562C805.242 54.5417 805.984 55.8438 805.906 57.5625C805.906 59.0469 805.112 60.2839 803.523 61.2734C801.961 62.263 800.06 62.7448 797.82 62.7188H785.281V52.2891ZM787.625 54.6328V60.375H797.82C799.878 60.2188 801.271 59.9583 802 59.5938C802.755 59.2031 803.276 58.526 803.562 57.5625C803.536 56.5729 803.107 55.8698 802.273 55.4531C801.466 55.0104 800.008 54.737 797.898 54.6328H787.625ZM769.578 93.6562H802.82C807.846 93.7604 812.052 93.474 815.438 92.7969C818.849 92.1198 821.44 90.7656 823.211 88.7344C824.982 86.6771 825.815 83.9036 825.711 80.4141C825.711 79.0339 825.411 77.7578 824.812 76.5859C824.214 75.4141 823.445 74.3724 822.508 73.4609C821.57 72.5495 820.359 71.7292 818.875 71C817.391 70.2448 814.93 69.5026 811.492 68.7734V66.2344C815.945 64.9844 819.083 63.4089 820.906 61.5078C822.755 59.6068 823.549 56.8594 823.289 53.2656C822.716 49.151 821.036 46.2604 818.25 44.5938C815.464 42.901 811.284 42.0156 805.711 41.9375H769.578V93.6562ZM785.281 72.875H800.086C802.977 72.7708 805.346 73.3307 807.195 74.5547C809.044 75.7786 809.865 77.4062 809.656 79.4375C809.708 81.3125 808.81 82.875 806.961 84.125C805.112 85.375 802.82 85.9609 800.086 85.8828H785.281V72.875ZM787.625 75.2188V83.5H800.086C802.82 83.4479 804.669 83.0833 805.633 82.4062C806.596 81.7292 807.156 80.7396 807.312 79.4375C807.339 78.0312 806.818 76.9896 805.75 76.3125C804.708 75.6354 802.82 75.2708 800.086 75.2188H787.625ZM828.484 96L847.039 39.5938H875.047L893.914 96H872.586L869.031 85.8438H852.273L848.719 96H828.484ZM861.102 51.2734L869.109 74.4375H852.469L861.102 51.2734ZM831.766 93.6562H847.156L850.789 83.5H870.906L874.578 93.6562H890.711L873.523 41.9375H848.992L831.766 93.6562ZM856.141 72.0938H865.438L861.141 59.5156L856.141 72.0938ZM978.172 39.5938V56.3906H962.625V96H944.266V56.3906H928.719V39.5938H978.172ZM931.062 41.9375V54.0469H946.609V93.6562H960.281V54.0469H975.828V41.9375H931.062ZM1013.64 59.0469V39.5938H1032V96H1013.64V75.6875H998.875V96H980.516V39.5938H998.875V59.0469H1013.64ZM982.859 41.9375V93.6562H996.531V73.3438H1015.98V93.6562H1029.66V41.9375H1015.98V61.3906H996.531V41.9375H982.859ZM1034.34 96V39.5938H1082.7V56.3906H1052.7V62.875H1072.08V72.7188H1052.7V79.2031H1085.12V96H1034.34ZM1036.69 41.9375V93.6562H1082.78V81.5469H1050.36V70.4531H1069.73V65.2188H1050.36V54.0469H1080.36V41.9375H1036.69ZM1124.58 96V39.5938H1161.3C1165.83 40.1667 1169.49 41.3385 1172.27 43.1094C1175.06 44.8802 1177.03 47.0417 1178.17 49.5938C1179.32 52.1458 1179.99 54.3203 1180.2 56.1172C1180.41 57.9141 1180.46 59.6849 1180.36 61.4297C1180.26 63.1745 1179.88 64.9453 1179.23 66.7422C1178.58 68.5391 1176.82 70.5833 1173.95 72.875C1171.09 75.1667 1167.31 76.6641 1162.62 77.3672H1144.97V96H1124.58ZM1143.99 52.6797H1159.77C1160.48 52.6797 1161.34 53.0964 1162.35 53.9297C1163.37 54.737 1163.97 56.4297 1164.15 59.0078C1164.04 61.6901 1163.5 63.3698 1162.51 64.0469C1161.54 64.724 1160.65 65.0625 1159.81 65.0625H1143.99V52.6797ZM1126.92 93.6562H1142.62V75.0234H1162.62C1167.05 74.112 1170.44 72.6797 1172.78 70.7266C1175.12 68.7734 1176.69 66.4948 1177.47 63.8906C1178.25 61.2865 1178.42 58.8255 1177.98 56.5078C1177.53 54.1901 1176.91 52.1719 1176.1 50.4531C1175.29 48.7344 1173.71 47.0156 1171.34 45.2969C1168.97 43.5781 1165.62 42.4583 1161.3 41.9375H1126.92V93.6562ZM1146.41 54.9453V62.9141H1158.48C1159.11 62.9141 1159.8 62.7057 1160.55 62.2891C1161.34 61.8464 1161.75 60.7396 1161.8 58.9688C1161.67 57.3542 1161.21 56.2865 1160.4 55.7656C1159.62 55.2188 1158.97 54.9453 1158.45 54.9453H1146.41ZM1183.25 96V39.5938H1231.61V56.3906H1201.61V62.875H1220.98V72.7188H1201.61V79.2031H1234.03V96H1183.25ZM1185.59 41.9375V93.6562H1231.69V81.5469H1199.27V70.4531H1218.64V65.2188H1199.27V54.0469H1229.27V41.9375H1185.59ZM1236.38 96V39.5938H1273.09C1277.62 40.1667 1281.28 41.3385 1284.07 43.1094C1286.86 44.8802 1288.82 47.0417 1289.97 49.5938C1291.11 52.1458 1291.79 54.3203 1292 56.1172C1292.21 57.9141 1292.26 59.6849 1292.16 61.4297C1292.05 63.1745 1291.67 64.9453 1291.02 66.7422C1290.37 68.5391 1288.61 70.5833 1285.75 72.875C1282.89 75.1667 1279.11 76.6641 1274.42 77.3672H1256.77V96H1236.38ZM1255.79 52.6797H1271.57C1272.27 52.6797 1273.13 53.0964 1274.15 53.9297C1275.16 54.737 1275.76 56.4297 1275.95 59.0078C1275.84 61.6901 1275.29 63.3698 1274.3 64.0469C1273.34 64.724 1272.44 65.0625 1271.61 65.0625H1255.79V52.6797ZM1238.72 93.6562H1254.42V75.0234H1274.42C1278.85 74.112 1282.23 72.6797 1284.58 70.7266C1286.92 68.7734 1288.48 66.4948 1289.27 63.8906C1290.05 61.2865 1290.22 58.8255 1289.77 56.5078C1289.33 54.1901 1288.71 52.1719 1287.9 50.4531C1287.09 48.7344 1285.5 47.0156 1283.13 45.2969C1280.76 43.5781 1277.42 42.4583 1273.09 41.9375H1238.72V93.6562ZM1258.21 54.9453V62.9141H1270.28C1270.91 62.9141 1271.6 62.7057 1272.35 62.2891C1273.13 61.8464 1273.55 60.7396 1273.6 58.9688C1273.47 57.3542 1273 56.2865 1272.2 55.7656C1271.41 55.2188 1270.76 54.9453 1270.24 54.9453H1258.21ZM1295.05 96V39.5938H1343.41V56.3906H1313.41V62.875H1332.78V72.7188H1313.41V79.2031H1345.83V96H1295.05ZM1297.39 41.9375V93.6562H1343.48V81.5469H1311.06V70.4531H1330.44V65.2188H1311.06V54.0469H1341.06V41.9375H1297.39ZM1388.88 78.9297H1406.61V69.5547H1388.88V78.9297ZM1386.53 81.2734V67.2109H1408.95V81.2734H1386.53Z" fill="#7D8B26"/>
</svg>
