<svg width="22" height="15" viewBox="0 0 22 15" fill="none" xmlns="http://www.w3.org/2000/svg">
<path d="M19.9999 1.99999H1.25C0.817807 1.99999 0.5 1.68218 0.5 1.25C0.5 0.817807 0.817807 0.5 1.25 0.5H19.9999C20.4321 0.5 20.7499 0.817807 20.7499 1.25C20.7499 1.68218 20.4321 1.99999 19.9999 1.99999ZM19.9999 8.24997H1.25C0.817807 8.24997 0.5 7.93216 0.5 7.49997C0.5 7.06779 0.817807 6.74998 1.25 6.74998H19.9999C20.4321 6.74998 20.7499 7.06779 20.7499 7.49997C20.7499 7.93216 20.4321 8.24997 19.9999 8.24997Z" fill="white" stroke="white"/>
<path d="M19.9999 14.5002H1.25C0.817807 14.5002 0.5 14.1824 0.5 13.7502C0.5 13.3181 0.817807 13.0002 1.25 13.0002H19.9999C20.4321 13.0002 20.7499 13.3181 20.7499 13.7502C20.7499 14.1824 20.4321 14.5002 19.9999 14.5002Z" fill="white" stroke="white"/>
</svg>
