<svg width="38" height="31" viewBox="0 0 38 31" fill="none" xmlns="http://www.w3.org/2000/svg">
<path d="M35.213 0.126678L0.984114 13.1306C0.96375 13.1383 0.944008 13.1475 0.925058 13.1582C0.647495 13.3125 -1.28954 14.4757 1.4418 15.5186L1.46985 15.5288L9.62031 18.1139C9.6825 18.1337 9.74834 18.14 9.81325 18.1322C9.87815 18.1245 9.94054 18.1029 9.99606 18.069L30.2117 5.68613C30.2612 5.65576 30.3164 5.63531 30.3741 5.62597C30.6553 5.58031 31.4651 5.4948 30.9528 6.13329C30.3733 6.85802 16.5653 19.006 15.0328 20.3533C14.9444 20.4312 14.8898 20.5393 14.88 20.6555L14.2112 28.4827C14.2111 28.5624 14.2299 28.641 14.2662 28.7124C14.3025 28.7837 14.3551 28.8458 14.4201 28.8936C14.5122 28.9506 14.6206 28.977 14.7292 28.9689C14.8378 28.9608 14.9409 28.9187 15.0232 28.8487L19.8658 24.5996C19.9423 24.5325 20.0399 24.4931 20.1423 24.4879C20.2448 24.4828 20.346 24.5122 20.429 24.5713L28.8777 30.5938L28.905 30.612C29.1095 30.7359 31.3182 31.9977 31.956 29.1799L37.7878 1.95519C37.7959 1.86894 37.8749 0.920989 37.1847 0.360768C36.4598 -0.224819 35.4337 0.0708734 35.2794 0.102762C35.2566 0.108982 35.2344 0.116979 35.213 0.126678Z" fill="black"/>
</svg>
