<svg width="23" height="23" viewBox="0 0 23 23" fill="none" xmlns="http://www.w3.org/2000/svg">
<g clip-path="url(#clip0_0_146)">
<path d="M9.19846 10.1959C9.02914 10.0266 8.79949 9.93145 8.56003 9.93145C8.32058 9.93145 8.09093 10.0266 7.92161 10.1959C7.75229 10.3652 7.65717 10.5949 7.65717 10.8343C7.65717 10.9529 7.68052 11.0703 7.72589 11.1798C7.77127 11.2894 7.83777 11.3889 7.92161 11.4727L10.6225 14.1694C10.7073 14.2557 10.8091 14.3233 10.9214 14.3681C11.0338 14.413 11.1542 14.4339 11.275 14.4297C11.3959 14.4255 11.5146 14.3962 11.6235 14.3437C11.7324 14.2911 11.8293 14.2165 11.9078 14.1246L18.2015 6.93228C18.3408 6.75122 18.406 6.52393 18.3838 6.29656C18.3617 6.0692 18.2538 5.85878 18.0822 5.70803C17.9105 5.55727 17.688 5.47748 17.4596 5.48484C17.2313 5.4922 17.0143 5.58617 16.8528 5.74767L11.2605 12.2207L9.19846 10.1959Z" fill="#EE7A5D"/>
<path d="M19.3481 9.93527C19.1095 9.93527 18.8808 10.03 18.7121 10.1987C18.5434 10.3674 18.4486 10.5962 18.4486 10.8347C18.4486 12.2572 18.0268 13.6478 17.2365 14.8306C16.4462 16.0133 15.3229 16.9352 14.0087 17.4796C12.6945 18.0239 11.2483 18.1664 9.85318 17.8888C8.45801 17.6113 7.17646 16.9263 6.1706 15.9205C5.16474 14.9146 4.47973 13.6331 4.20222 12.2379C3.9247 10.8427 4.06713 9.39658 4.6115 8.08236C5.15587 6.76814 6.07773 5.64485 7.2605 4.85455C8.44326 4.06425 9.83382 3.64243 11.2563 3.64243C11.8313 3.64608 12.4041 3.71247 12.9647 3.84043C13.0817 3.87572 13.2046 3.88679 13.326 3.87297C13.4474 3.85914 13.5647 3.82071 13.6707 3.76002C13.7767 3.69932 13.8693 3.61765 13.9427 3.51998C14.0161 3.42232 14.0688 3.31071 14.0976 3.19198C14.1264 3.07326 14.1307 2.9499 14.1102 2.82946C14.0897 2.70902 14.0449 2.59402 13.9784 2.49149C13.912 2.38896 13.8254 2.30105 13.7238 2.23314C13.6223 2.16522 13.5079 2.11873 13.3878 2.09651C12.6895 1.93179 11.9747 1.84691 11.2572 1.84351C9.47904 1.84351 7.74084 2.37078 6.26238 3.35866C4.78392 4.34653 3.6316 5.75064 2.95114 7.39342C2.27068 9.0362 2.09264 10.8439 2.43954 12.5878C2.78643 14.3318 3.64268 15.9337 4.90001 17.1911C6.15734 18.4484 7.75927 19.3046 9.50324 19.6515C11.2472 19.9984 13.0549 19.8204 14.6976 19.1399C16.3404 18.4595 17.7445 17.3071 18.7324 15.8287C19.7203 14.3502 20.2476 12.612 20.2476 10.8339C20.2476 10.7158 20.2243 10.5989 20.1791 10.4898C20.1339 10.3807 20.0676 10.2816 19.9841 10.1982C19.9005 10.1147 19.8014 10.0485 19.6922 10.0034C19.5831 9.95832 19.4662 9.93516 19.3481 9.93527Z" fill="#0056BD"/>
</g>
<defs>
<clipPath id="clip0_0_146">
<rect width="22" height="22" fill="white" transform="translate(0.468689 0.0454102)"/>
</clipPath>
</defs>
</svg>
