<svg width="26" height="26" viewBox="0 0 26 26" fill="none" xmlns="http://www.w3.org/2000/svg">
<path d="M9.65328 21.704C9.25154 21.704 8.85881 21.819 8.52478 22.0345C8.19074 22.25 7.93039 22.5563 7.77665 22.9146C7.62291 23.273 7.58268 23.6673 7.66106 24.0478C7.73944 24.4282 7.93289 24.7777 8.21697 25.052C8.50104 25.3262 8.86298 25.513 9.257 25.5887C9.65103 25.6644 10.0594 25.6255 10.4306 25.4771C10.8018 25.3286 11.119 25.0773 11.3422 24.7548C11.5654 24.4322 11.6845 24.0531 11.6845 23.6652C11.6845 23.145 11.4705 22.6462 11.0896 22.2784C10.7087 21.9106 10.192 21.704 9.65328 21.704ZM23.872 17.7815H7.62203C7.26288 17.7815 6.91844 17.6438 6.66449 17.3986C6.41053 17.1534 6.26786 16.8208 6.26786 16.4741C6.26786 16.1273 6.41053 15.7948 6.66449 15.5496C6.91844 15.3044 7.26288 15.1666 7.62203 15.1666H19.1205C20.0027 15.1639 20.8601 14.8852 21.5644 14.3723C22.2687 13.8594 22.7819 13.14 23.027 12.3218L25.174 5.06626C25.2316 4.87167 25.2416 4.66683 25.2033 4.46786C25.1649 4.2689 25.0793 4.08123 24.9531 3.91965C24.8269 3.75807 24.6636 3.62697 24.476 3.53669C24.2884 3.44641 24.0816 3.3994 23.872 3.39937H7.26869C6.98836 2.63758 6.47159 1.97777 5.78879 1.50983C5.106 1.04189 4.29038 0.788583 3.45308 0.784424H2.20536C1.84622 0.784424 1.50178 0.922175 1.24782 1.16737C0.993867 1.41257 0.851196 1.74513 0.851196 2.09189C0.851196 2.43866 0.993867 2.77122 1.24782 3.01642C1.50178 3.26161 1.84622 3.39937 2.20536 3.39937H3.45308C3.74704 3.40036 4.03277 3.49326 4.26747 3.66417C4.50217 3.83508 4.67322 4.07479 4.755 4.34741L4.9656 5.05965L4.96593 5.06626L7.18761 12.574C6.15379 12.6814 5.20196 13.1674 4.52812 13.932C3.85427 14.6966 3.50972 15.6815 3.56539 16.684C3.62106 17.6865 4.07273 18.6302 4.82739 19.3209C5.58204 20.0115 6.58224 20.3965 7.62203 20.3965H23.872C24.2312 20.3965 24.5756 20.2587 24.8296 20.0135C25.0835 19.7683 25.2262 19.4358 25.2262 19.089C25.2262 18.7423 25.0835 18.4097 24.8296 18.1645C24.5756 17.9193 24.2312 17.7815 23.872 17.7815ZM22.0768 6.01431L20.4231 11.603C20.3414 11.8758 20.1703 12.1158 19.9355 12.2868C19.7006 12.4578 19.4147 12.5508 19.1205 12.5517H9.99777L9.65253 11.3851L8.06406 6.01431H22.0768ZM20.4866 21.704C20.0849 21.704 19.6921 21.819 19.3581 22.0345C19.0241 22.25 18.7637 22.5563 18.61 22.9146C18.4562 23.273 18.416 23.6673 18.4944 24.0478C18.5728 24.4282 18.7662 24.7777 19.0503 25.052C19.3344 25.3262 19.6963 25.513 20.0903 25.5887C20.4844 25.6644 20.8928 25.6255 21.2639 25.4771C21.6351 25.3286 21.9523 25.0773 22.1755 24.7548C22.3987 24.4322 22.5179 24.0531 22.5179 23.6652C22.5179 23.145 22.3039 22.6462 21.9229 22.2784C21.542 21.9106 21.0253 21.704 20.4866 21.704Z" fill="#0056BD"/>
</svg>
