<svg width="23" height="22" viewBox="0 0 23 22" fill="none" xmlns="http://www.w3.org/2000/svg">
<path d="M4.53363 17.3778H0.575051C0.207592 17.3778 0.0553703 17.2223 0.0553703 16.8491C0.0553703 15.1905 0.0553703 13.5319 0.0553703 11.8733C0.0553703 11.5091 0.20841 11.3479 0.567685 11.3479C3.22147 11.3479 5.87525 11.3479 8.52903 11.3479C8.88012 11.3479 9.03234 11.5116 9.03234 11.8651C9.03234 13.5336 9.03234 15.202 9.03234 16.8704C9.03234 17.2232 8.87603 17.3778 8.52248 17.3778H4.53363Z" fill="#0056BD"/>
<path d="M9.89081 13.5152C10.2705 13.5152 10.6274 13.4947 10.9793 13.5209C11.2942 13.5696 11.591 13.6996 11.8402 13.8982C12.3214 14.2189 12.7429 14.621 13.0858 15.0865C13.2872 15.3475 13.3934 15.6694 13.387 15.999C13.3723 17.1521 13.3813 18.3052 13.3813 19.4584C13.3922 19.5267 13.3869 19.5966 13.3659 19.6625C13.3449 19.7285 13.3087 19.7885 13.2602 19.8379C13.2117 19.8873 13.1523 19.9245 13.0867 19.9467C13.0212 19.969 12.9514 19.9755 12.8829 19.9658H12.436C12.3397 19.4757 12.0764 19.0343 11.691 18.7166C11.3056 18.399 10.822 18.2248 10.3226 18.2239C9.82319 18.2229 9.3389 18.3952 8.95229 18.7113C8.56567 19.0275 8.30068 19.4679 8.20246 19.9576C8.16809 19.9576 8.13044 19.9658 8.09362 19.9658C7.15819 19.9658 6.22359 19.9658 5.28898 19.9658C5.1875 19.9658 5.15149 19.9363 5.1253 19.8373C5.03388 19.4725 4.84742 19.1385 4.58491 18.8692C4.32241 18.6 3.99323 18.4051 3.63091 18.3044C3.59304 18.2953 3.55967 18.2729 3.5368 18.2414H3.69065C5.30235 18.2414 6.91404 18.2414 8.52573 18.2414C8.8112 18.2581 9.09402 18.1785 9.32881 18.0153C9.56359 17.852 9.73673 17.6146 9.82043 17.3412C9.86613 17.1763 9.88817 17.0057 9.8859 16.8346C9.89163 15.7895 9.8859 14.7436 9.8859 13.6985L9.89081 13.5152ZM12.6734 16.7233C12.8493 15.5309 11.6528 14.3008 10.6028 14.5889V16.7233H12.6734Z" fill="#EE7A5D"/>
<path d="M3.04904 21.6843C2.7915 21.6861 2.53923 21.6114 2.32421 21.4696C2.1092 21.3278 1.94112 21.1254 1.84128 20.888C1.74145 20.6506 1.71436 20.3889 1.76345 20.1361C1.81254 19.8832 1.9356 19.6507 2.11702 19.4679C2.29845 19.2851 2.53006 19.1603 2.78251 19.1093C3.03496 19.0582 3.29686 19.0834 3.53503 19.1814C3.77319 19.2794 3.97688 19.446 4.12027 19.6599C4.26366 19.8738 4.3403 20.1255 4.34047 20.3831C4.34134 20.7265 4.2061 21.0562 3.96436 21.3001C3.72261 21.544 3.39407 21.6822 3.05068 21.6843" fill="#0056BD"/>
<path d="M11.6029 20.3822C11.6011 20.6366 11.5241 20.8849 11.3815 21.0956C11.2389 21.3063 11.0371 21.4701 10.8016 21.5664C10.566 21.6626 10.3073 21.687 10.0579 21.6365C9.80852 21.5859 9.57969 21.4627 9.40022 21.2823C9.22076 21.102 9.09869 20.8725 9.04941 20.6229C9.00012 20.3732 9.02581 20.1146 9.12326 19.8796C9.2207 19.6445 9.38553 19.4436 9.59698 19.302C9.80843 19.1605 10.057 19.0847 10.3115 19.0842C10.4817 19.0838 10.6504 19.1171 10.8077 19.1823C10.965 19.2474 11.1079 19.3431 11.228 19.4638C11.348 19.5845 11.443 19.7278 11.5074 19.8855C11.5717 20.0431 11.6042 20.2119 11.6029 20.3822Z" fill="#0056BD"/>
<path d="M2.56212 18.2446C2.12854 18.3771 1.73942 18.6256 1.43683 18.9632C1.21146 19.2164 1.05157 19.521 0.971163 19.8503C0.946611 19.951 0.904054 19.9739 0.813212 19.9682C0.697 19.9616 0.57997 19.9682 0.46294 19.9682C0.358136 19.9683 0.257268 19.9283 0.181134 19.8563C0.104999 19.7842 0.0594015 19.6857 0.0537422 19.5811C0.0439215 19.1162 0.0537422 18.6506 0.0537422 18.2258C0.477671 18.2332 0.893415 18.2438 1.30916 18.2479C1.7249 18.252 2.14392 18.2479 2.5613 18.2479" fill="#EE7A5D"/>
<path d="M15.6163 20.0402C15.3834 20.0382 15.1586 19.9545 14.9811 19.8037C14.8036 19.6529 14.6847 19.4446 14.645 19.2151C14.6054 18.9856 14.6475 18.7495 14.7642 18.5479C14.8808 18.3463 15.0645 18.1921 15.2832 18.1121C16.5832 17.6314 17.7387 16.8265 18.6399 15.7736C19.5412 14.7208 20.1584 13.455 20.4329 12.0966C20.7073 10.7381 20.6299 9.33198 20.2081 8.01182C19.7862 6.69166 19.0338 5.50127 18.0224 4.55371C17.2537 3.8293 16.3482 3.26557 15.3589 2.89556C14.3695 2.52555 13.3163 2.35669 12.2609 2.39888C10.6241 2.46982 9.04747 3.03647 7.73998 4.02373C6.4325 5.011 5.45588 6.37226 4.93955 7.92713C4.89947 8.05055 4.83532 8.1648 4.75082 8.26328C4.66631 8.36177 4.56313 8.44252 4.44723 8.50089C4.33134 8.55926 4.20502 8.59408 4.07558 8.60334C3.94615 8.6126 3.81616 8.59612 3.69314 8.55484C3.44442 8.47019 3.23932 8.29056 3.12263 8.05518C3.00593 7.8198 2.98713 7.5478 3.07034 7.2986C3.71282 5.36365 4.92771 3.66941 6.55423 2.44009C8.18076 1.21077 10.1422 0.504331 12.1791 0.414269C13.494 0.362134 14.8061 0.572596 16.0387 1.03335C17.2713 1.49411 18.3997 2.19593 19.358 3.09778C20.6174 4.27795 21.5542 5.7605 22.0794 7.40463C22.6045 9.04875 22.7006 10.7998 22.3585 12.4916C22.0164 14.1833 21.2474 15.7594 20.1247 17.0703C19.002 18.3812 17.5627 19.3832 15.9437 19.9813C15.8387 20.0195 15.728 20.0395 15.6163 20.0402Z" fill="#0056BD"/>
<path d="M18.4422 13.4177L12.5498 11.9225C12.3935 11.9934 12.2238 12.0299 12.0522 12.0297C11.7254 12.0282 11.4126 11.897 11.1824 11.665C10.9522 11.433 10.8235 11.1191 10.8246 10.7923C10.8247 10.5887 10.8746 10.3883 10.9701 10.2086C11.0655 10.0288 11.2036 9.87516 11.3721 9.76109L11.9827 5.54472C11.9827 5.53105 11.9881 5.51793 11.9978 5.50826C12.0074 5.4986 12.0205 5.49316 12.0342 5.49316C12.0479 5.49316 12.061 5.4986 12.0707 5.50826C12.0803 5.51793 12.0858 5.53105 12.0858 5.54472L12.6922 9.73736C12.8724 9.84834 13.0211 10.0037 13.1241 10.1885C13.2271 10.3733 13.281 10.5815 13.2806 10.7931V10.8021L18.4938 13.2769C18.5103 13.2853 18.5231 13.2993 18.53 13.3164C18.5369 13.3335 18.5373 13.3526 18.5312 13.37C18.5251 13.3874 18.5129 13.402 18.4968 13.4111C18.4808 13.4201 18.4619 13.4231 18.4439 13.4193" fill="#EE7A5D"/>
</svg>
