<svg width="24" height="25" viewBox="0 0 24 25" fill="none" xmlns="http://www.w3.org/2000/svg">
<path d="M12.8192 24.6562H1.32462C0.592836 24.6562 0 24.063 0 23.3316V1.98086C0 1.24917 0.592929 0.65625 1.32462 0.65625H22.6755C23.407 0.65625 24 1.24917 24 1.98086V23.3316C24 24.0631 23.4069 24.6562 22.6755 24.6562H16.5597V15.3621H19.6793L20.1464 11.74H16.5597V9.42757C16.5597 8.37889 16.8509 7.66426 18.3546 7.66426L20.2727 7.66342V4.4238C19.9409 4.37965 18.8024 4.28103 17.4778 4.28103C14.7124 4.28103 12.8192 5.96901 12.8192 9.06885V11.74H9.69156V15.3621H12.8192V24.6562Z" fill="black"/>
</svg>
