<svg width="72" height="68" viewBox="0 0 72 68" fill="none" xmlns="http://www.w3.org/2000/svg">
<path d="M14.3432 53.4766H1.6814C0.506057 53.4766 0.019165 52.987 0.019165 51.8119C0.019165 46.5893 0.019165 41.3666 0.019165 36.144C0.019165 34.9972 0.508675 34.4895 1.65784 34.4895C10.1462 34.4895 18.6345 34.4895 27.1228 34.4895C28.2458 34.4895 28.7327 35.0049 28.7327 36.1182C28.7327 41.3718 28.7327 46.6253 28.7327 51.8789C28.7327 52.9896 28.2327 53.4766 27.1019 53.4766H14.3432Z" fill="#0056BD"/>
<path d="M31.4786 41.3134C32.6932 41.3134 33.8345 41.2489 34.9601 41.3314C35.9675 41.4846 36.9168 41.8941 37.714 42.5194C39.2529 43.5291 40.6011 44.7953 41.6981 46.2611C42.3421 47.083 42.682 48.0966 42.6614 49.1345C42.6143 52.7654 42.6431 56.3964 42.6431 60.0273C42.6781 60.2424 42.6612 60.4627 42.594 60.6702C42.5267 60.8778 42.4108 61.0669 42.2557 61.2224C42.1006 61.3778 41.9106 61.4952 41.701 61.5652C41.4914 61.6351 41.268 61.6556 41.0489 61.625H39.6196C39.3116 60.082 38.4694 58.6919 37.2367 57.6917C36.004 56.6915 34.4571 56.1432 32.8597 56.1402C31.2623 56.1371 29.7133 56.6796 28.4767 57.675C27.24 58.6705 26.3924 60.0574 26.0783 61.5992C25.9683 61.5992 25.8479 61.625 25.7301 61.625C22.7381 61.625 19.7487 61.625 16.7593 61.625C16.4347 61.625 16.3195 61.5322 16.2357 61.2204C15.9433 60.0719 15.3469 59.0201 14.5073 58.1723C13.6676 57.3244 12.6147 56.7107 11.4558 56.3938C11.3347 56.365 11.2279 56.2947 11.1548 56.1953H11.6469C16.802 56.1953 21.9572 56.1953 27.1123 56.1953C28.0254 56.2481 28.93 55.9973 29.681 55.4832C30.432 54.9692 30.9857 54.2217 31.2535 53.3607C31.3997 52.8414 31.4702 52.3043 31.4629 51.7655C31.4812 48.4747 31.4629 45.1814 31.4629 41.8906L31.4786 41.3134ZM40.3788 51.4151C40.9416 47.6604 37.1145 43.7872 33.756 44.6943V51.4151H40.3788Z" fill="#EE7A5D"/>
<path d="M9.59468 67.0366C8.77091 67.0423 7.964 66.807 7.27625 66.3606C6.5885 65.9142 6.05088 65.2768 5.73156 64.5292C5.41224 63.7816 5.3256 62.9576 5.48262 62.1615C5.63963 61.3654 6.03324 60.6331 6.61354 60.0575C7.19383 59.4819 7.93468 59.0888 8.74215 58.9282C9.54962 58.7676 10.3873 58.8467 11.1491 59.1554C11.9109 59.4641 12.5624 59.9885 13.0211 60.6621C13.4797 61.3358 13.7249 62.1283 13.7254 62.9393C13.7282 64.0206 13.2956 65.0589 12.5224 65.8268C11.7491 66.5948 10.6983 67.0298 9.59991 67.0366" fill="#0056BD"/>
<path d="M36.9549 62.9367C36.9492 63.7379 36.7027 64.5195 36.2466 65.183C35.7905 65.8466 35.1451 66.3624 34.3917 66.6655C33.6383 66.9686 32.8107 67.0453 32.013 66.8862C31.2154 66.727 30.4834 66.339 29.9094 65.771C29.3354 65.2031 28.945 64.4805 28.7873 63.6945C28.6297 62.9085 28.7118 62.0941 29.0235 61.354C29.3352 60.6139 29.8624 59.9811 30.5388 59.5355C31.2151 59.0898 32.0103 58.8512 32.8241 58.8496C33.3687 58.8483 33.9082 58.9532 34.4114 59.1583C34.9146 59.3635 35.3714 59.6648 35.7555 60.0449C36.1397 60.425 36.4435 60.8762 36.6493 61.3726C36.8552 61.869 36.959 62.4006 36.9549 62.9367Z" fill="#0056BD"/>
<path d="M8.03721 56.2056C6.65038 56.6228 5.40575 57.4052 4.43787 58.4682C3.71701 59.2656 3.20561 60.2247 2.9484 61.2617C2.86987 61.5786 2.73375 61.6508 2.44319 61.6327C2.07147 61.6121 1.69714 61.6327 1.32281 61.6327C0.987588 61.6332 0.664955 61.5071 0.421433 61.2803C0.17791 61.0535 0.0320628 60.7434 0.0139611 60.4138C-0.0174513 58.9501 0.0139611 57.4838 0.0139611 56.1464C1.36993 56.1696 2.69972 56.2031 4.02951 56.216C5.3593 56.2288 6.69956 56.216 8.03459 56.216" fill="#EE7A5D"/>
<path d="M49.7921 61.8595C49.0472 61.8532 48.3281 61.5897 47.7604 61.1149C47.1926 60.6402 46.8121 59.9843 46.6853 59.2616C46.5585 58.5389 46.6934 57.7954 47.0665 57.1606C47.4395 56.5258 48.0271 56.0401 48.7267 55.7882C52.8846 54.2748 56.5805 51.7402 59.4634 48.425C62.3463 45.1098 64.3204 41.1241 65.1982 36.8465C66.0761 32.5689 65.8285 28.1414 64.4791 23.9845C63.1297 19.8275 60.7232 16.0792 57.4882 13.0955C55.0294 10.8145 52.133 9.03944 48.9686 7.87434C45.8041 6.70924 42.4354 6.17754 39.0595 6.31037C33.8241 6.53376 28.7811 8.31804 24.599 11.4267C20.4169 14.5354 17.2931 18.8218 15.6416 23.7178C15.5134 24.1064 15.3082 24.4662 15.0379 24.7763C14.7676 25.0864 14.4376 25.3407 14.0669 25.5245C13.6962 25.7083 13.2922 25.8179 12.8781 25.847C12.4641 25.8762 12.0484 25.8243 11.6549 25.6943C10.8593 25.4278 10.2033 24.8622 9.83004 24.121C9.45678 23.3798 9.39665 22.5234 9.66279 21.7387C11.7178 15.6459 15.6037 10.311 20.8063 6.44014C26.0089 2.56925 32.2828 0.344813 38.7978 0.0612256C43.0036 -0.102938 47.2004 0.559765 51.1431 2.01061C55.0857 3.46145 58.6951 5.67133 61.7602 8.51111C65.7886 12.2272 68.785 16.8955 70.4647 22.0725C72.1445 27.2496 72.4518 32.7634 71.3575 38.0903C70.2632 43.4172 67.8037 48.3802 64.2125 52.5079C60.6213 56.6355 56.0178 59.7908 50.8392 61.674C50.5036 61.7945 50.1494 61.8572 49.7921 61.8595Z" fill="#0056BD"/>
<path d="M58.831 41.0067L39.9836 36.2986C39.4837 36.5218 38.941 36.6369 38.392 36.6361C37.3467 36.6314 36.346 36.2183 35.6098 35.4878C34.8736 34.7572 34.462 33.7688 34.4655 32.7398C34.4657 32.0989 34.6254 31.4678 34.9307 30.9018C35.236 30.3357 35.6776 29.852 36.2167 29.4928L38.1695 16.2162C38.1695 16.1732 38.1869 16.1319 38.2178 16.1014C38.2488 16.071 38.2907 16.0539 38.3345 16.0539C38.3782 16.0539 38.4201 16.071 38.4511 16.1014C38.482 16.1319 38.4994 16.1732 38.4994 16.2162L40.4391 29.4181C41.0154 29.7675 41.491 30.2566 41.8205 30.8386C42.15 31.4206 42.3224 32.076 42.3212 32.7423V32.7707L58.9959 40.5634C59.0486 40.5897 59.0897 40.6339 59.1118 40.6878C59.1338 40.7417 59.1351 40.8017 59.1156 40.8565C59.0961 40.9113 59.057 40.9573 59.0056 40.9859C58.9542 41.0144 58.8941 41.0237 58.8363 41.0118" fill="#EE7A5D"/>
</svg>
