<svg width="132" height="57" viewBox="0 0 132 57" fill="none" xmlns="http://www.w3.org/2000/svg">
<g clip-path="url(#clip0_0_728)">
<path d="M113.504 44.5604L103.199 52.3999L127.748 56.0176L123.662 36.8702L131.996 18.9287L117.523 16.9694L113.504 44.5604Z" fill="#0056BD"/>
<path d="M0 18.9265L8.34507 36.868L4.25655 56.0176L28.8056 52.3999L18.5003 44.5604L14.4812 16.965L0 18.9265Z" fill="#0056BD"/>
<path d="M63.5144 46.1653L57.8375 47.0903L62.0358 51.0112L61.1666 56.6752L66.2072 53.9112L71.3599 56.4835L70.2711 50.8596L74.3036 46.7872L68.5954 46.0739L65.9653 40.9828L63.5144 46.1653Z" fill="#EE7A5D"/>
<path d="M85.98 47.3957L82.9131 47.8972L85.1803 50.0126L84.7098 53.0731L87.4317 51.5796L90.2097 52.9661L89.6228 49.9301L91.8093 47.7278L88.7289 47.34L87.2996 44.5916L85.98 47.3957Z" fill="#EE7A5D"/>
<path d="M43.6252 47.3957L40.5582 47.8972L42.8209 50.0126L42.3505 53.0731L45.0724 51.5796L47.8504 52.9661L47.2701 49.9301L49.4499 47.7323L46.3628 47.3444L44.9357 44.596L43.6252 47.3957Z" fill="#EE7A5D"/>
<path d="M65.5956 21.1555H67.7373L66.6978 14.0382L65.5956 21.1555Z" fill="#0056BD"/>
<path d="M47.0796 21.8176L49.2213 21.6727L47.6531 14.6311L47.0796 21.8176Z" fill="#0056BD"/>
<mask id="mask0_0_728" style="mask-type:luminance" maskUnits="userSpaceOnUse" x="0" y="0" width="132" height="57">
<path d="M132 0.675171H0V56.673H132V0.675171Z" fill="white"/>
</mask>
<g mask="url(#mask0_0_728)">
<path d="M14.3961 5.85768L20.7608 41.8878C50.683 35.8118 81.529 35.7982 111.457 41.8476L117.519 5.85768C84.5597 -1.12811 45.1575 -0.976539 14.3961 5.85768ZM30.8017 28.284C30.3474 28.3896 29.875 28.3918 29.4196 28.2906C28.9643 28.1894 28.5377 27.9874 28.1717 27.6995C27.8057 27.4116 27.5097 27.0452 27.3057 26.6278C27.1016 26.2103 26.9948 25.7524 26.9933 25.2882L25.8619 18.0616C25.7184 17.617 25.6784 17.1457 25.7451 16.6834C25.8117 16.2211 25.9832 15.7799 26.2466 15.3933C26.5099 15.0067 26.8582 14.6848 27.2651 14.452C27.672 14.2191 28.1268 14.0815 28.5951 14.0494C29.0493 13.9408 29.5224 13.9361 29.9787 14.0358C30.435 14.1356 30.8626 14.337 31.2293 14.625C31.5959 14.913 31.8922 15.2801 32.0956 15.6985C32.299 16.117 32.4043 16.5759 32.4036 17.0407L32.6164 18.3938L30.5396 18.7103L30.3156 17.2168C30.1633 16.2271 29.6637 15.9195 28.9714 16.0265C28.2792 16.1335 27.8894 16.5749 28.0462 17.5735L29.2089 25.0764C29.3657 26.0705 29.8608 26.3626 30.5531 26.2533C31.2453 26.1441 31.6396 25.7206 31.4828 24.7309L31.0863 22.1764L30.0804 22.328L29.7779 20.3486L32.8494 19.8716L33.5371 24.2851C33.6773 24.7291 33.7146 25.1988 33.6464 25.6592C33.5782 26.1196 33.4062 26.5586 33.1433 26.9435C32.8804 27.3284 32.5334 27.6491 32.1283 27.8816C31.7232 28.1141 31.2704 28.2524 30.804 28.2862M39.5411 27.1851C39.0815 27.2713 38.6081 27.2529 38.1566 27.1314C37.7051 27.0098 37.2871 26.7881 36.9339 26.483C36.5807 26.1779 36.3015 25.7972 36.1171 25.3695C35.9327 24.9418 35.848 24.4781 35.8693 24.0132L34.7133 13.3428L36.9312 13.1065L38.0939 23.9128C38.2059 24.9181 38.6853 25.2302 39.391 25.1544C40.0967 25.0786 40.4977 24.6729 40.3857 23.6721L39.223 12.8613L41.3132 12.6384L42.4602 23.3088C42.5808 23.759 42.5973 24.2306 42.5086 24.6881C42.42 25.1456 42.2283 25.5772 41.9481 25.9506C41.668 26.3239 41.3065 26.6293 40.8908 26.8439C40.4751 27.0585 40.016 27.1766 39.5478 27.1895M50.2206 26.0995L49.6538 23.5718L46.9318 23.7568L46.719 26.3358L44.6826 26.4762L45.9752 12.2572L49.2236 12.0343L52.4564 25.9502L50.2206 26.0995ZM59.0002 25.7273C58.8001 25.1758 58.714 24.5897 58.7471 24.0042L58.6754 21.7975C58.6396 20.4913 58.1803 20.0143 57.1699 20.0544L56.4015 20.0678L56.5785 25.7875L54.3606 25.8588L53.926 11.7914L57.2864 11.6955C57.7286 11.608 58.1854 11.6264 58.619 11.7493C59.0526 11.8722 59.4505 12.096 59.78 12.4022C60.1094 12.7085 60.3609 13.0883 60.5136 13.5104C60.6663 13.9325 60.7158 14.3846 60.6581 14.8295L60.6939 15.9441C60.7906 16.5083 60.7112 17.0886 60.4665 17.6066C60.2218 18.1247 59.8234 18.5557 59.3251 18.8418C60.4452 19.2698 60.8462 20.3241 60.8933 21.793L60.9583 23.9597C60.9323 24.5402 61.0324 25.1195 61.2517 25.6582L59.0002 25.7273ZM68.4095 25.6359L68.0353 23.0836H65.3067L64.9146 25.6203H62.8692L65.1812 11.5529L68.4386 11.5685L70.6453 25.6403L68.4095 25.6359ZM79.4608 25.9636L77.1779 25.8632L74.7988 15.5718L74.4089 25.7652L72.4084 25.6849L72.9483 11.6175L75.7307 11.729L77.6842 20.2327L78.0225 11.8203L79.9985 11.8961L79.4608 25.9636ZM89.1837 14.5955L86.8694 14.4016L85.9442 26.4138L83.7308 26.2377L84.656 14.2366L82.3418 14.0494L82.4941 12.0432L89.3337 12.5782L89.1837 14.5955ZM97.5175 15.4403L93.709 15.019L93.261 18.9198L96.301 19.2609L96.077 21.267L93.0369 20.9304L92.5777 25.0318L96.4019 25.4531L96.1778 27.4592L90.1425 26.7905L91.7107 12.7788L97.7595 13.4475L97.5175 15.4403ZM106.12 16.7019L102.327 16.1157L101.74 19.9853L104.751 20.4311L104.453 22.4216L101.438 21.9758L100.822 26.046L104.615 26.6144L104.317 28.6005L98.3263 27.7089L100.428 13.8131L106.423 14.7047L106.12 16.7019Z" fill="#0056BD"/>
<path d="M57.2775 13.7016L56.2067 13.7373L56.3388 18.0549L57.2081 18.0304C58.037 18.0059 58.5321 17.6292 58.4962 16.508L58.4514 15.1149C58.4268 14.1096 58.0683 13.6816 57.2798 13.7016" fill="#0056BD"/>
</g>
</g>
<defs>
<clipPath id="clip0_0_728">
<rect width="132" height="56" fill="white" transform="translate(0 0.675171)"/>
</clipPath>
</defs>
</svg>
