<svg width="50" height="60" viewBox="0 0 50 60" fill="none" xmlns="http://www.w3.org/2000/svg">
<path d="M39.7344 51.7588C38.5724 54.1047 37.4838 56.3098 36.2851 58.5267C36.0399 59.0475 35.605 59.4646 35.0619 59.6997C34.1568 59.9695 33.5697 59.4065 33.2027 58.5971C31.6004 55.0782 29.9613 51.5593 28.3101 47.9584L28.1266 47.583C26.6221 47.583 25.2399 47.583 23.87 47.583C23.61 47.5741 23.3534 47.5226 23.1116 47.4305C22.5245 47.1959 22.2554 47.4305 22.023 47.9466C20.4207 51.4655 18.8061 54.9844 17.1303 58.5737C16.8852 59.0945 16.4502 59.5115 15.9072 59.7466C15.051 60.0281 14.4516 59.512 14.0724 58.7496C13.0939 56.7673 12.1031 54.8085 11.1124 52.8848C10.9533 52.5798 10.7943 52.2749 10.5986 51.923C8.1523 52.6385 5.70597 53.3423 3.25964 54.0695C2.92651 54.2316 2.54673 54.2831 2.1798 54.216C1.81287 54.1489 1.47951 53.9669 1.23195 53.6987C0.984389 53.4304 0.83661 53.091 0.811762 52.7336C0.786914 52.3762 0.886401 52.021 1.09464 51.7236C2.856 47.8997 4.58066 44.0524 6.35425 40.2285C6.45719 39.9947 6.51023 39.7434 6.51023 39.4896C6.51023 39.2357 6.45719 38.9845 6.35425 38.7506C5.92483 37.5822 5.70159 36.3533 5.69374 35.1144C5.79832 34.168 5.64997 33.2117 5.26265 32.3354C4.87532 31.4592 4.26178 30.6919 3.47981 30.1059C2.61448 29.3983 1.92086 28.5179 1.44751 27.5263C0.97417 26.5348 0.732536 25.456 0.739527 24.3654C0.746518 23.2749 1.00196 22.1991 1.48798 21.2131C1.97401 20.2272 2.67886 19.3551 3.5532 18.6578C4.3079 18.0907 4.89861 17.3478 5.26903 16.4998C5.63945 15.6518 5.77724 14.727 5.66928 13.8134C5.54116 12.7053 5.67453 11.5836 6.05952 10.5316C6.44451 9.47951 7.07126 8.52393 7.8934 7.73553C8.71554 6.94713 9.71202 6.34611 10.8091 5.97692C11.9062 5.60773 13.0758 5.47984 14.2314 5.60269C15.1847 5.70606 16.1496 5.57138 17.0326 5.21173C17.9156 4.85207 18.6866 4.27965 19.2709 3.55001C20.0034 2.71589 20.9172 2.04538 21.9482 1.5854C22.9793 1.12542 24.1027 0.887085 25.2399 0.887085C26.3771 0.887085 27.5005 1.12542 28.5316 1.5854C29.5627 2.04538 30.4764 2.71589 31.209 3.55001C31.8103 4.25182 32.5855 4.7978 33.4638 5.13796C34.3421 5.47813 35.2953 5.60162 36.2362 5.49713C37.3694 5.39539 38.5122 5.53338 39.5838 5.90135C40.6554 6.26932 41.6297 6.85831 42.4381 7.62676C43.2464 8.39522 43.8691 9.32441 44.2621 10.3488C44.6551 11.3732 44.8089 12.4678 44.7127 13.5554C44.6027 14.5142 44.752 15.4841 45.1461 16.3716C45.5403 17.2591 46.1661 18.0343 46.9633 18.6226C47.8065 19.3185 48.4831 20.1807 48.9469 21.1504C49.4107 22.12 49.6508 23.1743 49.6508 24.2411C49.6508 25.3079 49.4107 26.3621 48.9469 27.3317C48.4831 28.3014 47.8065 29.1636 46.9633 29.8596C46.1541 30.4635 45.5192 31.2557 45.1189 32.161C44.7186 33.0663 44.5661 34.0546 44.676 35.0323C44.5952 36.263 44.3779 37.482 44.0277 38.6685C43.902 39.0901 43.902 39.5371 44.0277 39.9588C45.7524 43.8295 47.526 47.6886 49.2996 51.5476C49.6298 52.2631 49.8622 52.9669 49.2262 53.6355C48.9429 53.8958 48.5815 54.0642 48.193 54.1168C47.8045 54.1695 47.4086 54.1037 47.0612 53.9287C44.6271 53.1663 42.1808 52.486 39.7344 51.7588ZM19.6623 45.5538C19.2953 45.155 19.0018 44.8617 18.7327 44.5568C18.2732 44.0024 17.6771 43.5663 16.998 43.2878C16.319 43.0094 15.5785 42.8972 14.843 42.9615C12.7682 43.2392 10.6596 42.7712 8.9229 41.6478L4.99653 50.2339L10.195 48.7208C11.9686 48.2047 12.3478 48.3689 13.1673 49.9993C13.9868 51.6297 14.6718 52.9904 15.5035 54.6912L19.6623 45.5538ZM34.8418 54.6325L37.2881 49.7999C37.9853 48.4158 38.5113 48.2281 40.0035 48.6269L44.4803 49.9172C44.7127 49.9876 44.9451 50.011 45.3121 50.0931L41.4224 41.6009C39.7783 42.7589 37.7349 43.2708 35.7102 43.0319C34.9812 42.9412 34.2402 43.0208 33.5502 43.2638C32.8602 43.5068 32.2416 43.9061 31.7472 44.4277C30.6218 45.6007 30.6218 45.6007 31.2824 47.0317L32.5055 49.6005L34.8418 54.6325Z" fill="#0056BD"/>
<path d="M39.2452 24.2647C39.2356 26.9372 38.3997 29.547 36.8433 31.7639C35.2869 33.9808 33.08 35.7054 30.5015 36.7196C27.9231 37.7337 25.0889 37.9919 22.3575 37.4614C19.626 36.9309 17.12 35.6356 15.1562 33.7393C13.1924 31.843 11.8591 29.4308 11.3249 26.8079C10.7907 24.1849 11.0796 21.469 12.155 19.0034C13.2304 16.5379 15.0441 14.4336 17.3667 12.9565C19.6893 11.4795 22.4164 10.696 25.2033 10.7053C28.9384 10.7239 32.5136 12.1614 35.1456 14.703C37.7776 17.2445 39.2518 20.6829 39.2452 24.2647ZM36.065 24.2647C36.065 22.1768 35.4194 20.1358 34.2098 18.3998C33.0001 16.6637 31.2808 15.3107 29.2693 14.5116C27.2578 13.7126 25.0443 13.5036 22.9089 13.9109C20.7734 14.3182 18.8119 15.3237 17.2724 16.8C15.7328 18.2764 14.6843 20.1574 14.2596 22.2052C13.8348 24.253 14.0528 26.3756 14.886 28.3046C15.7192 30.2336 17.1302 31.8823 18.9405 33.0423C20.7509 34.2022 22.8793 34.8214 25.0565 34.8214C27.9762 34.8214 30.7762 33.7092 32.8407 31.7294C34.9052 29.7497 36.065 27.0645 36.065 24.2647Z" fill="#EE7A5D"/>
<path d="M23.4664 25.8364C25.3256 24.0066 27.1359 22.212 28.9584 20.4291C29.2358 20.1284 29.5838 19.8952 29.9737 19.7488C30.2904 19.6549 30.6315 19.6704 30.9376 19.7925C31.2437 19.9146 31.4955 20.1357 31.6494 20.4173C31.8635 20.6807 31.9661 21.0118 31.9366 21.3445C31.9071 21.6773 31.7478 21.9871 31.4904 22.212C29.1664 24.4406 26.8424 26.681 24.4816 28.8744C24.3456 29.0125 24.1816 29.1225 23.9997 29.1977C23.8177 29.2729 23.6217 29.3116 23.4236 29.3116C23.2255 29.3116 23.0295 29.2729 22.8476 29.1977C22.6656 29.1225 22.5016 29.0125 22.3656 28.8744C21.1913 27.9517 20.0497 26.9898 18.9407 25.9889C18.7783 25.8678 18.6449 25.7146 18.5498 25.5396C18.4547 25.3647 18.4001 25.1721 18.3897 24.975C18.3792 24.778 18.4132 24.5811 18.4893 24.3978C18.5654 24.2145 18.6818 24.049 18.8306 23.9128C18.959 23.7598 19.1188 23.6337 19.3001 23.5425C19.4815 23.4513 19.6804 23.3968 19.8847 23.3825C20.0889 23.3682 20.294 23.3944 20.4872 23.4594C20.6805 23.5244 20.8577 23.6268 21.0079 23.7603C21.7662 24.3702 22.5001 25.0271 23.4664 25.8364Z" fill="#EE7A5D"/>
</svg>
