<svg width="117" height="21" viewBox="0 0 117 21" fill="none" xmlns="http://www.w3.org/2000/svg">
<rect x="0.617676" y="0.804443" width="20" height="20" rx="3" fill="#00B67A"/>
<path d="M10.6177 2.75586L12.4247 8.31729H18.2723L13.5415 11.7544L15.3485 17.3159L10.6177 13.8787L5.88684 17.3159L7.69386 11.7544L2.96302 8.31729H8.81066L10.6177 2.75586Z" fill="white"/>
<rect x="24.614" y="0.804443" width="20" height="20" rx="3" fill="#00B67A"/>
<path d="M34.614 2.75586L36.421 8.31729H42.2687L37.5378 11.7544L39.3449 17.3159L34.614 13.8787L29.8832 17.3159L31.6902 11.7544L26.9594 8.31729H32.807L34.614 2.75586Z" fill="white"/>
<rect x="48.61" y="0.804443" width="20" height="20" rx="3" fill="#00B67A"/>
<path d="M58.61 2.75586L60.417 8.31729H66.2646L61.5338 11.7544L63.3408 17.3159L58.61 13.8787L53.8791 17.3159L55.6862 11.7544L50.9553 8.31729H56.803L58.61 2.75586Z" fill="white"/>
<rect x="72.606" y="0.804443" width="20" height="20" rx="3" fill="#00B67A"/>
<path d="M82.606 2.75586L84.413 8.31729H90.2606L85.5298 11.7544L87.3368 17.3159L82.606 13.8787L77.8751 17.3159L79.6821 11.7544L74.9513 8.31729H80.7989L82.606 2.75586Z" fill="white"/>
<rect x="96.6019" y="0.804443" width="20" height="20" rx="3" fill="#00B67A"/>
<path d="M106.602 2.75586L108.409 8.31729H114.257L109.526 11.7544L111.333 17.3159L106.602 13.8787L101.871 17.3159L103.678 11.7544L98.9473 8.31729H104.795L106.602 2.75586Z" fill="white"/>
</svg>
