<svg width="52" height="23" viewBox="0 0 52 23" fill="none" xmlns="http://www.w3.org/2000/svg">
<g clip-path="url(#clip0_0_128)">
<path d="M43.8901 17.2861L39.9085 20.3659L49.3933 21.7871L47.8146 14.265L51.0345 7.21651L45.4429 6.44678L43.8901 17.2861Z" fill="#0056BD"/>
<path d="M0.0361938 7.21568L3.26043 14.2641L1.68077 21.7872L11.1656 20.3659L7.18404 17.2861L5.63121 6.44507L0.0361938 7.21568Z" fill="#0056BD"/>
<path d="M24.5759 17.9166L22.3825 18.28L24.0046 19.8204L23.6687 22.0455L25.6163 20.9596L27.6071 21.9702L27.1864 19.7608L28.7444 18.1609L26.539 17.8807L25.5228 15.8806L24.5759 17.9166Z" fill="#EE7A5D"/>
<path d="M33.2557 18.4L32.0708 18.597L32.9467 19.428L32.765 20.6303L33.8166 20.0436L34.8899 20.5883L34.6631 19.3956L35.5079 18.5304L34.3178 18.3781L33.7655 17.2983L33.2557 18.4Z" fill="#EE7A5D"/>
<path d="M16.8913 18.3999L15.7064 18.5969L16.5806 19.428L16.3988 20.6303L17.4505 20.0436L18.5238 20.5883L18.2996 19.3956L19.1418 18.5321L17.9491 18.3798L17.3977 17.3L16.8913 18.3999Z" fill="#EE7A5D"/>
<path d="M25.3799 8.09125H26.2074L25.8058 5.29517L25.3799 8.09125Z" fill="#0056BD"/>
<path d="M18.226 8.35131L19.0535 8.29439L18.4476 5.52808L18.226 8.35131Z" fill="#0056BD"/>
<mask id="mask0_0_128" style="mask-type:luminance" maskUnits="userSpaceOnUse" x="0" y="0" width="52" height="23">
<path d="M51.0362 0.0454102H0.0361938V22.0445H51.0362V0.0454102Z" fill="white"/>
</mask>
<g mask="url(#mask0_0_128)">
<path d="M5.59833 2.08145L8.0574 16.2361C19.6182 13.8491 31.536 13.8438 43.099 16.2204L45.4412 2.08145C32.707 -0.662963 17.4834 -0.603416 5.59833 2.08145ZM11.9369 10.8918C11.7613 10.9333 11.5788 10.9342 11.4029 10.8944C11.2269 10.8546 11.0621 10.7753 10.9207 10.6622C10.7793 10.5491 10.6649 10.4051 10.5861 10.2411C10.5073 10.0771 10.466 9.89723 10.4654 9.71486L10.0283 6.87587C9.97284 6.70118 9.95741 6.51602 9.98315 6.3344C10.0089 6.15278 10.0752 5.97948 10.1769 5.8276C10.2787 5.67572 10.4132 5.54926 10.5704 5.45778C10.7276 5.36631 10.9034 5.31222 11.0843 5.29962C11.2598 5.25695 11.4426 5.25513 11.6189 5.29431C11.7952 5.33348 11.9604 5.41262 12.102 5.52577C12.2437 5.63892 12.3582 5.78312 12.4367 5.94751C12.5153 6.1119 12.556 6.29219 12.5557 6.4748L12.638 7.00634L11.8356 7.13069L11.749 6.54398C11.6902 6.15517 11.4972 6.03433 11.2297 6.07636C10.9622 6.11839 10.8116 6.29178 10.8722 6.68409L11.3214 9.63167C11.382 10.0222 11.5733 10.1369 11.8408 10.094C12.1082 10.0511 12.2606 9.88474 12.2 9.49594L12.0468 8.49239L11.6582 8.55194L11.5413 7.77433L12.728 7.58693L12.9937 9.3208C13.0479 9.49521 13.0623 9.67976 13.0359 9.86062C13.0096 10.0415 12.9431 10.214 12.8416 10.3652C12.74 10.5164 12.6059 10.6424 12.4494 10.7337C12.2929 10.8251 12.118 10.8794 11.9377 10.8927M15.3134 10.4601C15.1358 10.4939 14.953 10.4867 14.7785 10.439C14.6041 10.3912 14.4426 10.3041 14.3061 10.1843C14.1696 10.0644 14.0618 9.91484 13.9905 9.74681C13.9193 9.57877 13.8866 9.39661 13.8948 9.21396L13.4481 5.02203L14.3051 4.9292L14.7543 9.17456C14.7976 9.56949 14.9828 9.69209 15.2554 9.66232C15.5281 9.63254 15.683 9.47317 15.6398 9.07998L15.1905 4.83288L15.9981 4.74531L16.4413 8.93724C16.4878 9.11413 16.4942 9.29938 16.46 9.47912C16.4257 9.65886 16.3517 9.82843 16.2434 9.9751C16.1352 10.1218 15.9955 10.2418 15.8349 10.326C15.6743 10.4103 15.4969 10.4568 15.316 10.4618M19.4396 10.0336L19.2206 9.04058L18.1689 9.11326L18.0867 10.1264L17.2999 10.1816L17.7993 4.59557L19.0544 4.508L20.3034 9.97494L19.4396 10.0336ZM22.8317 9.88737C22.7544 9.6707 22.7211 9.44046 22.7339 9.21046L22.7062 8.34352C22.6924 7.83037 22.5149 7.64297 22.1246 7.65873L21.8277 7.66399L21.8961 9.91101L21.0392 9.93904L20.8712 4.41255L22.1696 4.37489C22.3404 4.3405 22.5169 4.34775 22.6844 4.39602C22.852 4.4443 23.0057 4.53223 23.133 4.65253C23.2603 4.77284 23.3575 4.92207 23.4164 5.08788C23.4754 5.2537 23.4946 5.43134 23.4723 5.60611L23.4861 6.04396C23.5235 6.26565 23.4928 6.49359 23.3982 6.69711C23.3037 6.90064 23.1498 7.06998 22.9572 7.18236C23.39 7.35049 23.545 7.76469 23.5631 8.34177L23.5882 9.19295C23.5782 9.42103 23.6169 9.64862 23.7016 9.86022L22.8317 9.88737ZM26.4671 9.85147L26.3226 8.8488H25.2683L25.1168 9.84534H24.3266L25.2198 4.31885L26.4784 4.32498L27.331 9.85322L26.4671 9.85147ZM30.737 9.98019L29.8549 9.94079L28.9357 5.89772L28.7851 9.90226L28.0122 9.87073L28.2208 4.34424L29.2958 4.38803L30.0506 7.72879L30.1813 4.42393L30.9447 4.4537L30.737 9.98019ZM34.4935 5.51417L33.5994 5.43798L33.2419 10.1571L32.3867 10.0879L32.7442 5.37318L31.8501 5.29962L31.9089 4.5115L34.5515 4.72166L34.4935 5.51417ZM37.7134 5.84605L36.242 5.68055L36.0688 7.21301L37.2434 7.34699L37.1569 8.13511L35.9823 8.00288L35.8048 9.61415L37.2824 9.77966L37.1958 10.5678L34.864 10.3051L35.4699 4.80048L37.8069 5.06318L37.7134 5.84605ZM41.0372 6.34169L39.5718 6.11139L39.345 7.63159L40.5083 7.80673L40.3932 8.58872L39.2282 8.41358L38.9901 10.0126L40.4555 10.2359L40.3404 11.0161L38.0259 10.6659L38.8378 5.2068L41.154 5.55708L41.0372 6.34169Z" fill="#0056BD"/>
<path d="M22.1661 5.16311L21.7524 5.17712L21.8034 6.87333L22.1393 6.8637C22.4595 6.85407 22.6508 6.70607 22.637 6.2656L22.6197 5.71829C22.6102 5.32336 22.4717 5.15522 22.167 5.16311" fill="#0056BD"/>
</g>
</g>
<defs>
<clipPath id="clip0_0_128">
<rect width="51" height="22" fill="white" transform="translate(0.0361938 0.0454102)"/>
</clipPath>
</defs>
</svg>
