<svg width="19" height="23" viewBox="0 0 19 23" fill="none" xmlns="http://www.w3.org/2000/svg">
<g clip-path="url(#clip0_0_152)">
<path d="M15.3021 19.1088C14.8753 19.9871 14.4754 20.8128 14.035 21.6429C13.945 21.8378 13.7852 21.994 13.5857 22.082C13.2532 22.183 13.0375 21.9722 12.9027 21.6692C12.3141 20.3517 11.712 19.0341 11.1054 17.6858L11.038 17.5453C10.4854 17.5453 9.97761 17.5453 9.47437 17.5453C9.37885 17.542 9.28462 17.5226 9.19579 17.4882C8.98011 17.4003 8.88126 17.4882 8.79589 17.6814C8.20727 18.999 7.61416 20.3165 6.99858 21.6604C6.90853 21.8554 6.74876 22.0116 6.54926 22.0996C6.23473 22.205 6.01456 22.0118 5.87527 21.7263C5.51581 20.9841 5.15185 20.2506 4.7879 19.5304C4.72949 19.4162 4.67107 19.302 4.59918 19.1703C3.70053 19.4382 2.80188 19.7017 1.90323 19.974C1.78085 20.0346 1.64134 20.0539 1.50655 20.0288C1.37176 20.0037 1.2493 19.9356 1.15836 19.8351C1.06742 19.7347 1.01313 19.6076 1.00401 19.4738C0.994878 19.3399 1.03142 19.2069 1.10792 19.0956C1.75495 17.6639 2.3885 16.2233 3.04002 14.7916C3.07784 14.704 3.09732 14.61 3.09732 14.5149C3.09732 14.4199 3.07784 14.3258 3.04002 14.2382C2.88227 13.8007 2.80027 13.3406 2.79738 12.8768C2.8358 12.5224 2.78131 12.1643 2.63902 11.8362C2.49674 11.5082 2.27136 11.2209 1.98411 11.0014C1.66623 10.7365 1.41143 10.4069 1.23755 10.0356C1.06367 9.66434 0.974903 9.26041 0.977471 8.8521C0.980039 8.44379 1.07388 8.04096 1.25241 7.67181C1.43095 7.30266 1.68988 6.97611 2.01106 6.71502C2.2883 6.50271 2.5053 6.22455 2.64137 5.90704C2.77744 5.58953 2.82806 5.24324 2.7884 4.90119C2.74134 4.48627 2.79033 4.06631 2.93175 3.67239C3.07318 3.27848 3.30341 2.92068 3.60542 2.62549C3.90743 2.3303 4.27349 2.10526 4.6765 1.96703C5.07952 1.82879 5.50917 1.78091 5.93368 1.82691C6.28385 1.86561 6.63832 1.81519 6.96268 1.68052C7.28703 1.54586 7.57027 1.33153 7.7849 1.05834C8.05399 0.746026 8.38967 0.49497 8.76842 0.322743C9.14718 0.150516 9.55988 0.0612793 9.97762 0.0612793C10.3954 0.0612793 10.808 0.150516 11.1868 0.322743C11.5656 0.49497 11.9012 0.746026 12.1703 1.05834C12.3912 1.32111 12.676 1.52554 12.9986 1.6529C13.3213 1.78027 13.6714 1.8265 14.0171 1.78738C14.4334 1.74929 14.8531 1.80096 15.2468 1.93873C15.6404 2.07651 15.9984 2.29704 16.2953 2.58477C16.5922 2.87249 16.821 3.2204 16.9653 3.60395C17.1097 3.9875 17.1662 4.39735 17.1309 4.80457C17.0905 5.16358 17.1453 5.52672 17.2901 5.85902C17.4349 6.19131 17.6648 6.48157 17.9576 6.70184C18.2674 6.96241 18.5159 7.28525 18.6863 7.64831C18.8567 8.01137 18.9449 8.4061 18.9449 8.80553C18.9449 9.20496 18.8567 9.59968 18.6863 9.96274C18.5159 10.3258 18.2674 10.6486 17.9576 10.9092C17.6604 11.1353 17.4271 11.432 17.2801 11.7709C17.133 12.1099 17.077 12.48 17.1174 12.846C17.0877 13.3068 17.0079 13.7632 16.8793 14.2075C16.8331 14.3653 16.8331 14.5327 16.8793 14.6906C17.5128 16.1399 18.1643 17.5848 18.8159 19.0297C18.9372 19.2976 19.0225 19.5611 18.7889 19.8115C18.6848 19.9089 18.5521 19.972 18.4094 19.9917C18.2666 20.0114 18.1212 19.9868 17.9936 19.9213C17.0994 19.6358 16.2008 19.3811 15.3021 19.1088ZM15.9761 4.95828H16.0615C16.0154 4.57005 15.9234 4.18834 15.7874 3.8208C15.6325 3.49659 15.3722 3.23159 15.0471 3.06714C14.722 2.90269 14.3503 2.84803 13.9901 2.91169C13.4809 2.97507 12.9635 2.90614 12.4902 2.71184C12.0169 2.51754 11.6044 2.20474 11.2941 1.80495C11.1349 1.59898 10.9292 1.43161 10.6931 1.31582C10.457 1.20003 10.1968 1.13892 9.93262 1.13722C9.66847 1.13552 9.40747 1.19328 9.16982 1.30603C8.93218 1.41877 8.72429 1.58348 8.56224 1.78738C8.26197 2.17042 7.86672 2.47227 7.41384 2.66439C6.96097 2.85652 6.46544 2.93256 5.97412 2.88534C5.71299 2.85892 5.44924 2.87226 5.19229 2.92487C4.77985 3.02145 4.41966 3.26611 4.18326 3.61028C3.94685 3.95444 3.85152 4.37292 3.91621 4.78261C3.97721 5.27837 3.90676 5.78113 3.71162 6.2426C3.51647 6.70407 3.20319 7.10873 2.80188 7.41771C2.58279 7.57381 2.40453 7.7783 2.28163 8.01451C2.15873 8.25073 2.09467 8.51198 2.09467 8.77698C2.09467 9.04198 2.15873 9.30324 2.28163 9.53945C2.40453 9.77566 2.58279 9.98015 2.80188 10.1363C3.19202 10.432 3.49922 10.8195 3.69485 11.2626C3.89048 11.7057 3.96817 12.19 3.9207 12.6703C3.89367 12.9256 3.90732 13.1834 3.96114 13.4345C4.0618 13.8384 4.31264 14.1912 4.66481 14.4242C5.01699 14.6572 5.44528 14.7537 5.86628 14.695C6.3765 14.6415 6.89223 14.7168 7.36422 14.9136C7.8362 15.1104 8.24867 15.4223 8.56224 15.8193C8.7223 16.0258 8.92912 16.1933 9.1665 16.3086C9.40388 16.4239 9.66535 16.4839 9.93043 16.4839C10.1955 16.4839 10.457 16.4239 10.6944 16.3086C10.9317 16.1933 11.1386 16.0258 11.2986 15.8193C11.6024 15.4214 12.0072 15.108 12.4729 14.91C12.9387 14.712 13.4493 14.6364 13.9541 14.6906C14.2153 14.7173 14.4791 14.7039 14.736 14.6511C15.6032 14.4315 16.084 13.7244 15.9986 12.745C15.942 12.2598 16.0134 11.7686 16.2061 11.3181C16.3988 10.8675 16.7064 10.4728 17.0994 10.1714C17.3204 10.0131 17.5002 9.80621 17.6241 9.56737C17.748 9.32854 17.8125 9.06453 17.8125 8.79674C17.8125 8.52896 17.748 8.26495 17.6241 8.02611C17.5002 7.78728 17.3204 7.58035 17.0994 7.4221C16.7143 7.13781 16.4092 6.76266 16.2127 6.33177C16.0163 5.90087 15.9349 5.42831 15.9761 4.95828ZM7.92869 16.7855C7.79389 16.6362 7.68605 16.5264 7.5872 16.4122C7.4184 16.2046 7.19942 16.0413 6.94999 15.9371C6.70056 15.8328 6.42851 15.7908 6.15834 15.8149C5.39617 15.9188 4.62159 15.7436 3.98361 15.323L2.54127 18.5378L4.4509 17.9713C5.10243 17.778 5.24172 17.8395 5.54277 18.45C5.84381 19.0605 6.09544 19.5699 6.40098 20.2067L7.92869 16.7855ZM13.5048 20.1848L14.4035 18.3753C14.6596 17.8571 14.8528 17.7868 15.401 17.9361L17.0455 18.4193C17.1309 18.4456 17.2163 18.4544 17.3511 18.4851L15.9222 15.3054C15.3182 15.739 14.5676 15.9307 13.8238 15.8412C13.5561 15.8073 13.2838 15.8371 13.0304 15.9281C12.7769 16.0191 12.5497 16.1686 12.368 16.3639C11.9546 16.8031 11.9546 16.8031 12.1973 17.3389L12.6466 18.3007L13.5048 20.1848Z" fill="#0056BD"/>
<path d="M15.1225 8.81429C15.1189 9.81494 14.8118 10.7921 14.2401 11.6222C13.6684 12.4522 12.8577 13.0979 11.9105 13.4777C10.9633 13.8574 9.92218 13.954 8.9188 13.7554C7.91541 13.5568 6.99481 13.0718 6.27342 12.3618C5.55203 11.6518 5.06225 10.7486 4.86601 9.76651C4.66977 8.78441 4.77589 7.76749 5.17094 6.84435C5.566 5.9212 6.23224 5.13329 7.08544 4.58024C7.93863 4.0272 8.94045 3.73387 9.9642 3.73734C11.3363 3.74431 12.6496 4.28255 13.6165 5.23417C14.5833 6.18578 15.1249 7.47316 15.1225 8.81429ZM13.9542 8.81429C13.9542 8.03253 13.717 7.26833 13.2727 6.61832C12.8283 5.96831 12.1968 5.46169 11.4578 5.16252C10.7189 4.86336 9.90579 4.78508 9.12135 4.93759C8.3369 5.09011 7.61634 5.46656 7.05079 6.01935C6.48523 6.57214 6.10009 7.27643 5.94405 8.04317C5.78801 8.80991 5.8681 9.60465 6.17417 10.3269C6.48025 11.0492 6.99857 11.6665 7.66359 12.1008C8.32861 12.5351 9.11047 12.7669 9.91028 12.7669C10.9828 12.7669 12.0114 12.3505 12.7698 11.6092C13.5282 10.868 13.9542 9.8626 13.9542 8.81429Z" fill="#EE7A5D"/>
<path d="M9.32606 9.4029C10.009 8.71777 10.674 8.04582 11.3435 7.37826C11.4454 7.26567 11.5733 7.17836 11.7165 7.12354C11.8328 7.08839 11.9581 7.09419 12.0706 7.13992C12.183 7.18565 12.2755 7.26842 12.332 7.37387C12.4107 7.47247 12.4484 7.59645 12.4375 7.72103C12.4267 7.84561 12.3682 7.96161 12.2736 8.04582C11.4199 8.88027 10.5662 9.71911 9.699 10.5404C9.64902 10.5921 9.58877 10.6333 9.52194 10.6614C9.45511 10.6896 9.38311 10.7041 9.31033 10.7041C9.23756 10.7041 9.16555 10.6896 9.09872 10.6614C9.03189 10.6333 8.97164 10.5921 8.92166 10.5404C8.49031 10.1949 8.07094 9.83476 7.66355 9.45999C7.60388 9.41466 7.5549 9.35728 7.51997 9.29177C7.48504 9.22625 7.46497 9.15415 7.46113 9.08037C7.45729 9.00659 7.46977 8.93287 7.49773 8.86423C7.52568 8.79559 7.56845 8.73365 7.62311 8.68264C7.67026 8.62535 7.72897 8.57816 7.79558 8.544C7.8622 8.50985 7.93529 8.48946 8.01031 8.4841C8.08533 8.47874 8.16068 8.48854 8.23167 8.51287C8.30265 8.53721 8.36775 8.57556 8.42291 8.62554C8.70149 8.85392 8.97109 9.09986 9.32606 9.4029Z" fill="#EE7A5D"/>
</g>
<defs>
<clipPath id="clip0_0_152">
<rect width="18" height="22.0909" fill="white" transform="translate(0.950684)"/>
</clipPath>
</defs>
</svg>
