<svg width="81" height="41" viewBox="0 0 81 41" fill="none" xmlns="http://www.w3.org/2000/svg">
<path d="M21.3328 13.9598C18.7849 11.6761 15.9203 11.4757 15.9203 11.4757C13.6757 10.7705 9.73975 11.2922 9.73975 11.2922L9.57191 11.3145C7.7189 11.5639 6.00465 11.9098 4.51531 12.5632C4.44034 12.5956 4.36649 12.629 4.29152 12.6636C4.17459 12.7194 4.05934 12.7752 3.94576 12.8338C2.72274 13.4654 1.67483 14.3364 0.852949 15.5856C-1.08398 18.53 0.883721 20.8304 0.883721 20.8304C0.883721 20.8304 3.46685 24.9855 10.9393 24.8321C18.4117 24.6786 20.6894 21.3839 21.1778 20.9822C21.6914 20.5632 24.0692 16.4131 21.3328 13.9598ZM17.102 16.658V16.6642C17.107 17.3661 14.8277 18.1522 12.0862 18.3046C8.76513 18.4881 7.17061 17.7645 7.16278 17.3839C7.16245 17.3672 7.16434 17.3505 7.16838 17.3343C7.28027 16.8438 9.19817 16.0214 12.1108 15.9896C14.8624 15.96 17.0913 16.2206 17.102 16.658Z" fill="url(#paint0_linear_0_178)"/>
<path d="M17.102 16.664V16.6579C17.0913 16.2205 14.864 15.9599 12.1097 15.9884C9.19705 16.0202 7.28138 16.8426 7.16725 17.333C7.12081 17.2036 7.14487 16.9888 7.32055 16.6166C7.65232 15.9142 9.01186 15.0828 11.0417 14.8685C12.3038 14.7352 14.7012 14.531 16.4227 15.4823C17.3291 15.9833 17.2457 16.4827 17.102 16.664Z" fill="url(#paint1_radial_0_178)"/>
<path d="M1.80632 5.98874C1.80632 5.98874 1.83709 3.88804 2.02172 3.38198L2.20579 2.87647C2.20579 2.87647 2.2981 2.10203 3.25146 1.62665C4.20482 1.15128 5.95767 0.12408 7.91809 0.338335C9.87852 0.552589 10.156 0.829335 11.0008 1.81803C11.8457 2.80673 11.9615 4.6318 11.9615 4.6318C12.0192 5.71091 11.8278 6.78885 11.402 7.78257C10.6948 9.40063 10.4179 10.0289 9.61836 11.2709C9.61836 11.2709 6.66653 14.1165 6.88193 16.7835C6.88193 16.7835 7.74298 17.2739 1.5926 19.5431C1.5926 19.5431 0.82387 19.7886 0.946956 18.6844C1.07004 17.5802 3.03774 13.8392 3.89878 12.889C4.75982 11.9388 5.20741 11.3049 6.08076 10.6806C6.89033 10.1031 8.69409 7.4623 8.69409 6.04956C8.69409 4.63682 9.24798 3.0751 6.63408 3.37138C6.63408 3.37138 5.82451 3.78036 5.50673 5.15014C5.50673 5.15014 5.09663 5.73264 4.61492 5.51783C4.61492 5.51783 4.05096 5.98818 4.00508 6.50987C4.00508 6.50987 3.60002 6.203 3.49763 5.53847C3.49763 5.53847 3.35384 5.40568 2.96445 5.79402C2.96668 5.79234 2.40105 6.21192 1.80632 5.98874Z" fill="url(#paint2_linear_0_178)"/>
<path d="M5.04514 11.7825C5.04514 11.7825 0.952536 16.2958 1.08905 18.5493L1.84715 18.3262C1.84715 18.3262 1.69105 17.4714 2.76973 15.4639C3.45907 14.1955 4.21872 12.9665 5.04514 11.7825Z" fill="url(#paint3_linear_0_178)"/>
<path d="M3.69735 8.4092C3.69735 8.4092 3.68224 6.70744 4.00507 6.50825C4.00507 6.50825 3.66658 6.35482 3.57426 5.71094C3.57426 5.71094 3.48195 5.29693 3.11325 5.69531C2.74455 6.09369 1.83708 6.12494 1.8063 5.98657L1.43705 7.79601C1.82037 7.79601 2.20063 7.86422 2.55993 7.99743C3.15913 8.21001 3.69735 8.4092 3.69735 8.4092Z" fill="white"/>
<path d="M1.43712 7.79587C1.43712 7.79587 1.01471 9.19857 1.13779 9.8603C1.26088 10.522 1.26815 11.8076 2.90576 12.5898C2.90576 12.5898 3.7668 12.9039 4.18921 12.7968C4.61161 12.6897 4.98087 12.3192 4.98087 12.3192C4.58802 12.1142 4.27439 11.7852 4.08906 11.3835C3.80428 10.7324 3.69742 10.2492 3.69742 8.40906C3.69742 8.40906 2.02178 7.71831 1.43712 7.79587Z" fill="black"/>
<path d="M5.59287 4.30266C5.34949 4.9722 4.67252 5.3399 4.08227 5.12564C3.49202 4.91139 3.20836 4.19609 3.45173 3.5271C3.69511 2.85811 4.56734 2.5066 5.15927 2.72086C5.7512 2.93511 5.83624 3.63423 5.59287 4.30266Z" fill="white"/>
<path d="M4.63508 4.57609C5.01731 4.57609 5.32716 4.28082 5.32716 3.91658C5.32716 3.55235 5.01731 3.25708 4.63508 3.25708C4.25286 3.25708 3.943 3.55235 3.943 3.91658C3.943 4.28082 4.25286 4.57609 4.63508 4.57609Z" fill="black"/>
<path d="M4.59924 3.76816C4.69256 3.76816 4.76821 3.69272 4.76821 3.59965C4.76821 3.50659 4.69256 3.43115 4.59924 3.43115C4.50593 3.43115 4.43028 3.50659 4.43028 3.59965C4.43028 3.69272 4.50593 3.76816 4.59924 3.76816Z" fill="white"/>
<path d="M9.59655 11.3123C9.27222 11.7314 8.92304 12.1309 8.55088 12.5085C7.98693 13.0704 7.22883 14.7571 6.99273 15.5036C6.85226 15.9745 6.82864 16.4723 6.92391 16.9543C6.2268 17.9329 1.41414 19.5733 1.41414 19.5733C1.41414 19.5733 0.737726 19.604 0.991171 18.4234C0.991171 18.4234 1.69108 16.3534 2.13699 15.7709C2.13699 15.7709 3.46688 13.2969 3.8462 13.0313" stroke="#032482" stroke-width="0.2" stroke-miterlimit="10"/>
<path d="M5.09667 20.2461C5.09667 20.2461 3.92791 21.4117 4.23563 22.7011C4.23563 22.6994 4.11254 22.0862 5.09667 20.2461Z" fill="url(#paint4_linear_0_178)"/>
<path d="M7.78715 21.0283C7.78715 21.0283 7.33957 22.5158 7.58742 23.4967C7.58742 23.4967 7.61819 21.8714 7.78715 21.0283Z" fill="url(#paint5_linear_0_178)"/>
<path d="M11.3499 21.9329C11.3499 21.9329 11.4104 23.0114 11.3897 23.5275C11.3897 23.5275 11.7181 22.9349 11.3499 21.9329Z" fill="url(#paint6_linear_0_178)"/>
<path d="M14.9675 21.2583C14.9675 21.2583 15.4901 21.9329 15.367 23.1291C15.367 23.1291 16.0126 22.117 14.9675 21.2583Z" fill="url(#paint7_linear_0_178)"/>
<path d="M17.9194 22.0577C17.9194 22.0577 18.1656 21.199 17.0276 20.6472C17.0276 20.645 18.4419 20.9826 17.9194 22.0577Z" fill="url(#paint8_linear_0_178)"/>
<path d="M19.0176 21.2276C19.0176 21.2276 19.1994 20.5932 18.3585 20.1853C18.3585 20.1853 19.4036 20.4342 19.0176 21.2276Z" fill="url(#paint9_linear_0_178)"/>
<path d="M19.294 21.1355C19.294 21.1355 19.4758 20.5011 18.6349 20.0933C18.6349 20.0933 19.6806 20.3421 19.294 21.1355Z" fill="url(#paint10_linear_0_178)"/>
<path d="M7.05927 0.64082C7.05927 0.64082 10.1498 0.361843 10.7518 2.20309C10.7496 2.20477 10.2399 1.33045 7.05927 0.64082Z" fill="url(#paint11_linear_0_178)"/>
<path d="M19.0574 19.5872C19.0574 19.5872 22.1474 17.9312 22.1938 15.9533C22.2403 13.9753 18.3653 12.687 18.3653 12.687C18.3653 12.687 24.4077 15.4472 19.0574 19.5872Z" fill="url(#paint12_linear_0_178)"/>
<g opacity="0.71">
<path opacity="0.5" d="M8.13068 13.0803C8.13068 13.0803 8.05739 13.2421 7.93598 13.4971C7.8101 13.7666 7.64729 14.1137 7.47217 14.4886C7.42853 14.5857 7.37986 14.6777 7.33902 14.7676C7.29817 14.8574 7.25677 14.9461 7.21593 15.0298C7.17509 15.1135 7.14264 15.1939 7.10739 15.2686C7.07214 15.3434 7.03746 15.4126 7.01228 15.4779C6.95633 15.6073 6.90933 15.7122 6.87577 15.7847L6.82821 15.8963C6.82821 15.8963 6.82821 15.8517 6.83716 15.7719C6.84611 15.6921 6.86569 15.5783 6.89311 15.4371C6.9043 15.3657 6.92556 15.2904 6.94626 15.2089C6.96696 15.1275 6.98934 15.0415 7.01843 14.9495C7.04753 14.8574 7.08221 14.7659 7.11802 14.6705C7.15383 14.5751 7.1997 14.4774 7.24446 14.3776C7.40519 14.0414 7.60157 13.7234 7.83024 13.429C7.92434 13.3078 8.02462 13.1914 8.13068 13.0803Z" fill="white"/>
<path d="M7.0329 15.2217L7.04521 15.1547C7.05416 15.1123 7.06423 15.0493 7.08605 14.975C7.10787 14.9008 7.13417 14.8116 7.16718 14.7145C7.20402 14.6092 7.2466 14.506 7.29474 14.4054C7.34129 14.3042 7.39378 14.2058 7.45195 14.1108C7.47769 14.0667 7.50287 14.0249 7.52804 13.9864L7.60022 13.882C7.64553 13.8184 7.68302 13.7704 7.71211 13.7336C7.74121 13.6968 7.75519 13.6812 7.75519 13.6812L7.73058 13.7442C7.71547 13.7849 7.69253 13.8435 7.66344 13.9149C7.63435 13.9864 7.5963 14.0728 7.5577 14.1643C7.51909 14.2558 7.4693 14.3574 7.42174 14.464C7.37419 14.5705 7.31992 14.6682 7.27684 14.7597C7.23376 14.8512 7.19012 14.9321 7.15263 15.0002C7.11515 15.0682 7.08885 15.124 7.06759 15.1625L7.0329 15.2217Z" fill="white"/>
</g>
<g opacity="0.5">
<path opacity="0.5" d="M5.36009 21.5138L5.48877 21.5567L5.64431 21.6086L5.85915 21.6733L6.12826 21.7542C6.22673 21.7821 6.33471 21.81 6.45052 21.8402C6.68047 21.906 6.9479 21.9601 7.24051 22.0287C7.92978 22.1687 8.62713 22.2658 9.32849 22.3194C10.1852 22.3848 11.0457 22.3827 11.9021 22.3133C12.7589 22.2399 13.61 22.1108 14.45 21.9266L15.0128 21.7877L15.2831 21.7213L15.5415 21.6449C15.88 21.5433 16.1984 21.4568 16.4803 21.3519L16.8865 21.2119L17.074 21.1483L17.2468 21.0802L17.8186 20.857L18.0279 20.7756L18.1778 20.7086L18.302 20.6528L18.1845 20.7187L18.0396 20.7968L17.8371 20.8933L17.2776 21.1567C17.2217 21.1818 17.1657 21.2091 17.1098 21.2353L16.9263 21.3101L16.5257 21.473C16.2459 21.5935 15.9315 21.6962 15.5941 21.8123L15.3368 21.8999L15.0665 21.9774L14.502 22.1364C13.6556 22.3486 12.7935 22.4929 11.9239 22.5677C11.0533 22.6381 10.178 22.6269 9.30947 22.5343C8.60165 22.4593 7.90038 22.3321 7.21142 22.1537C6.91993 22.0695 6.65473 21.9992 6.42814 21.9194C6.31625 21.8809 6.20771 21.8469 6.11036 21.8123L5.84684 21.7129L5.63704 21.6332L5.4843 21.5668L5.36009 21.5138Z" fill="white"/>
<path d="M15.4817 21.7549L15.4123 21.7805C15.3665 21.7973 15.3004 21.8224 15.2109 21.8475L14.4618 22.0707C14.3018 22.1109 14.1261 22.1516 13.9364 22.1957L13.6432 22.2637C13.542 22.2855 13.4362 22.3017 13.3288 22.3195L12.9982 22.3753C12.8863 22.3949 12.7705 22.4155 12.6518 22.4272L12.291 22.4685L12.1064 22.4891C12.0448 22.4964 11.9821 22.5037 11.9195 22.5064C11.6672 22.5204 11.421 22.5371 11.1832 22.5449H10.4973L9.87738 22.512C9.78003 22.5081 9.68715 22.497 9.59764 22.4875L9.34028 22.4596L9.10586 22.4339C9.03256 22.4239 8.96319 22.4122 8.89829 22.4021L8.56651 22.3463L8.44567 22.3268L8.35783 22.3084L8.2851 22.2928L8.35839 22.3022L8.44734 22.314L8.56931 22.3251L8.905 22.3564L9.11369 22.3759L9.34475 22.3926L9.60267 22.4077C9.69219 22.4127 9.78506 22.42 9.88241 22.4194L10.4978 22.43L11.1787 22.4144C11.4143 22.4027 11.6582 22.3843 11.9061 22.3703C12.7591 22.2974 13.607 22.1744 14.4455 22.0021L15.2048 21.8257C15.2954 21.8068 15.3637 21.7867 15.4107 21.7739L15.4817 21.7549Z" fill="white"/>
</g>
<path d="M3.49756 10.2029C3.49756 10.2029 3.71296 12.028 4.65065 12.2885C4.65065 12.2885 3.1904 12.5641 3.49756 10.2029Z" fill="url(#paint13_linear_0_178)"/>
<path d="M3.9513 3.83212C3.97092 3.69049 4.03605 3.55902 4.13692 3.45742C4.23779 3.35581 4.36896 3.28956 4.51078 3.26858C5.05683 3.17764 5.27167 3.6558 5.27167 3.6558L3.9513 3.83212Z" fill="url(#paint14_linear_0_178)"/>
<path d="M40.2802 17.9603C40.0127 16.9052 40.6298 15.5131 41.7035 15.3212C42.4633 15.1856 43.4161 15.3982 44.4226 16.5598C46.7724 19.2676 48.6321 15.9221 49.5099 15.7569C50.4303 15.5834 50.9942 15.8992 51.1453 16.9175C51.2177 17.4485 51.1638 17.989 50.9881 18.4954C50.5517 19.7993 49.275 22.5623 45.5538 22.5623C42.3379 22.5601 40.9432 20.5771 40.2802 17.9603Z" fill="url(#paint15_linear_0_178)"/>
<path d="M46.2588 18.1778C45.1045 18.1787 43.975 17.8436 43.0088 17.2136C43.796 18.1794 44.9922 18.6174 46.213 18.6174C47.4337 18.6174 48.6305 18.1794 49.5094 17.2136C48.5431 17.8437 47.4134 18.1788 46.2588 18.1778Z" fill="#002BB5"/>
<path d="M53.6462 17.25C53.6245 16.8472 53.7336 16.4481 53.9574 16.112C54.1811 15.7759 54.5075 15.5207 54.8882 15.3842C55.6648 15.1142 56.7519 15.1772 57.9503 16.5598C60.3001 19.2676 62.1464 15.7452 63.0371 15.7569C64.0123 15.7686 64.5717 16.0599 64.4867 17.8437C64.4867 17.8437 63.7879 22.2705 59.3954 22.5623C56.4167 22.7604 53.795 20.4493 53.6462 17.25Z" fill="url(#paint16_linear_0_178)"/>
<path d="M30.1781 4.35229H22.9675V24.606H26.353V19.2151C26.353 19.0004 26.3954 18.7878 26.4777 18.5895C26.5601 18.3911 26.6809 18.2109 26.8331 18.0591C26.9853 17.9073 27.166 17.7869 27.3649 17.7047C27.5638 17.6226 27.777 17.5803 27.9922 17.5803H30.1787C34.3535 17.5803 37.7664 14.6415 37.7664 11.036C37.7664 7.35409 34.3535 4.35229 30.1781 4.35229ZM30.1781 14.4401L26.353 14.4284V7.50585H30.1787C32.4938 7.50585 34.3804 9.07482 34.3804 11.0104C34.3798 12.9074 32.4933 14.4524 30.1781 14.4401Z" fill="black"/>
<path d="M80.414 24.5899H68.1776V4.35181C68.5958 4.35181 69.01 4.43397 69.3964 4.59361C69.7828 4.75325 70.1339 4.98723 70.4296 5.2822C70.7253 5.57716 70.9599 5.92734 71.1199 6.31272C71.2799 6.6981 71.3622 7.11113 71.3621 7.52824V21.9051H77.2412C78.9935 21.9051 80.414 22.8424 80.414 24.5899Z" fill="black"/>
<path d="M59.1465 9.43359C56.2216 9.43359 53.677 11.069 52.3662 13.4782C51.0553 11.069 48.5102 9.43359 45.5853 9.43359C41.3215 9.43359 37.8644 12.9085 37.8644 17.1931C37.8644 21.4776 41.3226 24.9531 45.5853 24.9531C48.5102 24.9531 51.0553 23.3177 52.3662 20.9085C53.677 23.3177 56.2216 24.9531 59.1465 24.9531C63.4109 24.9531 66.8674 21.4782 66.8674 17.1931C66.8674 12.908 63.4109 9.43359 59.1465 9.43359ZM45.5853 23.0622C42.361 23.0622 39.7465 20.4348 39.7465 17.1947C39.7465 13.9547 42.361 11.3279 45.5853 11.3279C48.8095 11.3279 51.424 13.9547 51.424 17.1947C51.424 20.4348 48.8101 23.0622 45.5853 23.0622ZM59.1465 23.0622C55.9222 23.0622 53.3078 20.4348 53.3078 17.1947C53.3078 13.9547 55.9222 11.3279 59.1465 11.3279C62.3708 11.3279 64.9853 13.9547 64.9853 17.1947C64.9853 20.4348 62.3708 23.0622 59.1465 23.0622Z" fill="black"/>
<path d="M59.773 18.5066C58.6186 18.5074 57.4889 18.1726 56.5224 17.543C57.7493 18.7275 58.5063 18.9462 59.7271 18.9462C60.9479 18.9462 62.1441 18.5082 63.023 17.543C62.0567 18.1725 60.9272 18.5074 59.773 18.5066Z" fill="#002BB5"/>
<path d="M45.6349 17.7522C48.1823 17.7522 50.2473 16.3105 50.2473 14.5322C50.2473 12.7539 48.1823 11.3123 45.6349 11.3123C43.0876 11.3123 41.0226 12.7539 41.0226 14.5322C41.0226 16.3105 43.0876 17.7522 45.6349 17.7522Z" fill="url(#paint17_linear_0_178)"/>
<path d="M59.1963 17.7522C61.7436 17.7522 63.8086 16.3105 63.8086 14.5322C63.8086 12.7539 61.7436 11.3123 59.1963 11.3123C56.6489 11.3123 54.5839 12.7539 54.5839 14.5322C54.5839 16.3105 56.6489 17.7522 59.1963 17.7522Z" fill="url(#paint18_linear_0_178)"/>
<path d="M46.5889 11.9587L46.4043 13.0629C46.4043 13.0629 43.3613 12.5083 41.3303 15.0833C41.3303 15.0833 42.5299 12.048 46.5889 11.9587Z" fill="url(#paint19_linear_0_178)"/>
<path d="M59.227 12.0481L59.4116 13.1523C59.4116 13.1523 62.4557 12.6005 64.485 15.176C64.485 15.176 63.286 12.1402 59.227 12.0481Z" fill="url(#paint20_linear_0_178)"/>
<path opacity="0.5" d="M8.7495 15.6079L8.8088 15.5777C8.84797 15.5588 8.90671 15.532 8.98168 15.4968C9.13274 15.4271 9.3543 15.3328 9.63516 15.234C10.3695 14.9787 11.1347 14.8221 11.9106 14.7682C12.3374 14.7417 12.7655 14.7417 13.1923 14.7682C13.3887 14.7854 13.5756 14.7949 13.7518 14.82C13.9281 14.8452 14.0875 14.8608 14.2335 14.8887L14.4428 14.9244C14.5088 14.935 14.5709 14.9467 14.6285 14.9601L14.9239 15.0248C15.0056 15.0416 15.0683 15.0572 15.1102 15.0689L15.1746 15.0862L15.1091 15.0734C15.0666 15.0639 15.0034 15.0527 14.9211 15.0404L14.6229 14.9919C14.567 14.9813 14.5026 14.9729 14.4361 14.9651L14.2263 14.9389C14.0797 14.9171 13.918 14.9049 13.7445 14.8892C13.5711 14.8736 13.3854 14.8664 13.1907 14.8535C12.7673 14.8381 12.3434 14.8441 11.9206 14.8714C11.1519 14.9242 10.3915 15.0627 9.65362 15.2843C9.37052 15.3707 9.14505 15.4516 8.99063 15.5136L8.81328 15.5839L8.7495 15.6079Z" fill="white"/>
<path d="M13.7009 14.8475H13.6645C13.641 14.8475 13.6086 14.8414 13.5604 14.8403L13.1778 14.8241C12.8544 14.8185 12.4073 14.8129 11.9161 14.8486C11.4962 14.8781 11.0782 14.9305 10.664 15.0054C10.5846 15.0199 10.5124 15.0322 10.4497 15.045L10.2886 15.0796L10.151 15.1092L10.2864 15.0712L10.4458 15.0277C10.5079 15.0121 10.5795 14.9965 10.6584 14.9781C11.0711 14.8854 11.4902 14.8237 11.9122 14.7934C12.334 14.7664 12.7572 14.7675 13.1789 14.7967L13.561 14.8319C13.6063 14.8358 13.641 14.8419 13.6645 14.8447L13.7009 14.8475Z" fill="white"/>
<path d="M5.82 31.511H2.64V33.131H5.76V34.979H2.64V38.063H0.72V29.663H5.82V31.511ZM6.89438 38.063V29.303H8.69438V38.063H6.89438ZM12.8916 38.231C11.1276 38.231 9.71156 36.851 9.71156 35.063C9.71156 33.275 11.1276 31.895 12.8916 31.895C14.6556 31.895 16.0716 33.275 16.0716 35.063C16.0716 36.851 14.6556 38.231 12.8916 38.231ZM12.8916 36.479C13.6716 36.479 14.2716 35.915 14.2716 35.063C14.2716 34.211 13.6716 33.647 12.8916 33.647C12.1116 33.647 11.5116 34.211 11.5116 35.063C11.5116 35.915 12.1116 36.479 12.8916 36.479ZM21.4457 32.063H23.2457V38.063H21.4457V37.499C21.0497 37.955 20.4617 38.231 19.6577 38.231C18.0857 38.231 16.7897 36.851 16.7897 35.063C16.7897 33.275 18.0857 31.895 19.6577 31.895C20.4617 31.895 21.0497 32.171 21.4457 32.627V32.063ZM20.0177 36.527C20.8457 36.527 21.4457 35.963 21.4457 35.063C21.4457 34.163 20.8457 33.599 20.0177 33.599C19.1897 33.599 18.5897 34.163 18.5897 35.063C18.5897 35.963 19.1897 36.527 20.0177 36.527ZM28.0823 33.791H26.8463V35.915C26.8463 36.431 27.2903 36.479 28.0823 36.431V38.063C25.7303 38.303 25.0463 37.595 25.0463 35.915V33.791H24.0863V32.063H25.0463V30.923L26.8463 30.383V32.063H28.0823V33.791ZM34.1986 36.215H37.1986V38.063H32.2786V29.663H34.1986V36.215ZM40.8056 38.231C39.0416 38.231 37.6256 36.851 37.6256 35.063C37.6256 33.275 39.0416 31.895 40.8056 31.895C42.5696 31.895 43.9856 33.275 43.9856 35.063C43.9856 36.851 42.5696 38.231 40.8056 38.231ZM40.8056 36.479C41.5856 36.479 42.1856 35.915 42.1856 35.063C42.1856 34.211 41.5856 33.647 40.8056 33.647C40.0256 33.647 39.4256 34.211 39.4256 35.063C39.4256 35.915 40.0256 36.479 40.8056 36.479ZM48.8798 32.063H50.6797V38.063H48.8798V37.499C48.5558 37.943 47.9558 38.231 47.1638 38.231C45.9518 38.231 44.9198 37.367 44.9198 35.747V32.063H46.7198V35.483C46.7198 36.227 47.1878 36.575 47.7638 36.575C48.4238 36.575 48.8798 36.191 48.8798 35.339V32.063ZM55.5158 31.895C56.7278 31.895 57.7598 32.759 57.7598 34.379V38.063H55.9598V34.643C55.9598 33.899 55.4918 33.551 54.9158 33.551C54.2558 33.551 53.7998 33.935 53.7998 34.787V38.063H51.9998V32.063H53.7998V32.627C54.1238 32.183 54.7238 31.895 55.5158 31.895ZM63.3999 32.063H65.1519V37.763C65.1519 39.779 63.5799 40.631 61.9839 40.631C60.7359 40.631 59.6919 40.163 59.1399 39.179L60.6759 38.291C60.9039 38.711 61.2519 39.047 62.0439 39.047C62.8839 39.047 63.3999 38.615 63.3999 37.763V37.211C63.0039 37.703 62.4279 37.991 61.6479 37.991C59.9439 37.991 58.6959 36.599 58.6959 34.943C58.6959 33.287 59.9439 31.895 61.6479 31.895C62.4279 31.895 63.0039 32.183 63.3999 32.675V32.063ZM61.9479 36.335C62.7999 36.335 63.3999 35.771 63.3999 34.943C63.3999 34.115 62.7999 33.551 61.9479 33.551C61.0959 33.551 60.4959 34.115 60.4959 34.943C60.4959 35.771 61.0959 36.335 61.9479 36.335ZM68.0805 35.783C68.3085 36.407 68.8605 36.623 69.5205 36.623C70.0125 36.623 70.4325 36.431 70.6725 36.167L72.1125 36.995C71.5245 37.811 70.6365 38.231 69.4965 38.231C67.4445 38.231 66.1725 36.851 66.1725 35.063C66.1725 33.275 67.4685 31.895 69.3645 31.895C71.1165 31.895 72.4125 33.251 72.4125 35.063C72.4125 35.315 72.3885 35.555 72.3405 35.783H68.0805ZM68.0445 34.439H70.6245C70.4325 33.743 69.8925 33.491 69.3525 33.491C68.6685 33.491 68.2125 33.827 68.0445 34.439ZM75.2334 33.131C75.4734 32.327 76.2774 31.943 77.0334 31.943V33.983C76.2894 33.863 75.2334 34.163 75.2334 35.351V38.063H73.4334V32.063H75.2334V33.131Z" fill="#001484"/>
<defs>
<linearGradient id="paint0_linear_0_178" x1="12.6155" y1="-6.73701" x2="11.6979" y2="10.4974" gradientUnits="userSpaceOnUse">
<stop stop-color="#00D3D8"/>
<stop offset="0.16" stop-color="#00ADCF"/>
<stop offset="0.45" stop-color="#006FC0"/>
<stop offset="0.7" stop-color="#0041B4"/>
<stop offset="0.89" stop-color="#0025AE"/>
<stop offset="1" stop-color="#001AAB"/>
</linearGradient>
<radialGradient id="paint1_radial_0_178" cx="0" cy="0" r="1" gradientUnits="userSpaceOnUse" gradientTransform="translate(12.3273 18.793) rotate(-91.0328) scale(4.3487 6.97695)">
<stop stop-color="#00D3D8"/>
<stop offset="0.16" stop-color="#00CED7"/>
<stop offset="0.35" stop-color="#00BFD2"/>
<stop offset="0.56" stop-color="#00A8CC"/>
<stop offset="0.6" stop-color="#00A2CA"/>
<stop offset="0.65" stop-color="#0095C6"/>
<stop offset="0.76" stop-color="#0072BC"/>
<stop offset="0.9" stop-color="#003BAC"/>
<stop offset="1" stop-color="#000C9F"/>
</radialGradient>
<linearGradient id="paint2_linear_0_178" x1="6.99383" y1="1.23999" x2="6.03063" y2="20.5137" gradientUnits="userSpaceOnUse">
<stop stop-color="#00D3D8"/>
<stop offset="0.05" stop-color="#00BCD2"/>
<stop offset="0.16" stop-color="#0091C8"/>
<stop offset="0.28" stop-color="#006CBF"/>
<stop offset="0.4" stop-color="#004EB8"/>
<stop offset="0.52" stop-color="#0037B2"/>
<stop offset="0.66" stop-color="#0027AE"/>
<stop offset="0.81" stop-color="#001DAC"/>
<stop offset="1" stop-color="#001AAB"/>
</linearGradient>
<linearGradient id="paint3_linear_0_178" x1="-3.05839" y1="13.9613" x2="7.70439" y2="16.0893" gradientUnits="userSpaceOnUse">
<stop offset="0.3" stop-color="white" stop-opacity="0"/>
<stop offset="0.36" stop-color="white" stop-opacity="0.1"/>
<stop offset="0.54" stop-color="white" stop-opacity="0.42"/>
<stop offset="0.7" stop-color="white" stop-opacity="0.67"/>
<stop offset="0.84" stop-color="white" stop-opacity="0.85"/>
<stop offset="0.94" stop-color="white" stop-opacity="0.96"/>
<stop offset="1" stop-color="white"/>
</linearGradient>
<linearGradient id="paint4_linear_0_178" x1="3.67671" y1="21.0501" x2="4.68012" y2="21.4812" gradientUnits="userSpaceOnUse">
<stop/>
<stop offset="0.11" stop-color="#000418"/>
<stop offset="0.42" stop-color="#000D56"/>
<stop offset="0.68" stop-color="#001484"/>
<stop offset="0.88" stop-color="#0018A0"/>
<stop offset="1" stop-color="#001AAB"/>
</linearGradient>
<linearGradient id="paint5_linear_0_178" x1="6.82149" y1="22.1186" x2="7.92854" y2="22.3037" gradientUnits="userSpaceOnUse">
<stop/>
<stop offset="0.11" stop-color="#000418"/>
<stop offset="0.42" stop-color="#000D56"/>
<stop offset="0.68" stop-color="#001484"/>
<stop offset="0.88" stop-color="#0018A0"/>
<stop offset="1" stop-color="#001AAB"/>
</linearGradient>
<linearGradient id="paint6_linear_0_178" x1="10.7026" y1="22.7547" x2="11.6996" y2="22.7177" gradientUnits="userSpaceOnUse">
<stop/>
<stop offset="0.11" stop-color="#000418"/>
<stop offset="0.42" stop-color="#000D56"/>
<stop offset="0.68" stop-color="#001484"/>
<stop offset="0.88" stop-color="#0018A0"/>
<stop offset="1" stop-color="#001AAB"/>
</linearGradient>
<linearGradient id="paint7_linear_0_178" x1="14.5378" y1="22.382" x2="15.4595" y2="22.1044" gradientUnits="userSpaceOnUse">
<stop/>
<stop offset="0.11" stop-color="#000418"/>
<stop offset="0.42" stop-color="#000D56"/>
<stop offset="0.68" stop-color="#001484"/>
<stop offset="0.88" stop-color="#0018A0"/>
<stop offset="1" stop-color="#001AAB"/>
</linearGradient>
<linearGradient id="paint8_linear_0_178" x1="16.3814" y1="22.0488" x2="18.0085" y2="21.002" gradientUnits="userSpaceOnUse">
<stop/>
<stop offset="0.11" stop-color="#000418"/>
<stop offset="0.42" stop-color="#000D56"/>
<stop offset="0.68" stop-color="#001484"/>
<stop offset="0.88" stop-color="#0018A0"/>
<stop offset="1" stop-color="#001AAB"/>
</linearGradient>
<linearGradient id="paint9_linear_0_178" x1="17.8096" y1="21.4362" x2="19.0986" y2="20.3593" gradientUnits="userSpaceOnUse">
<stop/>
<stop offset="0.11" stop-color="#000418"/>
<stop offset="0.42" stop-color="#000D56"/>
<stop offset="0.68" stop-color="#001484"/>
<stop offset="0.88" stop-color="#0018A0"/>
<stop offset="1" stop-color="#001AAB"/>
</linearGradient>
<linearGradient id="paint10_linear_0_178" x1="18.0653" y1="21.0518" x2="19.3245" y2="20.4359" gradientUnits="userSpaceOnUse">
<stop/>
<stop offset="0.11" stop-color="#000418"/>
<stop offset="0.42" stop-color="#000D56"/>
<stop offset="0.68" stop-color="#001484"/>
<stop offset="0.88" stop-color="#0018A0"/>
<stop offset="1" stop-color="#001AAB"/>
</linearGradient>
<linearGradient id="paint11_linear_0_178" x1="7.65959" y1="4.40144" x2="9.95561" y2="-1.12287" gradientUnits="userSpaceOnUse">
<stop offset="0.3" stop-color="white" stop-opacity="0"/>
<stop offset="0.36" stop-color="white" stop-opacity="0.1"/>
<stop offset="0.54" stop-color="white" stop-opacity="0.42"/>
<stop offset="0.7" stop-color="white" stop-opacity="0.67"/>
<stop offset="0.84" stop-color="white" stop-opacity="0.85"/>
<stop offset="0.94" stop-color="white" stop-opacity="0.96"/>
<stop offset="1" stop-color="white"/>
</linearGradient>
<linearGradient id="paint12_linear_0_178" x1="18.1667" y1="16.379" x2="24.5725" y2="13.5143" gradientUnits="userSpaceOnUse">
<stop stop-color="white" stop-opacity="0"/>
<stop offset="1" stop-color="white"/>
</linearGradient>
<linearGradient id="paint13_linear_0_178" x1="2.57889" y1="11.2814" x2="6.85332" y2="11.1888" gradientUnits="userSpaceOnUse">
<stop stop-color="white" stop-opacity="0"/>
<stop offset="1" stop-color="white"/>
</linearGradient>
<linearGradient id="paint14_linear_0_178" x1="4.63666" y1="4.06144" x2="4.39182" y2="1.10975" gradientUnits="userSpaceOnUse">
<stop offset="0.12" stop-color="white" stop-opacity="0"/>
<stop offset="0.44" stop-color="white"/>
</linearGradient>
<linearGradient id="paint15_linear_0_178" x1="45.6982" y1="14.1645" x2="45.6982" y2="53.8156" gradientUnits="userSpaceOnUse">
<stop stop-color="#00D3D8"/>
<stop offset="0.05" stop-color="#00BCD2"/>
<stop offset="0.16" stop-color="#0091C8"/>
<stop offset="0.28" stop-color="#006CBF"/>
<stop offset="0.4" stop-color="#004EB8"/>
<stop offset="0.52" stop-color="#0037B2"/>
<stop offset="0.66" stop-color="#0027AE"/>
<stop offset="0.81" stop-color="#001DAC"/>
<stop offset="1" stop-color="#001AAB"/>
</linearGradient>
<linearGradient id="paint16_linear_0_178" x1="59.0698" y1="14.2566" x2="59.0698" y2="53.9076" gradientUnits="userSpaceOnUse">
<stop stop-color="#00D3D8"/>
<stop offset="0.05" stop-color="#00BCD2"/>
<stop offset="0.16" stop-color="#0091C8"/>
<stop offset="0.28" stop-color="#006CBF"/>
<stop offset="0.4" stop-color="#004EB8"/>
<stop offset="0.52" stop-color="#0037B2"/>
<stop offset="0.66" stop-color="#0027AE"/>
<stop offset="0.81" stop-color="#001DAC"/>
<stop offset="1" stop-color="#001AAB"/>
</linearGradient>
<linearGradient id="paint17_linear_0_178" x1="46.4596" y1="18.8993" x2="44.3615" y2="7.72308" gradientUnits="userSpaceOnUse">
<stop stop-color="white" stop-opacity="0"/>
<stop offset="0.21" stop-color="white" stop-opacity="0.01"/>
<stop offset="0.35" stop-color="white" stop-opacity="0.04"/>
<stop offset="0.46" stop-color="white" stop-opacity="0.1"/>
<stop offset="0.56" stop-color="white" stop-opacity="0.18"/>
<stop offset="0.66" stop-color="white" stop-opacity="0.29"/>
<stop offset="0.75" stop-color="white" stop-opacity="0.42"/>
<stop offset="0.83" stop-color="white" stop-opacity="0.57"/>
<stop offset="0.91" stop-color="white" stop-opacity="0.75"/>
<stop offset="0.98" stop-color="white" stop-opacity="0.95"/>
<stop offset="1" stop-color="white"/>
</linearGradient>
<linearGradient id="paint18_linear_0_178" x1="60.0209" y1="18.8993" x2="57.9223" y2="7.72308" gradientUnits="userSpaceOnUse">
<stop stop-color="white" stop-opacity="0"/>
<stop offset="0.21" stop-color="white" stop-opacity="0.01"/>
<stop offset="0.35" stop-color="white" stop-opacity="0.04"/>
<stop offset="0.46" stop-color="white" stop-opacity="0.1"/>
<stop offset="0.56" stop-color="white" stop-opacity="0.18"/>
<stop offset="0.66" stop-color="white" stop-opacity="0.29"/>
<stop offset="0.75" stop-color="white" stop-opacity="0.42"/>
<stop offset="0.83" stop-color="white" stop-opacity="0.57"/>
<stop offset="0.91" stop-color="white" stop-opacity="0.75"/>
<stop offset="0.98" stop-color="white" stop-opacity="0.95"/>
<stop offset="1" stop-color="white"/>
</linearGradient>
<linearGradient id="paint19_linear_0_178" x1="42.9573" y1="10.3223" x2="44.7933" y2="16.2127" gradientUnits="userSpaceOnUse">
<stop offset="0.3" stop-color="white" stop-opacity="0"/>
<stop offset="0.36" stop-color="white" stop-opacity="0.1"/>
<stop offset="0.54" stop-color="white" stop-opacity="0.42"/>
<stop offset="0.7" stop-color="white" stop-opacity="0.67"/>
<stop offset="0.84" stop-color="white" stop-opacity="0.85"/>
<stop offset="0.94" stop-color="white" stop-opacity="0.96"/>
<stop offset="1" stop-color="white"/>
</linearGradient>
<linearGradient id="paint20_linear_0_178" x1="62.858" y1="10.4144" x2="61.022" y2="16.3048" gradientUnits="userSpaceOnUse">
<stop offset="0.3" stop-color="white" stop-opacity="0"/>
<stop offset="0.36" stop-color="white" stop-opacity="0.1"/>
<stop offset="0.54" stop-color="white" stop-opacity="0.42"/>
<stop offset="0.7" stop-color="white" stop-opacity="0.67"/>
<stop offset="0.84" stop-color="white" stop-opacity="0.85"/>
<stop offset="0.94" stop-color="white" stop-opacity="0.96"/>
<stop offset="1" stop-color="white"/>
</linearGradient>
</defs>
</svg>
