<svg width="90" height="17" viewBox="0 0 90 17" fill="none" xmlns="http://www.w3.org/2000/svg">
<path d="M8.65558 2.56099L10.1427 5.54263C10.25 5.75954 10.4592 5.91048 10.7019 5.94603L14.0331 6.43128C14.2289 6.45875 14.4056 6.56178 14.5239 6.71758C14.6422 6.87339 14.6925 7.06912 14.6636 7.26146C14.6406 7.42088 14.5654 7.56862 14.4495 7.6824L12.0344 10.0209C11.8575 10.1863 11.777 10.4279 11.8202 10.664L12.4151 13.9555C12.4808 14.3493 12.2181 14.7237 11.8202 14.8033C11.6574 14.8288 11.4905 14.8022 11.3443 14.7273L8.37005 13.178C8.14978 13.0666 7.88838 13.0666 7.66812 13.178L4.69383 14.7273C4.32746 14.9221 3.86976 14.7887 3.67067 14.4291C3.59524 14.2851 3.56817 14.1214 3.59334 13.9614L4.1882 10.6699C4.23141 10.4338 4.15094 10.1921 3.97405 10.0268L1.55893 7.68824C1.41724 7.55091 1.33748 7.36349 1.33748 7.16792C1.33748 6.97234 1.41724 6.78492 1.55893 6.64759C1.67307 6.53145 1.8242 6.45718 1.98723 6.43712L5.31843 5.95187C5.56113 5.91632 5.77035 5.76538 5.8776 5.54848L7.3112 2.56099C7.43657 2.30616 7.70139 2.14635 7.98934 2.15174H8.07857C8.32915 2.18299 8.54645 2.33711 8.65558 2.56099Z" fill="#FFB800"/>
<path d="M8.00692 13.0902C7.87664 13.0893 7.75412 13.1322 7.63821 13.1907L4.67331 14.7362C4.31771 14.9154 3.86617 14.7714 3.67041 14.429C3.59464 14.2873 3.56751 14.1253 3.59308 13.9671L4.18794 10.6815C4.22788 10.4438 4.14805 10.2019 3.97379 10.0325L1.55272 7.694C1.26077 7.40645 1.26077 6.94089 1.55272 6.65335C1.66691 6.54052 1.81497 6.46674 1.97507 6.44288L5.31817 5.95178C5.57579 5.91439 5.75992 5.77195 5.87733 5.54839L7.32964 2.52666C7.44032 2.28084 7.81242 2.11097 8.01287 2.15165C8.00692 2.35043 8.00692 12.9557 8.00692 13.0902Z" fill="#F2AE00"/>
<path d="M27.0615 2.56099L28.5486 5.54263C28.6559 5.75954 28.8651 5.91048 29.1078 5.94603L32.439 6.43128C32.6348 6.45875 32.8115 6.56178 32.9298 6.71758C33.0481 6.87339 33.0984 7.06912 33.0695 7.26146C33.0465 7.42088 32.9713 7.56862 32.8554 7.6824L30.4403 10.0209C30.2634 10.1863 30.1829 10.4279 30.2261 10.664L30.821 13.9555C30.8867 14.3493 30.624 14.7237 30.2261 14.8033C30.0633 14.8288 29.8964 14.8022 29.7502 14.7273L26.7759 13.178C26.5557 13.0666 26.2943 13.0666 26.074 13.178L23.0997 14.7273C22.7333 14.9221 22.2756 14.7887 22.0766 14.4291C22.0011 14.2851 21.9741 14.1214 21.9992 13.9614L22.5941 10.6699C22.6373 10.4338 22.5568 10.1921 22.3799 10.0268L19.9648 7.68824C19.8231 7.55091 19.7434 7.36349 19.7434 7.16792C19.7434 6.97234 19.8231 6.78492 19.9648 6.64759C20.079 6.53145 20.2301 6.45718 20.3931 6.43712L23.7243 5.95187C23.967 5.91632 24.1762 5.76538 24.2835 5.54848L25.7171 2.56099C25.8425 2.30616 26.1073 2.14635 26.3952 2.15174H26.4845C26.735 2.18299 26.9523 2.33711 27.0615 2.56099Z" fill="#FFB800"/>
<path d="M26.4128 13.0902C26.2825 13.0893 26.16 13.1322 26.0441 13.1907L23.0792 14.7362C22.7236 14.9154 22.2721 14.7714 22.0763 14.429C22.0005 14.2873 21.9734 14.1253 21.999 13.9671L22.5938 10.6815C22.6338 10.4438 22.5539 10.2019 22.3797 10.0325L19.9586 7.694C19.6667 7.40645 19.6667 6.94089 19.9586 6.65335C20.0728 6.54052 20.2209 6.46674 20.381 6.44288L23.724 5.95178C23.9817 5.91439 24.1658 5.77195 24.2832 5.54839L25.7355 2.52666C25.8462 2.28084 26.2183 2.11097 26.4188 2.15165C26.4128 2.35043 26.4128 12.9557 26.4128 13.0902Z" fill="#F2AE00"/>
<path d="M45.4673 2.56099L46.9545 5.54263C47.0617 5.75954 47.271 5.91048 47.5137 5.94603L50.8449 6.43128C51.0407 6.45875 51.2173 6.56178 51.3357 6.71758C51.454 6.87339 51.5043 7.06912 51.4754 7.26146C51.4524 7.42088 51.3772 7.56862 51.2613 7.6824L48.8461 10.0209C48.6693 10.1863 48.5888 10.4279 48.632 10.664L49.2268 13.9555C49.2925 14.3493 49.0298 14.7237 48.632 14.8033C48.4692 14.8288 48.3023 14.8022 48.1561 14.7273L45.1818 13.178C44.9616 13.0666 44.7002 13.0666 44.4799 13.178L41.5056 14.7273C41.1392 14.9221 40.6815 14.7887 40.4824 14.4291C40.407 14.2851 40.3799 14.1214 40.4051 13.9614L41 10.6699C41.0432 10.4338 40.9627 10.1921 40.7858 10.0268L38.3707 7.68824C38.229 7.55091 38.1492 7.36349 38.1492 7.16792C38.1492 6.97234 38.229 6.78492 38.3707 6.64759C38.4848 6.53145 38.636 6.45718 38.799 6.43712L42.1302 5.95187C42.3729 5.91632 42.5821 5.76538 42.6894 5.54848L44.123 2.56099C44.2483 2.30616 44.5132 2.14635 44.8011 2.15174H44.8903C45.1409 2.18299 45.3582 2.33711 45.4673 2.56099Z" fill="#FFB800"/>
<path d="M44.8187 13.0902C44.6884 13.0893 44.5659 13.1322 44.45 13.1907L41.4851 14.7362C41.1295 14.9154 40.6779 14.7714 40.4822 14.429C40.4064 14.2873 40.3793 14.1253 40.4048 13.9671L40.9997 10.6815C41.0396 10.4438 40.9598 10.2019 40.7856 10.0325L38.3645 7.694C38.0725 7.40645 38.0725 6.94089 38.3645 6.65335C38.4787 6.54052 38.6267 6.46674 38.7868 6.44288L42.1299 5.95178C42.3876 5.91439 42.5717 5.77195 42.6891 5.54839L44.1414 2.52666C44.2521 2.28084 44.6242 2.11097 44.8246 2.15165C44.8187 2.35043 44.8187 12.9557 44.8187 13.0902Z" fill="#F2AE00"/>
<path d="M63.8731 2.56099L65.3602 5.54263C65.4675 5.75954 65.6767 5.91048 65.9194 5.94603L69.2506 6.43128C69.4464 6.45875 69.6231 6.56178 69.7414 6.71758C69.8597 6.87339 69.91 7.06912 69.8811 7.26146C69.8581 7.42088 69.7829 7.56862 69.667 7.6824L67.2519 10.0209C67.075 10.1863 66.9945 10.4279 67.0377 10.664L67.6326 13.9555C67.6983 14.3493 67.4356 14.7237 67.0377 14.8033C66.8749 14.8288 66.708 14.8022 66.5618 14.7273L63.5875 13.178C63.3673 13.0666 63.1059 13.0666 62.8856 13.178L59.9113 14.7273C59.5449 14.9221 59.0872 14.7887 58.8882 14.4291C58.8127 14.2851 58.7857 14.1214 58.8108 13.9614L59.4057 10.6699C59.4489 10.4338 59.3684 10.1921 59.1915 10.0268L56.7764 7.68824C56.6347 7.55091 56.555 7.36349 56.555 7.16792C56.555 6.97234 56.6347 6.78492 56.7764 6.64759C56.8906 6.53145 57.0417 6.45718 57.2047 6.43712L60.5359 5.95187C60.7786 5.91632 60.9878 5.76538 61.0951 5.54848L62.5287 2.56099C62.6541 2.30616 62.9189 2.14635 63.2068 2.15174H63.2961C63.5466 2.18299 63.7639 2.33711 63.8731 2.56099Z" fill="#FFB800"/>
<path d="M63.2246 13.0902C63.0943 13.0893 62.9718 13.1322 62.8559 13.1907L59.891 14.7362C59.5354 14.9154 59.0838 14.7714 58.8881 14.429C58.8123 14.2873 58.7852 14.1253 58.8107 13.9671L59.4056 10.6815C59.4455 10.4438 59.3657 10.2019 59.1915 10.0325L56.7704 7.694C56.4784 7.40645 56.4784 6.94089 56.7704 6.65335C56.8846 6.54052 57.0326 6.46674 57.1927 6.44288L60.5358 5.95178C60.7935 5.91439 60.9776 5.77195 61.095 5.54839L62.5473 2.52666C62.658 2.28084 63.0301 2.11097 63.2305 2.15165C63.2246 2.35043 63.2246 12.9557 63.2246 13.0902Z" fill="#F2AE00"/>
<path d="M81.8294 2.77995L81.8294 2.77996L81.8314 2.78403L83.3178 5.76412C83.3179 5.7644 83.3181 5.76468 83.3182 5.76495C83.4996 6.13102 83.8505 6.3817 84.2527 6.44063L84.2531 6.44068L87.5843 6.92593L87.5843 6.92594L87.5869 6.92631C87.6536 6.93566 87.7115 6.97046 87.749 7.01989C87.7863 7.06898 87.8012 7.12903 87.7925 7.18707L87.7921 7.18978C87.7849 7.23946 87.7614 7.28691 87.7234 7.32455C87.7231 7.32484 87.7228 7.32513 87.7226 7.32541L85.3126 9.65893C85.0153 9.93912 84.8779 10.3499 84.9516 10.7535C84.9516 10.7536 84.9516 10.7538 84.9517 10.7539L85.5456 14.0401C85.5638 14.1568 85.4887 14.2788 85.3556 14.3106C85.3007 14.3172 85.2452 14.3073 85.1967 14.2827C85.1964 14.2825 85.196 14.2823 85.1957 14.2822L82.2243 12.7344L82.2243 12.7344L82.2189 12.7316C81.8568 12.5486 81.4279 12.5486 81.0658 12.7316L81.0658 12.7316L81.0604 12.7344L78.0861 14.2837L78.0861 14.2837L78.0823 14.2857C77.9549 14.3535 77.8006 14.3053 77.7342 14.1917C77.7111 14.1451 77.7028 14.0935 77.7099 14.0431L78.3033 10.7598C78.3033 10.7596 78.3034 10.7594 78.3034 10.7592C78.3771 10.3557 78.2397 9.94495 77.9424 9.66479L75.5302 7.32909C75.5302 7.32908 75.5302 7.32907 75.5302 7.32906C75.4847 7.28496 75.4608 7.22669 75.4608 7.16779C75.4608 7.10889 75.4847 7.0506 75.5302 7.0065L75.5303 7.0066L75.5388 6.99794C75.573 6.96315 75.6196 6.93965 75.6716 6.93326L75.6716 6.93338L75.6826 6.93178L79.0138 6.44653L79.0142 6.44647C79.4167 6.38751 79.7679 6.13649 79.9491 5.76997L79.9491 5.76998L79.9517 5.76467L81.3839 2.78003C81.4225 2.70319 81.5063 2.64972 81.6032 2.65153L81.6032 2.65162H81.6126H81.6626C81.7379 2.66791 81.7986 2.71675 81.8294 2.77995Z" fill="white" stroke="#B3B3B3"/>
</svg>
