<svg width="24" height="21" viewBox="0 0 24 21" fill="none" xmlns="http://www.w3.org/2000/svg">
<path d="M24 3.02389C23.1182 3.42548 22.1687 3.69706 21.1727 3.8184C22.1898 3.19435 22.9702 2.20482 23.3379 1.02606C22.3856 1.60388 21.3333 2.02425 20.2092 2.2496C19.3133 1.26875 18.0328 0.65625 16.6156 0.65625C13.8982 0.65625 11.6936 2.91699 11.6936 5.705C11.6936 6.10082 11.7359 6.48507 11.8204 6.85488C7.72812 6.64397 4.10072 4.63603 1.67072 1.57788C1.2467 2.32617 1.0044 3.19435 1.0044 4.11887C1.0044 5.86968 1.87357 7.41537 3.19493 8.32111C2.38915 8.29655 1.62846 8.06687 0.96355 7.69128V7.7534C0.96355 10.2005 2.66103 12.2417 4.91495 12.7039C4.5022 12.8224 4.06691 12.8816 3.61754 12.8816C3.30058 12.8816 2.99067 12.8513 2.69061 12.792C3.31749 14.7971 5.13471 16.2576 7.29002 16.2966C5.60521 17.6516 3.48089 18.4591 1.17485 18.4591C0.777601 18.4591 0.384575 18.436 0 18.3897C2.17926 19.8198 4.76845 20.6562 7.54781 20.6562C16.6057 20.6562 21.5573 12.9639 21.5573 6.2915C21.5573 6.07192 21.5531 5.85235 21.5446 5.63711C22.5068 4.92494 23.3421 4.03653 24 3.02389Z" fill="black"/>
</svg>
