<svg width="24" height="22" viewBox="0 0 24 22" fill="none" xmlns="http://www.w3.org/2000/svg">
<path d="M23.9879 5.51152C23.8835 7.87821 22.2494 11.1135 19.0969 15.2187C15.8344 19.5113 13.07 21.6562 10.8107 21.6562C9.4137 21.6562 8.22975 20.3513 7.26312 17.7327C6.61541 15.3303 5.97193 12.9278 5.32563 10.5325C4.60595 7.91255 3.83547 6.60328 3.01137 6.60328C2.83215 6.60328 2.20702 6.98533 1.12891 7.75086L0 6.27561C1.18253 5.22391 2.34813 4.16791 3.49821 3.11477C5.07304 1.73253 6.25698 1.00707 7.04722 0.931236C8.90992 0.748082 10.0586 2.04018 10.4918 4.80323C10.9532 7.78663 11.2778 9.64107 11.457 10.368C11.9961 12.8405 12.5859 14.074 13.2322 14.074C13.7332 14.074 14.4867 13.2755 15.4915 11.6772C16.4962 10.0761 17.031 8.8598 17.1044 8.0213C17.2483 6.63906 16.7107 5.95223 15.4915 5.95223C14.9171 5.95223 14.3245 6.07529 13.7163 6.33285C14.9016 2.44226 17.1594 0.550619 20.4954 0.660798C22.9663 0.730912 24.1333 2.35068 23.9879 5.51152Z" fill="black"/>
</svg>
