<svg width="24" height="18" viewBox="0 0 24 18" fill="none" xmlns="http://www.w3.org/2000/svg">
<path fill-rule="evenodd" clip-rule="evenodd" d="M22.806 1.92443C23.5252 2.65785 23.76 4.32333 23.76 4.32333C23.76 4.32333 24 6.27961 24 8.23514V10.0691C24 12.0253 23.76 13.9809 23.76 13.9809C23.76 13.9809 23.5252 15.6463 22.806 16.3798C21.9837 17.2474 21.0719 17.337 20.5565 17.3877C20.4998 17.3933 20.4479 17.3984 20.4015 17.404C17.043 17.6487 12 17.6562 12 17.6562C12 17.6562 5.76 17.5988 3.84 17.413C3.74903 17.3959 3.63876 17.3826 3.51388 17.3675C2.9057 17.294 1.95113 17.1787 1.19325 16.3798C0.474 15.6463 0.24 13.9809 0.24 13.9809C0.24 13.9809 0 12.0253 0 10.0691V8.23514C0 6.27961 0.24 4.32333 0.24 4.32333C0.24 4.32333 0.474 2.65785 1.19325 1.92443C2.0174 1.0556 2.93006 0.966925 3.44548 0.916847C3.50136 0.911417 3.55258 0.906441 3.5985 0.900974C6.957 0.65625 11.9948 0.65625 11.9948 0.65625H12.0052C12.0052 0.65625 17.043 0.65625 20.4015 0.900974C20.4474 0.906449 20.4987 0.911432 20.5546 0.916871C21.0696 0.966954 21.9827 1.05574 22.806 1.92443ZM9.52125 5.50012L9.522 12.2912L16.0057 8.90737L9.52125 5.50012Z" fill="black"/>
</svg>
