<svg width="50" height="49" viewBox="0 0 50 49" fill="none" xmlns="http://www.w3.org/2000/svg">
<path d="M25 48.7258C20.0555 48.7258 15.222 47.299 11.1108 44.6258C6.99952 41.9526 3.79521 38.1531 1.90302 33.7078C0.0108321 29.2624 -0.484251 24.3709 0.480379 19.6517C1.44501 14.9325 3.82603 10.5977 7.32234 7.19539C10.8187 3.79306 15.2732 1.47605 20.1227 0.537351C24.9723 -0.401348 29.9989 0.0804261 34.5671 1.92175C39.1352 3.76308 43.0397 6.88125 45.7867 10.882C48.5338 14.8827 50 19.5862 50 24.3978C50 30.85 47.3661 37.0379 42.6777 41.6003C37.9893 46.1627 31.6304 48.7258 25 48.7258ZM25 3.54532C20.7618 3.54532 16.6188 4.7683 13.0949 7.0596C9.57102 9.35091 6.82447 12.6076 5.20259 16.4179C3.58071 20.2282 3.15636 24.421 3.98318 28.466C4.81001 32.511 6.85088 36.2265 9.84772 39.1428C12.8446 42.0591 16.6628 44.0451 20.8195 44.8497C24.9762 45.6543 29.2848 45.2413 33.2004 43.6631C37.1159 42.0848 40.4626 39.4121 42.8172 35.9829C45.1718 32.5537 46.4286 28.5221 46.4286 24.3978C46.4286 18.8674 44.1709 13.5635 40.1523 9.65288C36.1337 5.74227 30.6832 3.54532 25 3.54532ZM22.6071 32.652L38.6786 18.7503L36.3214 16.1437L21.4286 28.968L13.7679 21.4264L11.2322 23.8939L20.1607 32.5825C20.3276 32.7435 20.5255 32.8709 20.743 32.9574C20.9606 33.0439 21.1936 33.0877 21.4286 33.0864C21.8626 33.0858 22.2816 32.9314 22.6071 32.652Z" fill="#49977F"/>
</svg>
