<svg width="185" height="141" viewBox="0 0 185 141" fill="none" xmlns="http://www.w3.org/2000/svg">
<path d="M79.7952 44.2024C70.1762 42.888 62.7378 34.6354 62.7378 24.673V17.9887H79.7952V12.1432H56.8834V24.673C56.8834 37.8601 66.9386 48.7468 79.7952 50.0933V44.2024Z" fill="#FFC200"/>
<path d="M56.8834 18.0528V24.673C56.8834 37.8601 66.9386 48.7469 79.7952 50.0934V44.2025C70.1762 42.888 62.7378 34.6354 62.7378 24.673V18.0528H56.8834Z" fill="#FFA300"/>
<path d="M114.113 44.2024C123.732 42.888 131.171 34.6354 131.171 24.673V17.9887H114.113V12.1432H137.025V24.673C137.025 37.8601 126.97 48.7468 114.113 50.0933V44.2024Z" fill="#FFC200"/>
<path d="M137.023 18.0528V24.673C137.023 37.8601 126.967 48.7469 114.111 50.0934V44.2025C123.73 42.888 131.168 34.6354 131.168 24.673V18.0528H137.023Z" fill="#FFA300"/>
<path d="M103.29 66.401L102.124 58.6052H102.375C103.4 58.6052 104.232 57.7744 104.232 56.7511C104.232 55.7279 103.4 54.897 102.375 54.897H91.4477C90.4229 54.897 89.5908 55.7279 89.5908 56.7511C89.5908 57.7744 90.4229 58.6052 91.4477 58.6052H91.6992L90.5326 66.401C86.7466 66.8177 83.798 70.021 83.798 73.9135V73.991H110.025V73.9135C110.025 70.021 107.079 66.8177 103.29 66.401Z" fill="#FFC200"/>
<path d="M97.1389 57.1998H96.6813C83.8033 57.1998 72.9802 47.5446 71.5353 34.7663L68.3058 7.9167L68.5921 7.85792C69.5848 7.65755 124.238 7.65755 125.231 7.85792L125.517 7.9167L122.288 34.7663C120.843 47.5446 110.02 57.1998 97.1416 57.1998H97.1389Z" fill="#FFC200"/>
<path d="M125.514 7.9167L125.228 7.85792C115.515 7.85792 106.397 7.70831 96.9088 7.70831V57.1971H97.1362C99.341 57.1971 101.482 56.9086 103.528 56.3743C103.957 56.2621 104.382 56.1418 104.802 56.0083C105.369 55.8293 105.926 55.6316 106.477 55.4152C114.929 52.0596 121.209 44.2799 122.285 34.7637L125.514 7.91402V7.9167Z" fill="#FFA300"/>
<path d="M103.29 66.401L102.124 58.6052H102.375C103.4 58.6052 104.232 57.7744 104.232 56.7511C104.232 55.7279 103.4 54.897 102.375 54.897H96.9115V73.991H110.025V73.9135C110.025 70.021 107.079 66.8177 103.29 66.401Z" fill="#FFA300"/>
<path d="M102.707 62.503L102.143 58.7413H91.6753L91.1134 62.503H102.707Z" fill="#CC6315"/>
<path d="M77.9277 40.1898C76.3062 36.5617 75.8808 32.7734 75.4125 28.8889C75.0968 26.2654 74.7811 23.6445 74.4653 21.021C74.3636 20.1688 73.0071 20.1581 73.1114 21.021C73.4459 23.8102 73.783 26.5966 74.1175 29.3858C74.5938 33.3505 75.1021 37.1682 76.7557 40.871C77.1089 41.6645 78.2782 40.9779 77.925 40.1898H77.9277Z" fill="#FFF0A4"/>
<path d="M83.5517 47.9936C82.4038 46.9116 81.3549 45.7387 80.4238 44.467C79.9154 43.7724 78.7408 44.4457 79.2545 45.1483C80.2552 46.5162 81.3603 47.7852 82.5938 48.9473C83.2279 49.5431 84.1858 48.5893 83.5517 47.9909V47.9936Z" fill="#FFF0A4"/>
<path d="M116.653 39.5298C114.081 45.0013 109.723 49.2972 104.219 51.8085C103.427 52.1692 104.114 53.334 104.901 52.976C110.587 50.3819 115.162 45.8642 117.819 40.2137C118.189 39.431 117.022 38.7444 116.65 39.5325L116.653 39.5298Z" fill="#FFC200"/>
<path d="M118.708 32.1508C118.601 33.0725 118.435 33.9862 118.229 34.8919C118.036 35.7388 119.339 36.0995 119.534 35.2499C119.77 34.2267 119.941 33.1928 120.061 32.1482C120.163 31.2852 118.809 31.2932 118.708 32.1482V32.1508Z" fill="#FFC200"/>
<path d="M89.2779 67.8916C88.3869 68.3324 87.5815 68.9282 86.8966 69.6469C86.2945 70.2774 87.2497 71.2338 87.8544 70.6033C88.4699 69.9594 89.1655 69.4545 89.9629 69.0591C90.7442 68.6744 90.0592 67.5069 89.2806 67.8916H89.2779Z" fill="#FFF0A4"/>
<path d="M125.635 7.58019L125.346 10.3694H68.5946L68.3083 7.58019L68.5946 7.52677C69.3813 7.3638 124.559 7.3638 125.346 7.52677L125.635 7.58019Z" fill="#CC6315"/>
<path d="M126.02 7.93009H67.9715C65.9487 7.93009 64.3085 6.2924 64.3085 4.27266C64.3085 2.25293 65.9487 0.615234 67.9715 0.615234H126.02C128.043 0.615234 129.683 2.25293 129.683 4.27266C129.683 6.2924 128.043 7.93009 126.02 7.93009Z" fill="#FFC200"/>
<path d="M70.9411 5.10083H69.0521C68.2949 5.10083 67.6821 4.48904 67.6821 3.73297C67.6821 2.97691 68.2949 2.36511 69.0521 2.36511H70.9411C71.6983 2.36511 72.3111 2.97691 72.3111 3.73297C72.3111 4.48904 71.6983 5.10083 70.9411 5.10083Z" fill="#FFF2BB"/>
<path d="M84.7747 5.10083H75.2894C74.5322 5.10083 73.9194 4.48904 73.9194 3.73297C73.9194 2.97691 74.5322 2.36511 75.2894 2.36511H84.7747C85.5319 2.36511 86.1446 2.97691 86.1446 3.73297C86.1446 4.48904 85.5319 5.10083 84.7747 5.10083Z" fill="#FFF2BB"/>
<path d="M124.781 99.4219V80.0127C124.781 76.5984 122.009 73.8306 118.59 73.8306H75.3188C71.8992 73.8306 69.1272 76.5984 69.1272 80.0127V99.4219H68.865C65.5418 99.4219 62.8501 102.112 62.8501 105.428V107.597H131.064V105.428C131.064 102.11 128.369 99.4219 125.049 99.4219H124.787H124.781Z" fill="#7D7C9B"/>
<path d="M118.587 73.8306H96.9512V107.6H131.058V105.43C131.058 102.112 128.364 99.4246 125.043 99.4246H124.781V80.0153C124.781 76.601 122.009 73.8332 118.589 73.8332L118.587 73.8306Z" fill="#5E5E7C"/>
<path d="M124.781 95.6522H69.1243V99.4219H124.781V95.6522Z" fill="#5E5E7C"/>
<path d="M131.061 107.597H62.8473V111.367H131.061V107.597Z" fill="#3F3F5B"/>
<path d="M109.776 80.555H84.1295C83.0803 80.555 82.2297 81.4042 82.2297 82.4518V93.4535C82.2297 94.5011 83.0803 95.3503 84.1295 95.3503H109.776C110.825 95.3503 111.676 94.5011 111.676 93.4535V82.4518C111.676 81.4042 110.825 80.555 109.776 80.555Z" fill="#96A6A8"/>
<path d="M109.776 79.0883H84.1295C83.0803 79.0883 82.2297 79.9375 82.2297 80.9851V91.9868C82.2297 93.0344 83.0803 93.8836 84.1295 93.8836H109.776C110.825 93.8836 111.676 93.0344 111.676 91.9868V80.9851C111.676 79.9375 110.825 79.0883 109.776 79.0883Z" fill="#BECACC"/>
<path d="M111.167 79.6974C110.819 79.3234 110.33 79.0883 109.778 79.0883H108.655L93.8368 93.8837H96.9593L111.167 79.6974Z" fill="#DAE7E8"/>
<path d="M83.2682 93.6672C83.5277 93.8008 83.8194 93.8836 84.1324 93.8836H90.6156L105.433 79.0883H97.8667L83.2655 93.6672H83.2682Z" fill="#DAE7E8"/>
<path d="M87.9077 83.7049H105.998C107.181 83.7049 107.181 81.8722 105.998 81.8722H87.9077C86.7251 81.8722 86.7251 83.7049 87.9077 83.7049Z" fill="#7D8D8E"/>
<path d="M91.0912 86.7397H102.813C103.996 86.7397 103.996 84.907 102.813 84.907H91.0912C89.9086 84.907 89.9086 86.7397 91.0912 86.7397Z" fill="#7D8D8E"/>
<path d="M87.9077 91.1026H105.998C107.181 91.1026 107.181 89.2698 105.998 89.2698H87.9077C86.7251 89.2698 86.7251 91.1026 87.9077 91.1026Z" fill="#7D8D8E"/>
<path d="M13.7168 124.642V124.393C13.7168 122.654 12.3121 121.246 10.5809 121.246H9.83438C8.10322 121.246 6.69849 122.654 6.69849 124.393V124.642H13.7168Z" fill="#323244"/>
<path d="M22.7312 124.642V124.393C22.7312 122.654 21.3265 121.246 19.5953 121.246H18.8488C17.1176 121.246 15.7129 122.654 15.7129 124.393V124.642H22.7312Z" fill="#323244"/>
<path d="M21.8802 124.396C21.8802 123.17 20.8902 122.173 19.6674 122.173H19.1403C19.0118 122.173 18.8887 122.187 18.7657 122.208L18.7362 121.457C18.7175 120.985 18.3295 120.611 17.8586 120.611H14.3267C13.8558 120.611 13.4678 120.985 13.4491 121.457L13.5187 124.554C13.4999 125.053 13.8986 125.47 14.3963 125.47H17.9817C18.474 125.47 18.8673 125.064 18.8566 124.57H21.8828V124.396H21.8802Z" fill="#323244"/>
<path d="M12.9218 124.396C12.9218 123.17 11.9318 122.173 10.709 122.173H10.1819C10.0535 122.173 9.93037 122.187 9.80729 122.208L9.77786 121.457C9.75913 120.985 9.37116 120.611 8.90024 120.611H5.36834C4.89743 120.611 4.50945 120.985 4.49072 121.457L4.56029 124.554C4.54156 125.053 4.94024 125.47 5.43791 125.47H9.02332C9.51564 125.47 9.90897 125.064 9.89826 124.57H12.9245V124.396H12.9218Z" fill="#323244"/>
<path d="M13.6177 125.47H22.5624C22.6561 125.47 22.7337 125.387 22.7337 125.286V124.757C22.7337 124.655 22.6588 124.572 22.5624 124.572H13.6177C13.524 124.572 13.4464 124.655 13.4464 124.757V125.286C13.4464 125.387 13.5213 125.47 13.6177 125.47Z" fill="#323244"/>
<path d="M4.60056 125.47H13.5454C13.639 125.47 13.7166 125.387 13.7166 125.286V124.757C13.7166 124.655 13.6417 124.572 13.5454 124.572H4.60056C4.50692 124.572 4.42932 124.655 4.42932 124.757V125.286C4.42932 125.387 4.50424 125.47 4.60056 125.47Z" fill="#323244"/>
<path d="M13.7168 124.642V124.393C13.7168 122.654 12.3121 121.246 10.5809 121.246H9.83438C8.10322 121.246 6.69849 122.654 6.69849 124.393V124.642H13.7168Z" fill="#6B2A18"/>
<path d="M22.7312 124.642V124.393C22.7312 122.654 21.3265 121.246 19.5953 121.246H18.8488C17.1176 121.246 15.7129 122.654 15.7129 124.393V124.642H22.7312Z" fill="#6B2A18"/>
<path d="M21.8802 124.396C21.8802 123.17 20.8902 122.173 19.6674 122.173H19.1403C19.0118 122.173 18.8887 122.187 18.7657 122.208L18.7362 121.457C18.7175 120.985 18.3295 120.611 17.8586 120.611H14.3267C13.8558 120.611 13.4678 120.985 13.4491 121.457L13.5187 124.554C13.4999 125.053 13.8986 125.47 14.3963 125.47H17.9817C18.474 125.47 18.8673 125.064 18.8566 124.57H21.8828V124.396H21.8802Z" fill="#592114"/>
<path d="M12.9218 124.396C12.9218 123.17 11.9318 122.173 10.709 122.173H10.1819C10.0535 122.173 9.93037 122.187 9.80729 122.208L9.77786 121.457C9.75913 120.985 9.37116 120.611 8.90024 120.611H5.36834C4.89743 120.611 4.50945 120.985 4.49072 121.457L4.56029 124.554C4.54156 125.053 4.94024 125.47 5.43791 125.47H9.02332C9.51564 125.47 9.90897 125.064 9.89826 124.57H12.9245V124.396H12.9218Z" fill="#592114"/>
<path d="M13.6177 125.47H22.5624C22.6561 125.47 22.7337 125.387 22.7337 125.286V124.757C22.7337 124.655 22.6588 124.572 22.5624 124.572H13.6177C13.524 124.572 13.4464 124.655 13.4464 124.757V125.286C13.4464 125.387 13.5213 125.47 13.6177 125.47Z" fill="#4D1C14"/>
<path d="M4.60056 125.47H13.5454C13.639 125.47 13.7166 125.387 13.7166 125.286V124.757C13.7166 124.655 13.6417 124.572 13.5454 124.572H4.60056C4.50692 124.572 4.42932 124.655 4.42932 124.757V125.286C4.42932 125.387 4.50424 125.47 4.60056 125.47Z" fill="#4D1C14"/>
<path d="M10.9872 120.918L10.9979 101.77H12.1591L12.2313 120.918L12.4534 120.987C14.6502 121.66 17.0074 121.615 19.1774 120.859L19.2443 120.835L19.1667 96.8839H3.99829L4.0304 120.835L4.18559 120.886C6.37964 121.623 8.75029 121.636 10.9524 120.926L10.9872 120.915V120.918Z" fill="#252533"/>
<path d="M4.0011 97.5304H19.1695L19.0839 103.79H12.178L12.1592 102.414H10.998L10.9926 103.79H4.12686L4.0011 97.5304Z" fill="#131516"/>
<path d="M20.3522 75.5992C21.3636 74.413 22.6399 72.2971 21.8292 69.7484C21.8292 69.7484 22.1449 67.3894 21.1201 68.0012C20.0954 68.6129 20.8044 70.6754 19.7047 72.3158C19.7047 72.3158 20.2559 71.2071 19.7047 70.4991C19.1535 69.7911 18.8405 70.8037 18.605 72.2624C18.4926 72.949 18.0324 73.6623 17.8665 74.3622C17.5187 75.8129 19.3836 76.7346 20.3522 75.5992Z" fill="#F9A369"/>
<path d="M22.883 75.1985L22.8242 75.2092C21.2 75.5004 19.8515 76.4461 19.0194 77.8701L18.9899 77.9208L17.9785 76.4808L17.9919 76.4568C18.8267 75.0061 20.1967 74.0497 21.8475 73.7611L21.8743 73.7558L22.8857 75.1958L22.883 75.1985Z" fill="white"/>
<path d="M13.2511 58.5463L8.55261 58.8535C5.50234 59.0539 3.20126 61.7976 3.40996 64.9822L3.50094 66.3527C3.50094 66.3687 3.49023 66.3794 3.47686 66.3794C3.38053 66.3714 3.28421 66.3687 3.18521 66.3767H3.12902C1.92764 66.4596 1.02059 67.5389 1.10353 68.7945V68.8399C1.18915 70.0929 2.22732 71.044 3.42869 70.9666H3.48488C3.58656 70.9559 3.68288 70.9398 3.77921 70.9185C3.79259 70.9158 3.80596 70.9265 3.80596 70.9398C4.12169 73.9988 6.69837 76.2911 9.66035 76.096L14.3829 75.7861C17.4332 75.5858 19.7343 72.842 19.5256 69.6575L19.151 63.9509C18.9423 60.7664 16.2987 58.3459 13.2484 58.5463H13.2511Z" fill="#FFB37B"/>
<path d="M5.33345 67.7287C5.46188 65.0116 5.05785 61.5653 7.54355 59.8341C8.80112 58.9551 10.1416 59.0246 11.5678 59.0914C12.729 59.1475 13.8903 59.1795 15.0488 59.257C16.2984 59.3398 16.4 57.3441 15.1452 57.2426C13.8796 57.1411 12.6059 57.1224 11.3377 57.0609C9.52623 56.9755 7.84858 57.1518 6.31274 58.2926C4.60299 59.5642 3.69593 61.5626 3.59426 63.7159C3.53272 65.0223 3.4685 66.3314 3.40696 67.6378C3.34542 68.9362 5.27458 69.0297 5.33612 67.7287H5.33345Z" fill="#774320"/>
<path d="M2.79435 70.8223C1.10065 67.2317 -0.742893 61.6561 2.92278 59.7004C3.95024 54.432 11.0943 55.2976 12.8495 55.677C14.6048 56.0564 15.5734 55.108 15.5734 55.108C16.1834 55.5942 16.3092 56.6842 16.3092 56.6842L17.5347 54.8595C19.3728 55.8533 20.5341 58.6398 18.3079 62.8476L18.0243 66.2031L14.5727 71.3406C13.663 72.6951 12.1726 73.55 10.5404 73.6516L7.87011 73.8172C5.72154 73.9508 3.70943 72.7646 2.79435 70.8197V70.8223Z" fill="#774320"/>
<path d="M19.3059 67.4669C19.2871 68.7386 18.2383 69.7538 16.9647 69.7351C15.691 69.7164 14.6743 68.6692 14.693 67.3975C14.7117 66.1258 15.7606 65.1106 17.0342 65.1293C18.3078 65.148 19.3246 66.1953 19.3059 67.4669Z" fill="#FFB37B"/>
<path d="M27.6729 86.7077L27.622 86.7424C26.1986 87.6881 24.2748 87.3034 23.3276 85.8821L18.0485 77.9608L18.0618 77.9261C18.9341 75.8502 20.9649 74.5011 23.2179 74.4984H23.2553L28.5344 82.4171C29.4816 83.8383 29.0963 85.7592 27.6729 86.705V86.7077Z" fill="#373747"/>
<path d="M15.8439 76.9964L15.7931 76.9723C12.4886 75.4335 8.76673 75.2812 5.34721 76.5476L5.2937 76.5663L5.36594 74.7736L5.41946 74.7549C8.83897 73.4886 12.5608 73.6409 15.8653 75.1797L15.9161 75.2037L15.8439 76.9964Z" fill="white"/>
<path d="M3.672 76.7907C4.28205 73.2749 18.3561 74.1565 19.5281 77.8353L19.9535 97.9338C19.9535 97.9338 13.3419 102.542 3.672 98.8341V76.7907Z" fill="#252533"/>
<path d="M28.6651 85.6685L28.6357 85.7219C27.8089 87.218 25.9226 87.7577 24.4269 86.9322L14.9336 81.6932C13.4352 80.8676 12.8947 78.9841 13.7215 77.4907L13.7509 77.4373C14.5777 75.9412 16.464 75.4015 17.9597 76.2271L27.453 81.4661C28.9514 82.2916 29.4919 84.1751 28.6651 85.6685Z" fill="#252533"/>
<path d="M12.5682 87.0069L12.5174 87.0443C11.126 88.0408 9.19152 87.7202 8.19617 86.3337L2.92241 80.4695C1.92438 79.0803 2.24546 77.1487 3.63414 76.1549L3.68498 76.1174C5.07633 75.1209 7.01084 75.4415 8.0062 76.8281L13.28 82.6923C14.278 84.0815 13.9569 86.0131 12.5682 87.0069Z" fill="#252533"/>
<path d="M160.595 105.73H163.998C164.453 105.73 164.825 106.09 164.844 106.545L164.777 109.529C164.796 110.01 164.413 110.41 163.931 110.41H160.477C159.998 110.41 159.613 110.01 159.632 109.529L159.749 106.545C159.768 106.088 160.14 105.73 160.595 105.73Z" fill="#323244"/>
<path d="M163.627 108.874H156.713C156.374 108.874 156.1 109.148 156.1 109.486V109.601C156.1 109.939 156.374 110.213 156.713 110.213H163.627C163.965 110.213 164.239 109.939 164.239 109.601V109.486C164.239 109.148 163.965 108.874 163.627 108.874Z" fill="#323244"/>
<path d="M155.955 109.614V109.376C155.955 107.701 157.309 106.344 158.976 106.344H159.696C161.365 106.344 162.717 107.701 162.717 109.376V109.614H155.953H155.955Z" fill="#323244"/>
<path d="M156.948 107.976C156.948 108.786 157.975 108.893 159.244 108.893C160.512 108.893 161.539 108.786 161.539 107.976C161.539 107.167 160.512 106.51 159.244 106.51C157.975 106.51 156.948 107.167 156.948 107.976Z" fill="#323244"/>
<path d="M157.475 107.541C157.641 107.41 157.82 107.298 158.01 107.204L157.475 107.541Z" fill="#323244"/>
<path d="M157.638 107.701C157.788 107.584 157.954 107.488 158.125 107.402C158.39 107.269 158.158 106.876 157.895 107.007C157.687 107.111 157.499 107.236 157.315 107.378C157.216 107.453 157.234 107.621 157.315 107.701C157.411 107.798 157.539 107.776 157.638 107.701Z" fill="#323244"/>
<path d="M164.739 110.41H156.118C156.027 110.41 155.955 110.33 155.955 110.231V109.721C155.955 109.622 156.027 109.542 156.118 109.542H164.739C164.83 109.542 164.903 109.622 164.903 109.721V110.231C164.903 110.33 164.83 110.41 164.739 110.41Z" fill="#323244"/>
<path d="M169.286 105.73H172.689C173.144 105.73 173.516 106.09 173.535 106.545L173.468 109.529C173.486 110.01 173.104 110.41 172.622 110.41H169.168C168.689 110.41 168.304 110.01 168.322 109.529L168.44 106.545C168.459 106.088 168.831 105.73 169.286 105.73Z" fill="#323244"/>
<path d="M172.315 108.874H165.403C165.063 108.874 164.791 109.149 164.791 109.491V109.598C164.791 109.937 165.066 110.215 165.403 110.215H172.315C172.654 110.215 172.927 109.94 172.927 109.598V109.491C172.927 109.152 172.652 108.874 172.315 108.874Z" fill="#323244"/>
<path d="M164.643 109.614V109.376C164.643 107.701 165.997 106.344 167.664 106.344H168.384C170.054 106.344 171.405 107.701 171.405 109.376V109.614H164.641H164.643Z" fill="#323244"/>
<path d="M165.639 107.976C165.639 108.786 166.666 108.893 167.935 108.893C169.203 108.893 170.23 108.786 170.23 107.976C170.23 107.167 169.203 106.51 167.935 106.51C166.666 106.51 165.639 107.167 165.639 107.976Z" fill="#323244"/>
<path d="M166.163 107.541C166.329 107.41 166.508 107.298 166.698 107.204L166.163 107.541Z" fill="#323244"/>
<path d="M166.326 107.701C166.476 107.584 166.642 107.488 166.813 107.402C167.078 107.269 166.845 106.876 166.583 107.007C166.374 107.111 166.187 107.236 166.002 107.378C165.903 107.453 165.922 107.621 166.002 107.701C166.099 107.798 166.227 107.776 166.326 107.701Z" fill="#323244"/>
<path d="M173.428 110.41H164.807C164.716 110.41 164.643 110.33 164.643 110.231V109.721C164.643 109.622 164.716 109.542 164.807 109.542H173.428C173.519 109.542 173.591 109.622 173.591 109.721V110.231C173.591 110.33 173.519 110.41 173.428 110.41Z" fill="#323244"/>
<path d="M160.595 105.73H163.998C164.453 105.73 164.825 106.09 164.844 106.545L164.777 109.529C164.796 110.01 164.413 110.41 163.931 110.41H160.477C159.998 110.41 159.613 110.01 159.632 109.529L159.749 106.545C159.768 106.088 160.14 105.73 160.595 105.73Z" fill="#491C15"/>
<path d="M163.627 108.874H156.713C156.374 108.874 156.1 109.148 156.1 109.486V109.601C156.1 109.939 156.374 110.213 156.713 110.213H163.627C163.965 110.213 164.239 109.939 164.239 109.601V109.486C164.239 109.148 163.965 108.874 163.627 108.874Z" fill="#6B2A18"/>
<path d="M155.955 109.614V109.376C155.955 107.701 157.309 106.344 158.976 106.344H159.696C161.365 106.344 162.717 107.701 162.717 109.376V109.614H155.953H155.955Z" fill="#6B2A18"/>
<path d="M156.948 107.976C156.948 108.786 157.975 108.893 159.244 108.893C160.512 108.893 161.539 108.786 161.539 107.976C161.539 107.167 160.512 106.51 159.244 106.51C157.975 106.51 156.948 107.167 156.948 107.976Z" fill="#843621"/>
<path d="M157.475 107.541C157.641 107.41 157.82 107.298 158.01 107.204L157.475 107.541Z" fill="#FCFBFB"/>
<path d="M157.638 107.701C157.788 107.584 157.954 107.488 158.125 107.402C158.39 107.269 158.158 106.876 157.895 107.007C157.687 107.111 157.499 107.236 157.315 107.378C157.216 107.453 157.234 107.621 157.315 107.701C157.411 107.798 157.539 107.776 157.638 107.701Z" fill="#FCFBFB"/>
<path d="M164.739 110.41H156.118C156.027 110.41 155.955 110.33 155.955 110.231V109.721C155.955 109.622 156.027 109.542 156.118 109.542H164.739C164.83 109.542 164.903 109.622 164.903 109.721V110.231C164.903 110.33 164.83 110.41 164.739 110.41Z" fill="#4D1C14"/>
<path d="M169.286 105.73H172.689C173.144 105.73 173.516 106.09 173.535 106.545L173.468 109.529C173.486 110.01 173.104 110.41 172.622 110.41H169.168C168.689 110.41 168.304 110.01 168.322 109.529L168.44 106.545C168.459 106.088 168.831 105.73 169.286 105.73Z" fill="#491C15"/>
<path d="M172.315 108.874H165.403C165.063 108.874 164.791 109.149 164.791 109.491V109.598C164.791 109.937 165.066 110.215 165.403 110.215H172.315C172.654 110.215 172.927 109.94 172.927 109.598V109.491C172.927 109.152 172.652 108.874 172.315 108.874Z" fill="#6B2A18"/>
<path d="M164.643 109.614V109.376C164.643 107.701 165.997 106.344 167.664 106.344H168.384C170.054 106.344 171.405 107.701 171.405 109.376V109.614H164.641H164.643Z" fill="#6B2A18"/>
<path d="M165.639 107.976C165.639 108.786 166.666 108.893 167.935 108.893C169.203 108.893 170.23 108.786 170.23 107.976C170.23 107.167 169.203 106.51 167.935 106.51C166.666 106.51 165.639 107.167 165.639 107.976Z" fill="#843621"/>
<path d="M166.163 107.541C166.329 107.41 166.508 107.298 166.698 107.204L166.163 107.541Z" fill="#FCFBFB"/>
<path d="M166.326 107.701C166.476 107.584 166.642 107.488 166.813 107.402C167.078 107.269 166.845 106.876 166.583 107.007C166.374 107.111 166.187 107.236 166.002 107.378C165.903 107.453 165.922 107.621 166.002 107.701C166.099 107.798 166.227 107.776 166.326 107.701Z" fill="#FCFBFB"/>
<path d="M173.428 110.41H164.807C164.716 110.41 164.643 110.33 164.643 110.231V109.721C164.643 109.622 164.716 109.542 164.807 109.542H173.428C173.519 109.542 173.591 109.622 173.591 109.721V110.231C173.591 110.33 173.519 110.41 173.428 110.41Z" fill="#4D1C14"/>
<path d="M167.027 106.031L167.017 87.7978H165.912L165.842 106.031L165.631 106.096C163.538 106.737 161.296 106.694 159.228 105.975L159.164 105.954L159.239 83.1492H173.682L173.652 105.954L173.505 106.005C171.418 106.707 169.16 106.721 167.062 106.045L167.03 106.034L167.027 106.031Z" fill="#252533"/>
<path d="M173.679 83.7611H159.236L159.316 89.7215H165.893L165.909 88.4124H167.016L167.019 89.7215H173.558L173.679 83.7611Z" fill="#131516"/>
<path d="M177.013 80.2079C176.703 80.1384 176.264 80.3521 175.726 80.4643C175.726 80.4643 174.097 80.0663 174.33 80.8277C174.573 81.6211 175.194 81.8429 175.823 81.8349C175.218 82.7512 174.241 83.6222 174.699 84.274C175.568 85.5137 177.334 83.0451 177.334 83.0451C177.334 83.0451 176.912 83.8225 176.189 84.5091C175.071 85.5751 176.949 86.2617 178.006 85.2385C177.805 86.5369 179.362 87.0178 179.783 83.9054C179.943 82.7138 179.28 81.7627 178.672 81.0841C178.26 80.622 177.562 80.2159 177.016 80.2079H177.013Z" fill="#FFB37B"/>
<path d="M149.411 38.3624C148.948 40.489 150.425 41.1195 151.974 41.1195C153.523 41.1195 154.778 39.9681 154.778 38.5441C154.778 37.1201 153.523 35.9687 151.974 35.9687C150.425 35.9687 149.713 36.9705 149.411 38.3624Z" fill="#FF9E5C"/>
<path d="M150.299 36.2119C150.299 37.0588 150.797 37.7454 151.409 37.7454C152.022 37.7454 152.52 37.0588 152.52 36.2119C152.52 35.365 152.022 34.6783 151.409 34.6783C150.797 34.6783 150.299 35.365 150.299 36.2119Z" fill="#FFB37B"/>
<path d="M153.657 39.8399C155.03 38.6964 154.345 34.9135 152.627 34.689C150.909 34.4646 151.401 37.5316 152.627 37.6679C153.657 37.7828 153.427 36.2974 153.427 36.2974" fill="#FFB37B"/>
<path d="M154.024 35.8511C155.765 36.3213 154.925 41.1676 152.539 41.1168C150.152 41.0661 150.888 36.6526 153.108 38.0685C153.108 38.0685 153.181 35.6214 154.024 35.8484V35.8511Z" fill="#FFB37B"/>
<path d="M149.346 36.9412C149.595 37.6679 150.224 38.1087 150.751 37.9297C151.278 37.7507 151.5 37.016 151.251 36.2893C151.002 35.5626 150.374 35.1218 149.847 35.3008C149.319 35.4798 149.097 36.2145 149.346 36.9412Z" fill="#FFB37B"/>
<path d="M148.608 37.3847C148.819 37.9965 149.349 38.3705 149.791 38.2182C150.235 38.0659 150.422 37.4461 150.213 36.8343C150.002 36.2225 149.472 35.8485 149.031 36.0008C148.587 36.1531 148.399 36.7729 148.608 37.3847Z" fill="#FFB37B"/>
<path d="M150.711 43.0378L155.415 41.4749L154.727 39.3697L150.02 40.9326L150.711 43.0378Z" fill="white"/>
<path d="M177.627 78.5008L176.387 80.3367L180.077 82.8232L181.318 80.9873L177.627 78.5008Z" fill="white"/>
<path d="M181.179 82.078C181.436 81.728 187.397 73.4193 182.915 66.7109C178.268 59.754 165.679 62.5779 158.754 67.1891L161.606 70.208C169.379 69.3077 168.338 68.4234 171.718 68.028C173.28 67.8436 177.061 67.6406 178.434 69.6951C180.788 73.2216 176.863 78.856 176.82 78.9121L181.176 82.0753L181.179 82.078Z" fill="#252533"/>
<path d="M161.537 66.6921L152.611 41.1142" stroke="#252533" stroke-width="20.53" stroke-miterlimit="10"/>
<path d="M166.34 62.2413C175.352 62.2413 174.233 66.7937 174.233 66.7937V83.6943C170.37 85.6659 161.262 86.8174 158.519 83.168V65.4419C158.519 65.4419 157.328 62.2413 166.34 62.2413Z" fill="#252533"/>
<path d="M165.529 73.6731V85.5457C165.529 85.7595 165.86 85.7595 165.86 85.5457V73.6731C165.86 73.4594 165.529 73.4594 165.529 73.6731Z" fill="#131516"/>
<path d="M170.302 63.2565L165.695 73.6731L162.249 63.2565H170.302Z" fill="white"/>
<path d="M162.2 64.4052L162.243 64.3865C164.825 63.3099 167.758 63.3099 170.217 64.3865L170.257 64.4026L168.989 67.2505L166.176 65.3296L163.142 67.2505L162.2 64.4026V64.4052Z" fill="#AFA2A0"/>
<path d="M164.991 71.5412L165.697 73.6731L166.642 71.5412L166.278 63.2565L164.991 71.5412Z" fill="#070404"/>
<path d="M166.128 66.2193H166.115C165.708 66.2193 165.36 65.9816 165.267 65.6343L164.887 64.2557C164.742 63.7321 165.216 63.2084 165.828 63.2084H166.76C167.375 63.2084 167.787 63.7347 167.581 64.2557L167.043 65.6343C166.907 65.9816 166.535 66.2193 166.128 66.2193Z" fill="#070404"/>
<path d="M162.249 63.2565L162.291 63.2378C164.873 62.1611 167.806 62.1611 170.265 63.2378L170.305 63.2538L169.037 66.1018L166.211 64.3946L163.19 66.1018L162.249 63.2538V63.2565Z" fill="white"/>
<path d="M165.796 73.6731L162.385 63.3954L159.415 64.5282L161.052 66.6067L162.179 67.0048L161.617 68.3807L165.796 73.6731Z" fill="#131516"/>
<path d="M165.797 73.6731L170.479 63.3954L173.329 64.3759L171.445 66.6094L170.273 67.0075L170.677 68.3807L165.797 73.6731Z" fill="#131516"/>
<path d="M165.698 73.6731L162.286 62.6046L159.316 63.7347L160.951 65.8159L162.077 66.2139L161.516 67.5872L165.698 73.6731Z" fill="#323244"/>
<path d="M165.698 73.6757L170.38 62.6046L173.23 63.5851L171.346 65.8159L170.174 66.2139L170.578 67.5872L165.698 73.6757Z" fill="#323244"/>
<path d="M174.097 58.2419C174.097 58.2419 179.585 49.0248 174.089 46.5189C173.096 42.7252 166.284 43.1687 164.601 43.4919C160.761 44.232 157.235 47.4246 159.608 51.3064L174.097 58.2419Z" fill="#6D503C"/>
<path d="M166.58 58.322H166.19C165.318 58.322 164.611 59.0277 164.611 59.8983V62.5672C164.611 63.4377 165.318 64.1435 166.19 64.1435H166.58C167.452 64.1435 168.159 63.4377 168.159 62.5672V59.8983C168.159 59.0277 167.452 58.322 166.58 58.322Z" fill="#FF9E5C"/>
<path d="M165.258 46.1582L169.743 46.5216C172.654 46.7567 174.813 49.4123 174.567 52.4526L174.46 53.7616C174.46 53.775 174.471 53.7884 174.484 53.7857C174.575 53.7803 174.669 53.7777 174.762 53.7857L174.816 53.791C175.961 53.8845 176.812 54.9291 176.716 56.126V56.1688C176.614 57.3656 175.608 58.2606 174.463 58.1671L174.409 58.1618C174.313 58.1538 174.219 58.1377 174.128 58.1164C174.115 58.1137 174.104 58.1217 174.101 58.1351C173.756 61.0525 171.263 63.2031 168.432 62.976L163.926 62.6127C161.015 62.3776 158.855 59.722 159.102 56.6817L159.543 51.237C159.789 48.1967 162.35 45.9231 165.258 46.1582Z" fill="#FFB37B"/>
<path d="M172.592 55.3699C172.801 52.7784 173.609 49.5645 171.466 47.6195C170.38 46.6337 169.103 46.5349 167.744 46.4253C166.639 46.3372 165.534 46.2276 164.426 46.1582C163.23 46.0834 163.38 44.1812 164.581 44.2373C165.794 44.2934 167.003 44.4323 168.212 44.5312C169.941 44.6701 171.506 45.0414 172.823 46.3105C174.286 47.7237 174.902 49.7274 174.736 51.7819C174.634 53.0296 174.532 54.2745 174.433 55.5222C174.332 56.7618 172.493 56.6122 172.595 55.3726L172.592 55.3699Z" fill="#6D503C"/>
<path d="M167.528 53.7323C167.496 54.1143 167.696 54.4429 167.974 54.4643C168.253 54.4857 168.502 54.1945 168.534 53.8124C168.566 53.4304 168.365 53.1018 168.087 53.0804C167.809 53.059 167.56 53.3502 167.528 53.7323Z" fill="#131516"/>
<path d="M161.888 53.2754C161.855 53.6574 162.056 53.986 162.334 54.0074C162.613 54.0287 162.861 53.7375 162.894 53.3555C162.926 52.9735 162.725 52.6449 162.447 52.6235C162.168 52.6021 161.92 52.8933 161.888 53.2754Z" fill="#131516"/>
<path d="M161.66 51.9048C162.219 51.2823 163.051 51.2583 163.514 52.001C163.648 52.2147 163.985 52.017 163.851 51.8033C163.26 50.8575 162.115 50.8095 161.382 51.6296C161.213 51.8167 161.491 52.0945 161.66 51.9075V51.9048Z" fill="#774320"/>
<path d="M169.489 52.2975C168.906 51.3785 167.771 51.1968 167.024 52.0437C166.859 52.2307 167.134 52.5086 167.303 52.3216C167.878 51.6697 168.697 51.7792 169.152 52.4979C169.285 52.709 169.625 52.5139 169.489 52.3002V52.2975Z" fill="#774320"/>
<path d="M165.575 47.9722C171.386 48.4424 173.543 48.3008 173.112 53.62C173.112 53.62 174.899 45.9071 169.882 44.7689C164.866 43.6308 159.763 47.502 165.575 47.9722Z" fill="#6D503C"/>
<path d="M167.308 57.6034C167.19 59.0567 165.914 60.1414 164.458 60.0239C163.003 59.9063 161.917 58.6319 162.034 57.1786L167.308 57.606V57.6034Z" fill="white"/>
<path d="M132.891 140.113V139.849C132.891 137.989 134.392 136.485 136.244 136.485H137.044C138.896 136.485 140.397 137.992 140.397 139.849V140.113H132.894H132.891Z" fill="#323244"/>
<path d="M123.253 140.113V139.849C123.253 137.989 124.754 136.485 126.606 136.485H127.406C129.258 136.485 130.759 137.992 130.759 139.849V140.113H123.256H123.253Z" fill="#323244"/>
<path d="M124.163 139.851C124.163 138.54 125.223 137.476 126.531 137.476H127.096C127.232 137.476 127.366 137.49 127.494 137.514L127.526 136.712C127.545 136.207 127.96 135.807 128.463 135.807H132.238C132.741 135.807 133.156 136.207 133.175 136.712L133.103 140.022C133.124 140.557 132.698 141 132.166 141H128.334C127.807 141 127.387 140.565 127.398 140.038H124.163V139.851Z" fill="#323244"/>
<path d="M133.737 139.851C133.737 138.54 134.797 137.476 136.105 137.476H136.669C136.806 137.476 136.94 137.49 137.068 137.514L137.1 136.712C137.119 136.207 137.534 135.807 138.037 135.807H141.812C142.315 135.807 142.73 136.207 142.749 136.712L142.676 140.022C142.698 140.557 142.272 141 141.74 141H137.908C137.381 141 136.961 140.565 136.972 140.038H133.737V139.851Z" fill="#323244"/>
<path d="M132.996 141H123.433C123.331 141 123.251 140.912 123.251 140.803V140.236C123.251 140.127 123.331 140.039 123.433 140.039H132.996C133.097 140.039 133.177 140.127 133.177 140.236V140.803C133.177 140.912 133.097 141 132.996 141Z" fill="#323244"/>
<path d="M142.633 141H133.07C132.968 141 132.888 140.912 132.888 140.803V140.236C132.888 140.127 132.968 140.039 133.07 140.039H142.633C142.735 140.039 142.815 140.127 142.815 140.236V140.803C142.815 140.912 142.735 141 142.633 141Z" fill="#323244"/>
<path d="M132.891 140.113V139.849C132.891 137.989 134.392 136.485 136.244 136.485H137.044C138.896 136.485 140.397 137.992 140.397 139.849V140.113H132.894H132.891Z" fill="#6B2A18"/>
<path d="M123.253 140.113V139.849C123.253 137.989 124.754 136.485 126.606 136.485H127.406C129.258 136.485 130.759 137.992 130.759 139.849V140.113H123.256H123.253Z" fill="#6B2A18"/>
<path d="M124.163 139.851C124.163 138.54 125.223 137.476 126.531 137.476H127.096C127.232 137.476 127.366 137.49 127.494 137.514L127.526 136.712C127.545 136.207 127.96 135.807 128.463 135.807H132.238C132.741 135.807 133.156 136.207 133.175 136.712L133.103 140.022C133.124 140.557 132.698 141 132.166 141H128.334C127.807 141 127.387 140.565 127.398 140.038H124.163V139.851Z" fill="#592114"/>
<path d="M133.737 139.851C133.737 138.54 134.797 137.476 136.105 137.476H136.669C136.806 137.476 136.94 137.49 137.068 137.514L137.1 136.712C137.119 136.207 137.534 135.807 138.037 135.807H141.812C142.315 135.807 142.73 136.207 142.749 136.712L142.676 140.022C142.698 140.557 142.272 141 141.74 141H137.908C137.381 141 136.961 140.565 136.972 140.038H133.737V139.851Z" fill="#592114"/>
<path d="M132.996 141H123.433C123.331 141 123.251 140.912 123.251 140.803V140.236C123.251 140.127 123.331 140.039 123.433 140.039H132.996C133.097 140.039 133.177 140.127 133.177 140.236V140.803C133.177 140.912 133.097 141 132.996 141Z" fill="#4D1C14"/>
<path d="M142.633 141H133.07C132.968 141 132.888 140.912 132.888 140.803V140.236C132.888 140.127 132.968 140.039 133.07 140.039H142.633C142.735 140.039 142.815 140.127 142.815 140.236V140.803C142.815 140.912 142.735 141 142.633 141Z" fill="#4D1C14"/>
<path d="M135.808 136.132L135.797 111.922H134.555L134.478 136.132L134.24 136.205C131.89 136.923 129.373 136.878 127.053 136.068L126.98 136.044L127.063 106.702H143.278L143.243 136.044L143.077 136.1C140.733 136.889 138.197 136.905 135.845 136.143L135.808 136.132Z" fill="#252533"/>
<path d="M143.276 108.727H127.061L127.152 115.417H134.537L134.555 113.947H135.794L135.8 115.417H143.142L143.276 108.727Z" fill="#131516"/>
<path d="M121.338 82.2276C119.818 81.541 117.618 80.0742 117.241 77.2397C117.241 77.2397 115.86 75.0997 117.129 75.228C118.397 75.3562 118.654 77.6725 120.465 78.7571C120.465 78.7571 119.427 77.9343 119.639 77.0019C119.85 76.0695 120.615 76.903 121.506 78.2068C121.926 78.8213 122.697 79.2995 123.178 79.9033C124.176 81.1482 122.793 82.8874 121.338 82.2302V82.2276Z" fill="#F9A369"/>
<path d="M118.705 82.9916L118.767 82.9755C120.471 82.5214 122.208 82.8206 123.658 83.8198L123.711 83.8572L124.032 82.0057L124.008 81.9897C122.539 80.9665 120.779 80.6646 119.05 81.1348L119.023 81.1428L118.702 82.9942L118.705 82.9916Z" fill="white"/>
<path d="M132.316 64.6483L137.338 64.9769C140.597 65.1906 143.059 68.1241 142.834 71.5304L142.738 72.9971C142.738 73.0131 142.749 73.0265 142.765 73.0238C142.866 73.0158 142.971 73.0131 143.078 73.0184H143.137C144.421 73.1066 145.39 74.2607 145.301 75.6019V75.65C145.21 76.9884 144.1 78.0063 142.816 77.9235H142.754C142.647 77.9128 142.543 77.8941 142.438 77.8727C142.425 77.8701 142.411 77.8808 142.409 77.8941C142.072 81.1642 139.318 83.614 136.15 83.4056L131.104 83.0744C127.845 82.8606 125.383 79.9272 125.608 76.5209L126.01 70.4217C126.234 67.0154 129.057 64.4292 132.319 64.643L132.316 64.6483Z" fill="#FFB37B"/>
<path d="M141.85 75.5351C141.711 72.6311 142.144 68.947 139.487 67.0955C138.141 66.1578 136.71 66.2299 135.187 66.3021C133.946 66.3608 132.704 66.3982 131.465 66.4784C130.128 66.5666 130.021 64.4346 131.364 64.3251C132.718 64.2155 134.077 64.1968 135.436 64.1327C137.373 64.0419 139.166 64.2289 140.806 65.4498C142.634 66.807 143.605 68.9443 143.715 71.2472C143.782 72.6445 143.848 74.0417 143.915 75.439C143.982 76.8282 141.919 76.9244 141.852 75.5378L141.85 75.5351Z" fill="#774320"/>
<path d="M143.492 77.7712C145.304 73.9321 147.273 67.9745 143.356 65.8826C142.259 60.2509 134.62 61.1779 132.744 61.584L132.589 61.5065C129.806 60.1146 126.453 61.8672 126.057 64.9502C125.892 66.2459 126.095 67.7073 126.911 69.2488L127.213 72.8368L130.9 78.3296C131.874 79.7776 133.466 80.6913 135.211 80.8008L138.066 80.9798C140.362 81.1241 142.513 79.8524 143.492 77.7739V77.7712Z" fill="#CC8A1F"/>
<path d="M125.844 74.186C125.865 75.5458 126.984 76.6305 128.346 76.6091C129.707 76.5878 130.794 75.471 130.772 74.1112C130.751 72.7514 129.633 71.6667 128.271 71.6881C126.909 71.7094 125.822 72.8262 125.844 74.186Z" fill="#FFB37B"/>
<path d="M119.32 96.2988L119.387 96.3095C121.196 96.5766 122.879 95.3317 123.149 93.5257L124.645 83.4671L124.615 83.4403C122.825 81.8294 120.246 81.4473 118.065 82.4706L118.028 82.4866L116.532 92.5452C116.264 94.3512 117.511 96.0316 119.32 96.3015V96.2988Z" fill="#252533"/>
<path d="M131.955 85.4387L130.673 85.412C134.205 83.7663 138.184 83.606 141.839 84.9578L141.895 84.9792L141.818 83.061L141.761 83.0396C138.106 81.6851 135.465 81.8481 131.934 83.4938L130.54 83.5205L131.955 85.4387Z" fill="white"/>
<path d="M143.626 85.2224C142.976 81.4634 127.928 82.4065 126.676 87.6615L126.221 109.147C126.221 109.147 133.29 114.073 143.626 110.108V85.2224Z" fill="#252533"/>
<path d="M116.909 94.7119L116.941 94.7707C117.827 96.3683 119.842 96.9481 121.442 96.0638L131.588 90.4641C133.188 89.5798 133.769 87.568 132.883 85.9704L132.851 85.9117C131.965 84.314 129.95 83.7343 128.35 84.6186L118.204 90.2183C116.604 91.1026 116.024 93.1143 116.909 94.7119Z" fill="#252533"/>
<path d="M138.088 98.5697L138.152 98.5884C139.918 99.0639 141.735 98.0193 142.211 96.2561L143.878 90.3572C144.354 88.5939 144.948 85.4815 142.54 83.8118L140.734 83.2106C138.66 82.9435 139.305 84.9071 138.829 86.6704L135.754 94.5169C135.278 96.2801 136.324 98.0942 138.09 98.5697H138.088Z" fill="#252533"/>
<path d="M50.1539 107.6H47.1705C46.7718 107.6 46.4454 107.915 46.4293 108.31L46.4882 110.913C46.4721 111.332 46.8093 111.682 47.2294 111.682H50.2555C50.6756 111.682 51.0128 111.332 50.9967 110.913L50.895 108.31C50.879 107.912 50.5525 107.6 50.1539 107.6Z" fill="#491C15"/>
<path d="M68.6854 76.2003C68.6854 76.2003 71.2835 73.4566 72.1504 73.3871C72.9371 73.323 74.0288 74.2046 74.3873 74.8244C74.5238 75.0649 74.4943 75.3507 74.2401 75.3347C73.9244 75.3133 73.4883 74.7683 72.7819 74.6802C72.5009 74.6454 72.2441 74.95 72.1852 75.2278C71.9364 76.406 71.2541 78.944 70.0768 78.6128C69.1028 78.3376 67.3958 77.6723 67.3958 77.6723L68.6854 76.2003Z" fill="#FFB37B"/>
<path d="M68.6554 76.3153C68.6554 76.3153 71.6521 75.4256 72.7438 74.8593C73.8382 74.2929 73.7525 76.0802 72.0963 76.4649C72.0963 76.4649 71.4381 78.5835 69.9986 78.6503C68.559 78.7171 67.0286 76.8149 67.0286 76.8149L68.6554 76.3153Z" fill="#FFB37B"/>
<path d="M67.0339 78.669L67.5316 78.9254C69.8675 78.2362 69.0246 75.9493 69.0246 75.9493L68.3049 75.5512L67.0339 78.669Z" fill="white"/>
<path d="M67.9334 78.4338C67.8798 78.4872 67.8237 78.538 67.7648 78.5861C67.4785 78.8292 67.1012 79.0349 66.6036 79.1818C66.6036 79.1818 66.5929 79.1765 66.5688 79.1631L56.4146 73.9562L55.8233 74.373L55.4781 74.6161L53.3402 72.3773L52.2512 71.8189L53.26 67.5817L68.415 75.5698C68.415 75.5698 69.0491 77.293 67.9334 78.4338Z" fill="#252533"/>
<path d="M45.5165 106.713C45.4844 106.924 45.4844 107.14 45.5165 107.354L45.9714 110.213C46.0008 110.544 45.8671 110.864 45.6129 111.073C45.3533 111.281 45.0162 111.412 44.746 111.511C44.1038 111.746 43.3492 111.407 42.9747 110.819C42.9559 110.79 42.9372 110.758 42.9185 110.726L42.18 109.36C41.8321 108.717 41.7385 107.971 41.9178 107.277L41.9231 107.252C42.1024 106.555 42.0061 105.81 41.6582 105.163C41.2087 104.327 40.2909 102.788 41.0829 102C42.6054 100.488 44.1867 100.624 44.8717 102.526C45.1072 103.181 45.7948 103.419 45.9152 104.105L45.5112 106.713H45.5165Z" fill="#4D1C14"/>
<path d="M45.9392 103.611L45.9285 103.63L45.3987 104.477C45.38 104.584 45.3907 105.147 45.4094 105.687C45.4175 105.863 45.4228 106.037 45.4309 106.195C45.4442 106.47 45.4576 106.683 45.4656 106.748L45.8269 109.507C45.8429 109.959 46.0891 110.357 45.9312 110.667C45.9205 110.688 45.9071 110.71 45.8937 110.734C45.7466 110.993 45.5486 111.185 45.3292 111.292C45.2275 111.343 45.1178 111.372 45.0081 111.383C44.3445 111.447 43.6007 110.661 43.2555 110.092C43.2395 110.063 43.2207 110.034 43.2047 110.002L42.5304 108.684C42.212 108.065 42.1424 107.343 42.3324 106.673L42.3404 106.651C42.3886 106.483 42.4207 106.315 42.4341 106.144C42.4635 105.834 42.4341 105.521 42.3619 105.219C42.311 105.019 42.2388 104.821 42.1424 104.634C42.1344 104.618 42.1264 104.602 42.1184 104.584C41.9578 104.271 41.7411 103.868 41.5806 103.445C41.42 103.026 41.313 102.591 41.3638 102.208C41.3959 101.973 41.4923 101.757 41.6742 101.581C41.899 101.364 42.121 101.183 42.3431 101.038C42.3859 101.009 42.4261 100.985 42.4689 100.958C42.5786 100.891 42.6883 100.833 42.798 100.785C43.8923 100.29 44.8636 100.71 45.3185 102.086C45.4282 102.42 45.6636 102.641 45.875 102.874C46.065 103.082 45.8964 103.296 45.9446 103.611H45.9392Z" fill="#6B2A18"/>
<path d="M45.8136 110.664C45.7013 110.715 45.5835 110.758 45.4604 110.79C44.2912 111.089 43.4644 108.757 43.4243 107.589C43.3868 106.443 44.2617 106.13 45.6531 106.195C45.6665 106.47 45.6798 106.683 45.6879 106.748L46.0491 109.507C46.0651 109.959 45.9742 110.357 45.8136 110.667V110.664Z" fill="#843621"/>
<path d="M45.7467 105.687C44.9761 105.54 42.477 104.616 42.4636 100.958V100.929L42.7339 100.75C42.7553 100.76 42.774 100.774 42.7927 100.787C44.2483 101.671 44.5533 102.796 45.6477 102.641C45.9072 102.938 46.2096 103.184 46.2765 103.614L45.736 104.477C45.7172 104.584 45.7279 105.147 45.7467 105.687Z" fill="#491C15"/>
<path d="M46.2766 103.611L46.2659 103.63L45.7361 104.477C45.7174 104.583 45.7281 105.147 45.7468 105.687C45.7548 105.863 45.7602 106.037 45.7682 106.194C45.7816 106.47 45.795 106.683 45.803 106.747L46.1642 109.507C46.1802 109.959 46.0893 110.357 45.9287 110.667C45.918 110.688 45.9047 110.709 45.8913 110.734C45.7441 110.993 45.5461 111.185 45.3267 111.292C45.3401 111.276 45.3535 111.263 45.3695 111.244C46.1803 110.36 45.1635 107.648 44.805 106.785C44.4464 105.919 44.5775 105.035 44.6551 103.961C44.6551 103.961 44.9949 103.453 45.1635 103.133C45.2625 102.946 45.5541 102.89 45.8725 102.876C46.0625 103.085 46.2338 103.298 46.2819 103.614L46.2766 103.611Z" fill="#491C15"/>
<path d="M49.7469 73.6918C52.5886 73.6918 54.8922 72.6679 54.8922 71.4049C54.8922 70.1419 52.5886 69.118 49.7469 69.118C46.9052 69.118 44.6016 70.1419 44.6016 71.4049C44.6016 72.6679 46.9052 73.6918 49.7469 73.6918Z" fill="#323244"/>
<path d="M50.2018 86.7372H49.7068L49.7282 87.1059H50.2258L50.2018 86.7372ZM55.5906 82.0806L43.9728 84.4851L45.2598 99.1362L42.3192 100.988L42.3326 101.129C42.7928 102.257 43.4912 103.323 44.4303 104.108C44.821 104.437 45.2544 104.714 45.728 104.926C45.7575 104.939 45.7869 104.952 45.8136 104.963L46.0331 107.402L46.1856 107.49C47.6625 108.351 49.5088 108.249 50.8841 107.234L50.9055 107.218L50.5737 101.877L54.4213 99.048C55.1946 98.4789 55.6307 97.5653 55.5879 96.6088V82.0806H55.5906Z" fill="#252533"/>
<path d="M44.5747 91.1801L45.6022 91.319C47.0577 91.5167 48.5267 91.6075 49.9929 91.5942L49.9635 91.0999H50.2605L50.2926 91.5862C51.411 91.5568 52.7569 91.4686 53.8673 91.3163L55.5905 91.0812V82.0833L43.9753 84.4877L44.5774 91.1827L44.5747 91.1801ZM50.2016 86.7372L50.2257 87.1059H49.728L49.7066 86.7345H50.2016V86.7372Z" fill="#191923"/>
<path d="M55.8343 73.243V89.9164L53.8676 90.1863C51.1277 90.5603 48.345 90.5603 45.6051 90.1916L43.5823 89.9191V73.2296C43.5823 73.2296 42.7101 68.947 49.7391 68.947C56.7681 68.947 55.8369 73.2456 55.8369 73.2456L55.8343 73.243Z" fill="#252533"/>
<path d="M45.8379 84.5572C45.7656 85.4816 45.193 88.0436 43.5769 89.0909V84.5545C43.9274 84.477 44.2191 84.4343 44.3288 84.4824C44.6686 84.632 45.3081 84.2179 45.3857 84.3702C45.4606 84.5198 45.8379 84.5572 45.8379 84.5572Z" fill="#191923"/>
<path d="M43.9729 84.485C43.9729 84.485 44.5402 84.5758 45.2385 84.8296C45.9289 85.0834 46.4613 84.2098 45.2599 83.7957C44.8746 83.6621 44.5509 83.566 44.2699 83.5098C44.7168 83.256 45.3857 82.8152 45.2894 82.5C45.0459 81.6985 44.1388 82.1847 43.4994 82.8339C43.0231 83.3202 42.7421 84.0629 42.5789 84.501C42.5334 84.5999 42.4906 84.704 42.4478 84.8189C41.8137 86.4753 44.1977 87.4131 44.773 87.015C45.6666 86.3925 43.4806 85.6979 43.4806 85.6979C43.4806 85.6979 45.078 86.6303 45.5168 85.9437C45.862 85.404 44.5001 84.7227 43.9729 84.485Z" fill="#FFB37B"/>
<path d="M42.4033 81.8632L40.9343 84.4651L42.2326 85.1958L43.7015 82.5939L42.4033 81.8632Z" fill="white"/>
<path d="M50.7771 69.0752L50.3168 72.7647C49.5195 72.6659 48.6606 72.6819 47.7883 72.7754C47.3308 72.8262 46.8679 72.8983 46.4077 72.9865C45.2277 73.2189 44.0611 73.5609 43.0256 73.9349C42.0035 74.3036 39.6034 75.5726 39.3921 77.2664C39.0282 80.1731 43.2022 81.8776 43.245 81.9016L41.5326 85.2037C41.265 85.0648 35.0066 82.3371 35.6969 76.8069C36.1438 73.2376 39.6623 70.8385 43.633 69.7111C44.6284 69.4252 45.6531 69.2222 46.6645 69.0993C48.1014 68.9256 49.5115 68.9149 50.7771 69.0726V69.0752Z" fill="#252533"/>
<path d="M49.5679 77.8994C49.6589 82.1687 49.7525 86.4406 49.8435 90.7098C49.8462 90.8915 50.1298 90.8915 50.1271 90.7098C50.0361 86.4406 49.9425 82.1687 49.8515 77.8994C49.8488 77.7178 49.5652 77.7178 49.5679 77.8994Z" fill="#191923"/>
<path d="M46.6084 69.5882L49.7336 78.7277L52.8882 69.5882H46.6084Z" fill="white"/>
<path d="M52.8723 70.5979C50.8147 69.6068 48.5458 69.6575 46.5898 70.5979L47.4514 73.0959L49.7311 71.4101L52.0108 73.0959L52.8723 70.5979Z" fill="#AFA2A0"/>
<path d="M50.3759 76.8575L49.731 78.7277L49.0916 76.8575L49.4207 71.6105L50.0227 71.5357L50.3759 76.8575Z" fill="#E23A29"/>
<path d="M50.4721 71.103L50.3758 71.3541L50.2233 71.7549C50.0815 72.1235 49.3911 72.1235 49.2466 71.7549L49.0941 71.3541L48.9978 71.103C48.9015 70.8545 49.145 70.6061 49.4821 70.6061H49.9932C50.3303 70.6061 50.5738 70.8545 50.4775 71.103H50.4721Z" fill="#E23A29"/>
<path d="M50.4722 71.103L50.3759 71.3541C50.1725 71.1725 49.8836 70.9267 49.7203 70.8145L49.0916 71.3541L48.9952 71.103C48.8989 70.8545 49.1424 70.6061 49.4795 70.6061H49.9906C50.3277 70.6061 50.5712 70.8545 50.4749 71.103H50.4722Z" fill="#BF2E26"/>
<path d="M52.8886 69.5882C53.3408 68.223 50.831 67.9291 49.7982 67.9238C48.6931 67.9157 46.0656 68.1883 46.6061 69.5882L47.4676 72.0861L49.7473 70.5874L52.027 72.0861L52.8886 69.5882Z" fill="white"/>
<path d="M49.7094 79.0671L52.864 69.3558L55.1303 70.3469L53.7603 72.1717L52.864 72.5216L53.2412 73.7265L49.7094 79.0671Z" fill="#191923"/>
<path d="M46.4052 72.9891L46.5523 72.5243L45.656 72.1743L43.6305 69.7138C44.6258 69.4279 45.2412 69.289 46.2527 69.1661L47.5718 72.8556L49.707 79.0697L46.1724 73.7292L46.4025 72.9891H46.4052Z" fill="#191923"/>
<path d="M49.731 78.7277L53.0729 68.5115L54.0629 67.9398L55.58 68.9176L53.7846 71.835L52.8883 72.1823L53.2655 73.3898L49.731 78.7277Z" fill="#404054"/>
<path d="M49.7312 78.7278L46.4053 68.7146L44.139 69.5722L45.6802 71.835L46.5739 72.185L46.1993 73.3899L49.7312 78.7278Z" fill="#404054"/>
<path d="M56.7094 55.5141C56.4712 55.8802 56.1742 56.2301 55.8077 56.5561L53.627 57.7262L46.1511 61.7336L42.4667 63.7106C42.4667 63.7106 37.3054 55.0413 42.4748 52.6849C43.6922 48.0176 50.0523 49.1958 51.6042 49.6339C53.1587 50.0721 54.0792 49.2759 54.0792 49.2759C54.5983 49.7435 54.6491 50.7293 54.6491 50.7293L55.8505 49.1611C57.2365 50.0267 58.3014 53.075 56.7067 55.5141H56.7094Z" fill="#823D1A"/>
<path d="M46.1538 61.7337L42.4694 63.7107C42.4694 63.7107 39.2452 58.2954 40.4465 54.8597C40.7248 54.0662 41.2359 53.3796 42.0787 52.8907C42.2045 52.8186 42.3382 52.7491 42.4774 52.685C42.6326 52.8987 42.9322 53.246 43.347 53.612C43.2052 53.7723 43.0767 53.9407 42.9536 54.1116C42.5791 54.6486 42.2981 55.2417 42.1162 55.8695C41.878 56.679 41.7978 57.5446 41.87 58.4183C41.9637 59.5911 42.06 60.7613 42.1563 61.9341C42.2499 63.0989 43.9811 62.96 43.8875 61.7952C43.6948 59.4094 42.9644 56.46 44.8239 54.6219C45.5544 54.9933 46.4133 55.2444 47.3471 55.191C49.2575 55.0814 47.8929 59.3854 46.1538 61.7337Z" fill="#72311D"/>
<path d="M56.7092 55.5141C56.4711 55.8801 56.1741 56.23 55.8075 56.556L53.6268 57.7261C53.0248 56.8579 52.6984 55.4847 52.6984 55.4847L53.1506 55.1454C53.3405 54.5256 53.188 54.3359 53.9238 53.9992C54.6596 53.66 55.5239 52.9066 55.6764 51.9849C55.6764 51.9849 57.1159 53.3634 56.7092 55.5167V55.5141Z" fill="#72311D"/>
<path d="M49.91 64.5735H49.5354C48.7168 64.5735 48.0531 65.2362 48.0531 66.0536V68.5703C48.0531 69.3877 48.7168 70.0503 49.5354 70.0503H49.91C50.7287 70.0503 51.3923 69.3877 51.3923 68.5703V66.0536C51.3923 65.2362 50.7287 64.5735 49.91 64.5735Z" fill="#FF954D"/>
<g style="mix-blend-mode:multiply">
<path d="M44.369 69.54C45.0861 69.8045 46.9698 70.5178 46.9698 70.5178C46.9698 70.5178 48.1016 70.1037 48.4013 69.9915C48.7036 69.8793 50.6248 70.2934 51.2669 69.5774L52.6609 69.7644L54.9112 68.5595L53.4396 67.4909L45.5757 69.011L44.369 69.5374V69.54Z" fill="#D3CCC5"/>
</g>
<path d="M55.7462 66.3556C54.9355 67.6112 53.6003 68.4822 52.035 68.6104L47.7968 68.9524C45.1371 69.1688 42.7906 67.1437 42.4641 64.4C42.4641 64.3866 42.4508 64.3786 42.4374 64.3813C42.3518 64.4 42.2635 64.416 42.1752 64.424H42.1243C41.046 64.5148 40.5537 63.6733 40.4601 62.5485V62.5058C40.3637 61.381 40.7143 60.3979 41.7899 60.3097H41.838C41.9263 60.299 42.0146 60.299 42.1003 60.3044C42.1136 60.3044 42.1243 60.2937 42.1217 60.2803L42.0227 59.0487C41.9638 58.3167 42.0521 57.6087 42.2635 56.9569C42.8762 55.06 44.5217 53.6361 46.5606 53.4704L50.7775 53.1285C53.5147 52.9067 55.9228 55.0467 56.1556 57.9053L56.5703 63.0268C56.6693 64.253 56.3536 65.4098 55.7435 66.3502L55.7462 66.3556Z" fill="#FFB37B"/>
<path d="M47.7988 68.9524C45.1392 69.1688 42.7927 67.1437 42.4662 64.3999C42.4662 64.3866 42.4528 64.3786 42.4395 64.3812C42.3538 64.3999 42.2655 64.416 42.1773 64.424H42.1264C41.0481 64.5148 40.5558 63.6733 40.4621 62.5485V62.5058C40.3658 61.381 40.7163 60.3979 41.792 60.3097H41.8401C41.9284 60.299 42.0167 60.299 42.1023 60.3044C42.1157 60.3044 42.1264 60.2937 42.1237 60.2803L42.0247 59.0487C41.9659 58.3167 42.0542 57.6087 42.2655 56.9568C42.7632 57.924 43.2716 59.4495 43.2716 59.4495C44.085 64.7793 45.2168 68.5115 48.6042 68.8829L47.7935 68.9497L47.7988 68.9524Z" fill="#FF954D"/>
<path d="M51.5661 53.131C50.5253 53.1978 49.4844 53.2993 48.4463 53.3848C47.1673 53.4864 45.9659 53.5825 44.9465 54.5069C44.9037 54.5443 44.8635 54.5844 44.8234 54.6245C44.2428 54.3306 43.7424 53.9592 43.3464 53.6119C43.4481 53.4944 43.5551 53.3848 43.6675 53.2753C44.9037 52.0811 46.378 51.7338 48.0048 51.6029C49.142 51.5094 50.2791 51.3811 51.419 51.325C52.5508 51.2716 52.6899 53.0616 51.5661 53.131Z" fill="#823D1A"/>
<path d="M48.3104 60.8494C48.3398 61.21 48.1525 61.5173 47.8903 61.5386C47.6281 61.56 47.3953 61.2848 47.3658 60.9268C47.3364 60.5662 47.5237 60.2589 47.7859 60.2376C48.0481 60.2162 48.2809 60.4914 48.3104 60.8494Z" fill="#131516"/>
<path d="M53.6163 60.422C53.6457 60.7827 53.4584 61.0899 53.1962 61.1113C52.9366 61.1326 52.7012 60.8575 52.6717 60.4995C52.6423 60.1388 52.8296 59.8316 53.0918 59.8102C53.3514 59.7888 53.5868 60.064 53.6163 60.422Z" fill="#131516"/>
<path d="M54.4293 58.2793C53.7417 57.5045 52.6607 57.5499 52.1069 58.4422C51.9811 58.6426 52.2995 58.8296 52.4253 58.6293C52.8587 57.932 53.6481 57.9533 54.1698 58.5411C54.3277 58.7174 54.5872 58.4583 54.4293 58.2819V58.2793Z" fill="#774320"/>
<path d="M47.1225 59.0967C47.5506 58.4234 48.3265 58.3219 48.8617 58.931C49.0168 59.11 49.2764 58.8482 49.1212 58.6719C48.4228 57.8731 47.3499 58.0467 46.8041 58.9097C46.6756 59.11 46.9967 59.2944 47.1225 59.094V59.0967Z" fill="#774320"/>
<path d="M55.601 52.1532C55.601 52.1532 55.601 52.1532 55.601 52.1559C55.4004 52.9654 54.488 54.5176 50.4878 54.8409C47.0308 55.1187 44.9492 55.1695 43.9886 56.4331C43.4294 57.1678 43.2501 58.3139 43.3973 60.1547C43.3973 60.1547 41.717 52.8986 46.4342 51.83C51.1541 50.7586 53.0538 52.952 55.6519 51.6643C55.6519 51.6643 55.6733 51.8593 55.601 52.1532Z" fill="#823D1A"/>
<path d="M48.2723 65.0384C49.8322 66.3475 51.8309 65.9841 53.1607 64.5602C53.4096 64.2957 53.0109 63.895 52.7621 64.1621C51.657 65.3456 49.9901 65.7464 48.671 64.6403C48.3954 64.4079 47.9913 64.806 48.2723 65.0384Z" fill="#ED804A"/>
<path d="M50.5738 101.88L45.8137 104.966L46.0331 107.405C46.0331 107.405 47.1007 108.148 48.4065 108.073C48.4065 108.073 47.5743 104.178 50.159 103.063L50.5229 107.474L50.9082 107.218L50.5764 101.877L50.5738 101.88Z" fill="#191923"/>
<path d="M45.2601 99.1335L45.2119 98.2705L50.1566 94.6959L50.186 95.5642L45.2601 99.1335Z" fill="#191923"/>
<path d="M52.878 110.341H47.4972C47.2001 110.341 46.9594 110.581 46.9594 110.878V110.971C46.9594 111.268 47.2001 111.508 47.4972 111.508H52.878C53.175 111.508 53.4158 111.268 53.4158 110.971V110.878C53.4158 110.581 53.175 110.341 52.878 110.341Z" fill="#6B2A18"/>
<path d="M53.4291 110.985V110.776C53.4291 109.315 52.2437 108.131 50.7801 108.131H50.1487C48.6851 108.131 47.4998 109.315 47.4998 110.776V110.985H53.4291Z" fill="#6B2A18"/>
<path d="M52.5591 109.561C52.5591 110.266 51.6574 110.36 50.547 110.36C49.4366 110.36 48.5349 110.266 48.5349 109.561C48.5349 108.855 49.4366 108.281 50.547 108.281C51.6574 108.281 52.5591 108.853 52.5591 109.561Z" fill="#843621"/>
<path d="M52.0969 109.179C51.9524 109.066 51.7946 108.968 51.6287 108.885L52.0969 109.179Z" fill="#FCFBFB"/>
<path d="M52.1764 109.04C52.0293 108.928 51.8741 108.829 51.7082 108.746C51.5236 108.655 51.3604 108.93 51.5477 109.021C51.7136 109.104 51.8687 109.2 52.0159 109.315C52.0855 109.368 52.1952 109.326 52.2353 109.259C52.2835 109.176 52.246 109.093 52.1791 109.04H52.1764Z" fill="#FCFBFB"/>
<path d="M46.5232 111.682H53.3996C53.4799 111.682 53.5441 111.612 53.5441 111.527V111.083C53.5441 110.998 53.4799 110.929 53.3996 110.929H46.5232C46.4429 110.929 46.3787 110.998 46.3787 111.083V111.527C46.3787 111.612 46.4429 111.682 46.5232 111.682Z" fill="#4D1C14"/>
<path d="M50.3944 93.5124L50.2606 91.0973H49.9636L50.1857 95.5642C50.5014 95.0593 50.4345 94.1242 50.3944 93.5124Z" fill="#191923"/>
<path d="M55.8177 74.8593C55.815 74.9528 55.815 75.0489 55.815 75.1504C55.815 75.1504 55.8017 75.0222 55.8177 74.8593Z" fill="#191923"/>
<path d="M67.7653 78.5862C67.479 78.8293 67.1017 79.035 66.604 79.182C66.604 79.182 66.5933 79.1766 66.5692 79.1632C65.9779 78.8774 57.8438 74.91 56.7843 74.349C56.0271 73.9509 55.8531 74.4799 55.8184 74.8486C55.8184 74.6776 55.8184 74.52 55.8237 74.3731C55.8799 71.9446 56.2037 72.4361 56.2037 72.4361L56.7843 73.593L67.7653 78.5862Z" fill="#191923"/>
<path d="M43.8844 61.7978C43.9781 62.9626 42.2496 63.1042 42.1532 61.9367C42.0596 60.7639 41.9633 59.5911 41.8669 58.4209C41.7225 56.6469 42.1987 54.9131 43.3439 53.612C43.7399 53.9593 44.2403 54.328 44.8209 54.6245C42.9586 56.4626 43.6891 59.412 43.8844 61.7978Z" fill="#72311D"/>
<path d="M43.1355 55.5889C42.8652 55.8881 42.5094 55.9549 42.1187 55.8721C41.5782 55.7572 40.9735 55.3538 40.4464 54.8595C40.7247 54.0661 41.2357 53.3795 42.0786 52.8906C42.3595 53.2218 42.7047 53.668 42.9562 54.1115C43.2773 54.6779 43.4458 55.2469 43.1355 55.5862V55.5889Z" fill="#823D1A"/>
<path d="M44.7836 73.3792L43.5769 76.2885V73.6944C43.5769 73.6944 43.601 73.6864 43.6144 73.681C44.1789 73.4914 44.7836 73.3792 44.7836 73.3792Z" fill="#191923"/>
<path d="M96.9327 19.7975V31.9747" stroke="#E58010" stroke-width="8.82" stroke-miterlimit="10"/>
<path d="M100.526 20.0405H93.3391" stroke="#E58010" stroke-width="8.82" stroke-miterlimit="10"/>
<path d="M100.526 31.7288H93.3391" stroke="#E58010" stroke-width="8.82" stroke-miterlimit="10"/>
<path d="M109.198 36.1878C108.995 36.153 108.791 36.1023 108.582 36.0836C107.269 35.966 105.987 36.0702 104.778 36.6499C104.259 36.8984 103.857 37.2671 103.67 37.8335C103.611 38.0071 103.624 38.122 103.793 38.2315C104.197 38.496 104.641 38.5788 105.107 38.5521C106.15 38.4933 107.047 38.0365 107.876 37.4461C108.36 37.1014 108.794 36.69 109.251 36.308C109.233 36.2679 109.217 36.2278 109.198 36.1878Z" fill="#E58010"/>
<path d="M103.903 39.53C103.59 39.3243 103.288 39.0972 102.959 38.9155C102.116 38.4533 101.222 38.1301 100.248 38.098C99.7236 38.0793 99.2313 38.1835 98.838 38.5789C98.7069 38.7098 98.6962 38.822 98.7925 38.9743C99.1296 39.5086 99.6407 39.7865 100.235 39.9227C101.479 40.2112 102.686 40.0429 103.868 39.6262C103.882 39.5941 103.892 39.5621 103.906 39.5327L103.903 39.53Z" fill="#E58010"/>
<path d="M110.859 31.7261C110.512 31.817 110.209 31.8731 109.923 31.9719C108.912 32.3272 107.967 32.7974 107.279 33.6577C107.02 33.981 106.867 34.3523 106.894 34.7824C106.905 34.9347 106.958 35.0095 107.127 35.0416C107.675 35.1485 108.168 35.0069 108.617 34.7157C109.637 34.0558 110.3 33.102 110.793 32.0147C110.822 31.9532 110.825 31.8784 110.862 31.7234L110.859 31.7261Z" fill="#E58010"/>
<path d="M104.628 34.5661C104.537 34.5421 104.51 34.5287 104.486 34.5314C103.295 34.649 102.305 35.1245 101.666 36.1718C101.465 36.5004 101.422 36.8931 101.516 37.2751C101.538 37.3606 101.618 37.4595 101.698 37.4969C102.196 37.7266 102.656 37.6011 103.06 37.2805C103.673 36.7969 104.061 36.1477 104.342 35.4291C104.449 35.1539 104.529 34.8654 104.625 34.5635L104.628 34.5661Z" fill="#E58010"/>
<path d="M107.269 24.9189C107.146 25.3009 107.015 25.6349 106.934 25.9795C106.755 26.7409 106.691 27.513 106.857 28.2878C106.948 28.7126 107.13 29.0812 107.491 29.3564C107.692 29.5087 107.825 29.49 107.978 29.303C108.272 28.945 108.411 28.5282 108.409 28.0794C108.406 26.9653 108.021 25.9715 107.411 25.0551C107.387 25.0204 107.349 24.9964 107.266 24.9189H107.269Z" fill="#E58010"/>
<path d="M106.704 30.2461C106.249 30.6602 105.934 31.1758 105.663 31.7208C105.407 32.2364 105.19 32.7654 105.147 33.3478C105.115 33.7726 105.174 34.1734 105.455 34.518C105.546 34.6302 105.634 34.6596 105.773 34.5928C106.086 34.4432 106.324 34.2188 106.498 33.9222C106.9 33.2356 107.007 32.4822 106.975 31.7048C106.953 31.2186 106.876 30.7323 106.822 30.2488C106.785 30.2488 106.744 30.2488 106.707 30.2488L106.704 30.2461Z" fill="#E58010"/>
<path d="M110.1 28.1035C109.846 28.2851 109.61 28.4347 109.396 28.6111C108.856 29.0599 108.398 29.5889 108.064 30.206C107.842 30.6148 107.703 31.0529 107.823 31.5285C107.917 31.8998 108.005 31.9452 108.361 31.8277C108.883 31.6567 109.22 31.2693 109.471 30.8178C109.915 30.027 110.121 29.1641 110.132 28.2584C110.132 28.2263 110.121 28.1916 110.103 28.1035H110.1Z" fill="#E58010"/>
<path d="M84.9028 36.1878C85.1061 36.153 85.3095 36.1023 85.5182 36.0836C86.8319 35.966 88.1136 36.0702 89.323 36.6499C89.8421 36.8984 90.2434 37.2671 90.4307 37.8335C90.4896 38.0071 90.4762 38.122 90.3076 38.2315C89.9036 38.496 89.4594 38.5788 88.9939 38.5521C87.9503 38.4933 87.054 38.0365 86.2245 37.4461C85.7402 37.1014 85.3068 36.69 84.8492 36.308C84.868 36.2679 84.884 36.2278 84.9028 36.1878Z" fill="#E58010"/>
<path d="M90.198 39.53C90.511 39.3243 90.8134 39.0972 91.1425 38.9155C91.9853 38.4533 92.879 38.1301 93.853 38.098C94.3774 38.0793 94.8697 38.1835 95.263 38.5789C95.3942 38.7098 95.4049 38.822 95.3085 38.9743C94.9714 39.5086 94.4603 39.7865 93.8663 39.9227C92.6222 40.2112 91.4154 40.0429 90.2328 39.6262C90.2194 39.5941 90.2087 39.5621 90.1953 39.5327L90.198 39.53Z" fill="#E58010"/>
<path d="M83.2413 31.7261C83.5892 31.817 83.8915 31.8731 84.1778 31.9719C85.1892 32.3272 86.1337 32.7974 86.8214 33.6577C87.0809 33.981 87.2334 34.3523 87.2067 34.7824C87.196 34.9347 87.1425 35.0095 86.9739 35.0416C86.4254 35.1485 85.933 35.0069 85.4835 34.7157C84.4641 34.0558 83.8005 33.102 83.3082 32.0147C83.2788 31.9532 83.2761 31.8784 83.2386 31.7234L83.2413 31.7261Z" fill="#E58010"/>
<path d="M89.4733 34.5661C89.5642 34.5421 89.591 34.5287 89.6151 34.5314C90.8058 34.649 91.7958 35.1245 92.4352 36.1718C92.6359 36.5004 92.6787 36.8931 92.5851 37.2751C92.5637 37.3606 92.4834 37.4595 92.4031 37.4969C91.9055 37.7266 91.4452 37.6011 91.0412 37.2805C90.4285 36.7969 90.0405 36.1477 89.7596 35.4291C89.6525 35.1539 89.5723 34.8654 89.4759 34.5635L89.4733 34.5661Z" fill="#E58010"/>
<path d="M86.8325 24.9189C86.9556 25.3009 87.0867 25.6349 87.167 25.9795C87.3462 26.7409 87.4105 27.513 87.2446 28.2878C87.1536 28.7126 86.9716 29.0812 86.6104 29.3564C86.4098 29.5087 86.276 29.49 86.1235 29.303C85.8291 28.945 85.69 28.5282 85.6927 28.0794C85.6927 26.9653 86.0806 25.9715 86.6907 25.0551C86.7148 25.0204 86.7522 24.9964 86.8352 24.9189H86.8325Z" fill="#E58010"/>
<path d="M87.3966 30.2461C87.8514 30.6602 88.1671 31.1758 88.4374 31.7208C88.6943 32.2364 88.911 32.7654 88.9538 33.3478C88.9859 33.7726 88.927 34.1734 88.6461 34.518C88.5551 34.6302 88.4668 34.6596 88.3277 34.5928C88.0146 34.4432 87.7765 34.2188 87.6026 33.9222C87.2012 33.2356 87.0942 32.4822 87.1263 31.7048C87.1477 31.2186 87.2253 30.7323 87.2788 30.2488C87.3163 30.2488 87.3564 30.2488 87.3939 30.2488L87.3966 30.2461Z" fill="#E58010"/>
<path d="M84.0014 28.1035C84.2555 28.2851 84.491 28.4347 84.705 28.6111C85.2455 29.0599 85.7031 29.5889 86.0375 30.206C86.2596 30.6148 86.3988 31.0529 86.2783 31.5285C86.1847 31.8998 86.0964 31.9452 85.7405 31.8277C85.2188 31.6567 84.8816 31.2693 84.6301 30.8178C84.186 30.027 83.9799 29.1641 83.9692 28.2584C83.9692 28.2263 83.9799 28.1916 83.9987 28.1035H84.0014Z" fill="#E58010"/>
</svg>
